{"asset":{"version":"2.0","generator":"babylon.js glTF exporter for 3ds max 2015 v1.3.33"},"scene":0,"scenes":[{"nodes":[0,1],"extensions":{}}],"nodes":[{"mesh":0,"translation":[0.005860448,0.0,0.0],"rotation":[-2.68335441E-07,-1.54543134E-08,-0.7071068,0.7071068],"scale":[0.102635972,0.102635957,0.102635972],"name":"L9095WH110"},{"translation":[0.0,0.0,0.0],"rotation":[0.0,0.0,0.0,1.0],"scale":[1.0,1.0,1.0],"name":"Default light"}],"meshes":[{"primitives":[{"attributes":{"POSITION":1,"NORMAL":2,"TEXCOORD_0":3},"indices":0,"mode":4,"material":0}],"name":"L9095WH110"}],"accessors":[{"bufferView":0,"componentType":5123,"count":1896,"type":"SCALAR","name":"accessorIndices"},{"bufferView":1,"componentType":5126,"count":1896,"max":[3.27173757E-06,23.1107178,35.00004],"min":[-142.0,5.110715,-34.99997],"type":"VEC3","name":"accessorPositions"},{"bufferView":1,"byteOffset":22752,"componentType":5126,"count":1896,"type":"VEC3","name":"accessorNormals"},{"bufferView":2,"componentType":5126,"count":1896,"type":"VEC2","name":"accessorUVs"}],"bufferViews":[{"buffer":0,"byteLength":3792,"name":"bufferViewScalar"},{"buffer":0,"byteOffset":3792,"byteLength":45504,"byteStride":12,"name":"bufferViewFloatVec3"},{"buffer":0,"byteOffset":49296,"byteLength":15168,"byteStride":8,"name":"bufferViewFloatVec2"}],"buffers":[{"uri":"L9096WH.bin","byteLength":64464}],"materials":[{"pbrMetallicRoughness":{"baseColorFactor":[0.9436276,0.9436276,0.9436276,1.0],"metallicFactor":0.0,"roughnessFactor":0.9},"emissiveFactor":[0.0,0.0,0.0],"alphaMode":"OPAQUE","name":"m_base0"}]}