{"asset":{"version":"2.0","generator":"babylon.js glTF exporter for 3ds max 2015 v1.3.33"},"scene":0,"scenes":[{"nodes":[0,1],"extensions":{}}],"nodes":[{"mesh":0,"translation":[0.0,0.0,0.0],"rotation":[-2.37426789E-07,2.06518166E-07,-0.7071068,0.7071068],"scale":[1.0,-1.0,1.0],"name":"058_Кронштейн_L9340-R_(437х80х12)_а011"},{"translation":[0.0,0.0,0.0],"rotation":[0.0,0.0,0.0,1.0],"scale":[1.0,1.0,1.0],"name":"Default light"}],"meshes":[{"primitives":[{"attributes":{"POSITION":1,"NORMAL":2,"TEXCOORD_0":3},"indices":0,"mode":4,"material":0}],"name":"058_Кронштейн_L9340-R_(437х80х12)_а011"}],"accessors":[{"bufferView":0,"componentType":5123,"count":3072,"type":"SCALAR","name":"accessorIndices"},{"bufferView":1,"componentType":5126,"count":3072,"max":[3.70007274E-06,0.609663665,4.072306],"min":[-44.1999969,-1.59033644,-4.072304],"type":"VEC3","name":"accessorPositions"},{"bufferView":1,"byteOffset":36864,"componentType":5126,"count":3072,"type":"VEC3","name":"accessorNormals"},{"bufferView":2,"componentType":5126,"count":3072,"type":"VEC2","name":"accessorUVs"}],"bufferViews":[{"buffer":0,"byteLength":6144,"name":"bufferViewScalar"},{"buffer":0,"byteOffset":6144,"byteLength":73728,"byteStride":12,"name":"bufferViewFloatVec3"},{"buffer":0,"byteOffset":79872,"byteLength":24576,"byteStride":8,"name":"bufferViewFloatVec2"}],"buffers":[{"uri":"L9340WH(l).bin","byteLength":104448}],"materials":[{"pbrMetallicRoughness":{"baseColorFactor":[0.6125001,0.6125001,0.6125001,1.0],"metallicFactor":0.0,"roughnessFactor":0.9},"emissiveFactor":[0.0,0.0,0.0],"alphaMode":"OPAQUE","name":"m_base0"}]}