{"asset":{"version":"2.0","generator":"babylon.js glTF exporter for 3ds max 2015 v1.3.33"},"scene":0,"scenes":[{"nodes":[0,1],"extensions":{}}],"nodes":[{"mesh":0,"translation":[0.0,0.0,0.0],"rotation":[-2.37426832E-07,-1.306566E-07,-0.7071068,0.7071068],"scale":[1.0,-1.0,1.0],"name":"L9701WH"},{"translation":[0.0,0.0,0.0],"rotation":[0.0,0.0,0.0,1.0],"scale":[1.0,1.0,1.0],"name":"Default light"}],"meshes":[{"primitives":[{"attributes":{"POSITION":1,"NORMAL":2,"TEXCOORD_0":3},"indices":0,"mode":4,"material":0}],"name":"L9701WH"}],"accessors":[{"bufferView":0,"componentType":5123,"count":2514,"type":"SCALAR","name":"accessorIndices"},{"bufferView":1,"componentType":5126,"count":2514,"max":[2.31191552E-06,1.39360821,4.999734],"min":[-2.98496532,-1.39363086,-4.999725],"type":"VEC3","name":"accessorPositions"},{"bufferView":1,"byteOffset":30168,"componentType":5126,"count":2514,"type":"VEC3","name":"accessorNormals"},{"bufferView":2,"componentType":5126,"count":2514,"type":"VEC2","name":"accessorUVs"}],"bufferViews":[{"buffer":0,"byteLength":5028,"name":"bufferViewScalar"},{"buffer":0,"byteOffset":5028,"byteLength":60336,"byteStride":12,"name":"bufferViewFloatVec3"},{"buffer":0,"byteOffset":65364,"byteLength":20112,"byteStride":8,"name":"bufferViewFloatVec2"}],"buffers":[{"uri":"L9701WH.bin","byteLength":85476}],"materials":[{"pbrMetallicRoughness":{"baseColorFactor":[0.6125001,0.6125001,0.6125001,1.0],"metallicFactor":0.0,"roughnessFactor":0.9},"emissiveFactor":[0.0,0.0,0.0],"alphaMode":"OPAQUE","name":"m_base0"}]}