{"asset":{"version":"2.0","generator":"babylon.js glTF exporter for 3ds max 2015 v1.3.33"},"scene":0,"scenes":[{"nodes":[0,1,2,3,4,5],"extensions":{}}],"nodes":[{"mesh":0,"translation":[0.0,0.0,0.0],"rotation":[0.0,0.0,0.0,1.0],"scale":[0.099999994,0.099999994,0.099999994],"name":"Обувница 600"},{"mesh":1,"translation":[12.1483908,1.078702,3.71957827],"rotation":[0.0,-0.7071068,0.0,0.7071067],"scale":[0.350947827,0.630207658,0.385708],"name":"markerObj_tit6"},{"mesh":2,"translation":[-14.817708,1.078702,3.71957827],"rotation":[0.0,-0.7071068,0.0,0.7071067],"scale":[0.350947827,0.630207658,0.385708],"name":"markerObj_tit6 (1)"},{"mesh":3,"translation":[-14.817708,15.6170416,3.3366785],"rotation":[0.0,-0.7071068,0.0,0.7071067],"scale":[0.350947827,0.630207658,0.385708],"name":"markerObj_tit7"},{"mesh":4,"translation":[12.1483908,15.6170416,3.3366785],"rotation":[0.0,-0.7071068,0.0,0.7071067],"scale":[0.350947827,0.630207658,0.385708],"name":"markerObj_tit7 (1)"},{"translation":[0.0,0.0,0.0],"rotation":[0.0,0.0,0.0,1.0],"scale":[1.0,1.0,1.0],"name":"Default light"}],"meshes":[{"primitives":[{"attributes":{"POSITION":1,"NORMAL":2,"TEXCOORD_0":3},"indices":0,"mode":4,"material":0}],"name":"Обувница 600"},{"primitives":[{"attributes":{"POSITION":5,"NORMAL":6,"TEXCOORD_0":7},"indices":4}],"name":"markerObj_tit6"},{"primitives":[{"attributes":{"POSITION":9,"NORMAL":10,"TEXCOORD_0":11},"indices":8}],"name":"markerObj_tit6"},{"primitives":[{"attributes":{"POSITION":13,"NORMAL":14,"TEXCOORD_0":15},"indices":12}],"name":"markerObj_tit7"},{"primitives":[{"attributes":{"POSITION":17,"NORMAL":18,"TEXCOORD_0":19},"indices":16}],"name":"markerObj_tit7"}],"accessors":[{"bufferView":0,"componentType":5123,"count":28620,"type":"SCALAR","name":"accessorIndices"},{"bufferView":1,"componentType":5126,"count":28620,"max":[302.983643,405.934448,47.3333168],"min":[-302.9836,-9.536744E-06,-47.3333321],"type":"VEC3","name":"accessorPositions"},{"bufferView":1,"byteOffset":343440,"componentType":5126,"count":28620,"type":"VEC3","name":"accessorNormals"},{"bufferView":2,"componentType":5126,"count":28620,"type":"VEC2","name":"accessorUVs"},{"bufferView":0,"byteOffset":57240,"componentType":5123,"count":96,"type":"SCALAR","name":"accessorIndices"},{"bufferView":1,"byteOffset":686880,"componentType":5126,"count":96,"max":[3.7337656,4.22077942,3.40909],"min":[-3.733766,0.0,-3.40909386],"type":"VEC3","name":"accessorPositions"},{"bufferView":1,"byteOffset":688032,"componentType":5126,"count":96,"type":"VEC3","name":"accessorNormals"},{"bufferView":2,"byteOffset":228960,"componentType":5126,"count":96,"type":"VEC2","name":"accessorUVs"},{"bufferView":0,"byteOffset":57432,"componentType":5123,"count":96,"type":"SCALAR","name":"accessorIndices"},{"bufferView":1,"byteOffset":689184,"componentType":5126,"count":96,"max":[3.7337656,4.22077942,3.409092],"min":[-3.7337656,0.0,-3.40909576],"type":"VEC3","name":"accessorPositions"},{"bufferView":1,"byteOffset":690336,"componentType":5126,"count":96,"type":"VEC3","name":"accessorNormals"},{"bufferView":2,"byteOffset":229728,"componentType":5126,"count":96,"type":"VEC2","name":"accessorUVs"},{"bufferView":0,"byteOffset":57624,"componentType":5123,"count":96,"type":"SCALAR","name":"accessorIndices"},{"bufferView":1,"byteOffset":691488,"componentType":5126,"count":96,"max":[3.73376656,4.22077751,3.409092],"min":[-3.73376513,0.0,-3.40909576],"type":"VEC3","name":"accessorPositions"},{"bufferView":1,"byteOffset":692640,"componentType":5126,"count":96,"type":"VEC3","name":"accessorNormals"},{"bufferView":2,"byteOffset":230496,"componentType":5126,"count":96,"type":"VEC2","name":"accessorUVs"},{"bufferView":0,"byteOffset":57816,"componentType":5123,"count":96,"type":"SCALAR","name":"accessorIndices"},{"bufferView":1,"byteOffset":693792,"componentType":5126,"count":96,"max":[3.73376656,4.22077751,3.409092],"min":[-3.7337656,0.0,-3.40909386],"type":"VEC3","name":"accessorPositions"},{"bufferView":1,"byteOffset":694944,"componentType":5126,"count":96,"type":"VEC3","name":"accessorNormals"},{"bufferView":2,"byteOffset":231264,"componentType":5126,"count":96,"type":"VEC2","name":"accessorUVs"}],"bufferViews":[{"buffer":0,"byteLength":58008,"name":"bufferViewScalar"},{"buffer":0,"byteOffset":58008,"byteLength":696096,"byteStride":12,"name":"bufferViewFloatVec3"},{"buffer":0,"byteOffset":754104,"byteLength":232032,"byteStride":8,"name":"bufferViewFloatVec2"}],"buffers":[{"uri":"L9442WH.bin","byteLength":986136}],"materials":[{"pbrMetallicRoughness":{"baseColorFactor":[0.6125001,0.6125001,0.6125001,1.0],"metallicFactor":0.0,"roughnessFactor":0.9},"emissiveFactor":[0.0,0.0,0.0],"alphaMode":"OPAQUE","name":"m_base0"}]}