{"asset":{"version":"2.0","generator":"babylon.js glTF exporter for 3ds max 2015 v1.3.33"},"scene":0,"scenes":[{"nodes":[0,1,2,3],"extensions":{}}],"nodes":[{"mesh":0,"translation":[-1.70633078,0.0,1.08473587],"rotation":[0.0,0.0,0.0,1.0],"scale":[0.155735627,0.155735627,0.155735627],"name":"markerObj_tit0_"},{"translation":[24629.4375,-3976.895,1723.86682],"rotation":[7.54978942E-08,7.54978942E-08,-4.37113954E-08,1.0],"scale":[1.0,1.0,1.0],"name":"Particle View 001"},{"translation":[24668.5586,-3976.895,1698.251],"rotation":[7.54978942E-08,7.54978942E-08,-4.37113954E-08,1.0],"scale":[1.0,1.0,1.0],"name":"Particle View 001 (1)"},{"translation":[0.0,0.0,0.0],"rotation":[0.0,0.0,0.0,1.0],"scale":[1.0,1.0,1.0],"name":"Default light"}],"meshes":[{"primitives":[{"attributes":{"POSITION":1,"NORMAL":2,"TEXCOORD_0":3},"indices":0,"mode":4,"material":0},{"attributes":{"POSITION":5,"NORMAL":6,"TEXCOORD_0":7},"indices":4,"mode":4,"material":1},{"attributes":{"POSITION":9,"NORMAL":10,"TEXCOORD_0":11},"indices":8,"mode":4,"material":2},{"attributes":{"POSITION":13,"NORMAL":14,"TEXCOORD_0":15},"indices":12,"mode":4,"material":3},{"attributes":{"POSITION":17,"NORMAL":18,"TEXCOORD_0":19},"indices":16,"mode":4,"material":4},{"attributes":{"POSITION":21,"NORMAL":22,"TEXCOORD_0":23},"indices":20,"mode":4,"material":5},{"attributes":{"POSITION":25,"NORMAL":26,"TEXCOORD_0":27},"indices":24,"mode":4,"material":6}],"name":"markerObj_tit0_"}],"accessors":[{"bufferView":0,"componentType":5123,"count":2376,"type":"SCALAR","name":"accessorIndices"},{"bufferView":1,"componentType":5126,"count":2376,"max":[218.21701,149.080811,280.507172],"min":[-201.609146,58.64756,12.0589237],"type":"VEC3","name":"accessorPositions"},{"bufferView":1,"byteOffset":28512,"componentType":5126,"count":2376,"type":"VEC3","name":"accessorNormals"},{"bufferView":2,"componentType":5126,"count":2376,"type":"VEC2","name":"accessorUVs"},{"bufferView":0,"byteOffset":4752,"componentType":5123,"count":924,"type":"SCALAR","name":"accessorIndices"},{"bufferView":1,"byteOffset":57024,"componentType":5126,"count":924,"max":[217.625031,146.027985,276.294617],"min":[-217.410767,3.72985673,-275.245178],"type":"VEC3","name":"accessorPositions"},{"bufferView":1,"byteOffset":68112,"componentType":5126,"count":924,"type":"VEC3","name":"accessorNormals"},{"bufferView":2,"byteOffset":19008,"componentType":5126,"count":924,"type":"VEC2","name":"accessorUVs"},{"bufferView":0,"byteOffset":6600,"componentType":5123,"count":2376,"type":"SCALAR","name":"accessorIndices"},{"bufferView":1,"byteOffset":79200,"componentType":5126,"count":2376,"max":[223.9156,58.64756,262.64566],"min":[-214.017075,0.6770335,-261.4733],"type":"VEC3","name":"accessorPositions"},{"bufferView":1,"byteOffset":107712,"componentType":5126,"count":2376,"type":"VEC3","name":"accessorNormals"},{"bufferView":2,"byteOffset":26400,"componentType":5126,"count":2376,"type":"VEC2","name":"accessorUVs"},{"bufferView":0,"byteOffset":11352,"componentType":5123,"count":2376,"type":"SCALAR","name":"accessorIndices"},{"bufferView":1,"byteOffset":136224,"componentType":5126,"count":2376,"max":[209.982132,118.936264,262.6457],"min":[-209.84407,30.955616,-262.6713],"type":"VEC3","name":"accessorPositions"},{"bufferView":1,"byteOffset":164736,"componentType":5126,"count":2376,"type":"VEC3","name":"accessorNormals"},{"bufferView":2,"byteOffset":45408,"componentType":5126,"count":2376,"type":"VEC2","name":"accessorUVs"},{"bufferView":0,"byteOffset":16104,"componentType":5123,"count":1188,"type":"SCALAR","name":"accessorIndices"},{"bufferView":1,"byteOffset":193248,"componentType":5126,"count":1188,"max":[196.6385,78.66659,18.8822174],"min":[-223.915588,54.8111,-280.5072],"type":"VEC3","name":"accessorPositions"},{"bufferView":1,"byteOffset":207504,"componentType":5126,"count":1188,"type":"VEC3","name":"accessorNormals"},{"bufferView":2,"byteOffset":64416,"componentType":5126,"count":1188,"type":"VEC2","name":"accessorUVs"},{"bufferView":0,"byteOffset":18480,"componentType":5123,"count":25503,"type":"SCALAR","name":"accessorIndices"},{"bufferView":1,"byteOffset":221760,"componentType":5126,"count":25503,"max":[148.135818,161.289948,1.50556707],"min":[-203.092636,78.14024,-272.477539],"type":"VEC3","name":"accessorPositions"},{"bufferView":1,"byteOffset":527796,"componentType":5126,"count":25503,"type":"VEC3","name":"accessorNormals"},{"bufferView":2,"byteOffset":73920,"componentType":5126,"count":25503,"type":"VEC2","name":"accessorUVs"},{"bufferView":0,"byteOffset":69488,"componentType":5123,"count":14943,"type":"SCALAR","name":"accessorIndices"},{"bufferView":1,"byteOffset":833832,"componentType":5126,"count":14943,"max":[158.628754,164.475037,1.83339167],"min":[-205.797348,75.95355,-275.9221],"type":"VEC3","name":"accessorPositions"},{"bufferView":1,"byteOffset":1013148,"componentType":5126,"count":14943,"type":"VEC3","name":"accessorNormals"},{"bufferView":2,"byteOffset":277944,"componentType":5126,"count":14943,"type":"VEC2","name":"accessorUVs"}],"bufferViews":[{"buffer":0,"byteLength":99376,"name":"bufferViewScalar"},{"buffer":0,"byteOffset":99376,"byteLength":1192464,"byteStride":12,"name":"bufferViewFloatVec3"},{"buffer":0,"byteOffset":1291840,"byteLength":397488,"byteStride":8,"name":"bufferViewFloatVec2"}],"buffers":[{"uri":"set_1.bin","byteLength":1689328}],"materials":[{"pbrMetallicRoughness":{"baseColorFactor":[1.0,1.0,1.0,1.0],"baseColorTexture":{"index":0,"texCoord":0},"metallicFactor":0.0,"roughnessFactor":0.9},"emissiveFactor":[0.0,0.0,0.0],"alphaMode":"BLEND","name":"Material #1sdaw"},{"pbrMetallicRoughness":{"baseColorFactor":[1.0,1.0,1.0,1.0],"baseColorTexture":{"index":1,"texCoord":0},"metallicFactor":0.0,"roughnessFactor":0.9},"emissiveFactor":[0.0,0.0,0.0],"alphaMode":"BLEND","name":"Material #1xx"},{"pbrMetallicRoughness":{"baseColorFactor":[1.0,1.0,1.0,1.0],"baseColorTexture":{"index":2,"texCoord":0},"metallicFactor":0.0,"roughnessFactor":0.9},"emissiveFactor":[0.0,0.0,0.0],"alphaMode":"BLEND","name":"Material #1sdawjuiu"},{"pbrMetallicRoughness":{"baseColorFactor":[1.0,1.0,1.0,1.0],"baseColorTexture":{"index":3,"texCoord":0},"metallicFactor":0.0,"roughnessFactor":0.9},"emissiveFactor":[0.0,0.0,0.0],"alphaMode":"BLEND","name":"Material #1sdawjuiughw"},{"pbrMetallicRoughness":{"baseColorFactor":[1.0,1.0,1.0,1.0],"baseColorTexture":{"index":4,"texCoord":0},"metallicFactor":0.0,"roughnessFactor":0.9},"emissiveFactor":[0.0,0.0,0.0],"alphaMode":"BLEND","name":"Material #1sdawjuiughwsw"},{"pbrMetallicRoughness":{"baseColorFactor":[0.9722224,0.9722224,0.9722224,1.0],"metallicFactor":0.0,"roughnessFactor":0.9},"emissiveFactor":[0.0,0.0,0.0],"alphaMode":"OPAQUE","name":"Material #1"},{"pbrMetallicRoughness":{"baseColorFactor":[1.0,1.0,1.0,1.0],"baseColorTexture":{"index":5,"texCoord":0},"metallicFactor":0.0,"roughnessFactor":0.9},"emissiveFactor":[0.0,0.0,0.0],"alphaMode":"BLEND","name":"Material #1xxhgh"}],"textures":[{"sampler":0,"source":0,"name":"Book_04.jpg"},{"sampler":0,"source":1,"name":"34444.jpg"},{"sampler":0,"source":2,"name":"Book_03.jpg"},{"sampler":0,"source":3,"name":"Book_01.jpg"},{"sampler":0,"source":4,"name":"Book_05.png"},{"sampler":0,"source":5,"name":"leather-025_2_r.png"}],"images":[{"uri":"Book_04.jpg"},{"uri":"34444.jpg"},{"uri":"Book_03.jpg"},{"uri":"Book_01.jpg"},{"uri":"Book_05.png"},{"uri":"leather-025_2_r.png"}],"samplers":[{"magFilter":9729,"minFilter":9987,"wrapS":10497,"wrapT":10497}]}