{"asset":{"version":"2.0","generator":"babylon.js glTF exporter for 3ds max 2015 v1.3.33"},"scene":0,"scenes":[{"nodes":[0,3],"extensions":{}}],"nodes":[{"children":[1,2],"translation":[0.0,0.0,0.0],"rotation":[-0.7071068,-4.214685E-08,4.21468442E-08,0.7071067],"scale":[0.09999999,0.09999999,0.104999982],"name":"Group001"},{"mesh":0,"translation":[0.371310145,87.68782,264.349854],"rotation":[-7.237131E-15,0.0,0.0,1.0],"scale":[0.981801748,0.99999994,0.9818017],"name":"Rectangle061"},{"mesh":1,"translation":[-0.293088019,-35.25272,266.472168],"rotation":[-6.209646E-07,-0.7071068,0.7071068,-6.2096467E-07],"scale":[0.9913866,0.9913865,0.9913866],"name":"386_Basket_L019"},{"translation":[0.0,0.0,0.0],"rotation":[0.0,0.0,0.0,1.0],"scale":[1.0,1.0,1.0],"name":"Default light"}],"meshes":[{"primitives":[{"attributes":{"POSITION":1,"NORMAL":2,"TEXCOORD_0":3},"indices":0,"mode":4,"material":0}],"name":"Rectangle061"},{"primitives":[{"attributes":{"POSITION":5,"NORMAL":6,"TEXCOORD_0":7},"indices":4,"mode":4,"material":0}],"name":"386_Basket_L019"}],"accessors":[{"bufferView":0,"componentType":5123,"count":3168,"type":"SCALAR","name":"accessorIndices"},{"bufferView":1,"componentType":5126,"count":3168,"max":[207.461487,1.04440308,273.301453],"min":[-208.217667,-0.972557068,-269.663],"type":"VEC3","name":"accessorPositions"},{"bufferView":1,"byteOffset":38016,"componentType":5126,"count":3168,"type":"VEC3","name":"accessorNormals"},{"bufferView":2,"componentType":5126,"count":3168,"type":"VEC2","name":"accessorUVs"},{"bufferView":0,"byteOffset":6336,"componentType":5123,"count":17376,"type":"SCALAR","name":"accessorIndices"},{"bufferView":1,"byteOffset":76032,"componentType":5126,"count":17376,"max":[195.611572,258.1142,53.9442444],"min":[-195.590927,-258.112518,-124.691765],"type":"VEC3","name":"accessorPositions"},{"bufferView":1,"byteOffset":284544,"componentType":5126,"count":17376,"type":"VEC3","name":"accessorNormals"},{"bufferView":2,"byteOffset":25344,"componentType":5126,"count":17376,"type":"VEC2","name":"accessorUVs"}],"bufferViews":[{"buffer":0,"byteLength":41088,"name":"bufferViewScalar"},{"buffer":0,"byteOffset":41088,"byteLength":493056,"byteStride":12,"name":"bufferViewFloatVec3"},{"buffer":0,"byteOffset":534144,"byteLength":164352,"byteStride":8,"name":"bufferViewFloatVec2"}],"buffers":[{"uri":"L9530WH_vert.bin","byteLength":698496}],"materials":[{"pbrMetallicRoughness":{"baseColorFactor":[1.0,1.0,1.0,1.0],"metallicFactor":0.0,"roughnessFactor":0.9},"emissiveFactor":[0.0,0.0,0.0],"alphaMode":"OPAQUE","name":"m_base0"}]}