{"asset":{"version":"2.0","generator":"babylon.js glTF exporter for 3ds max 2015 v1.3.33"},"scene":0,"scenes":[{"nodes":[0,1],"extensions":{}}],"nodes":[{"mesh":0,"translation":[0.0,0.0,0.0],"rotation":[-0.5,0.5,-0.5,0.5],"scale":[1.0,1.0,1.0],"name":"Object001"},{"translation":[0.0,0.0,0.0],"rotation":[0.0,0.0,0.0,1.0],"scale":[1.0,1.0,1.0],"name":"Default light"}],"meshes":[{"primitives":[{"attributes":{"POSITION":1,"NORMAL":2},"indices":0}],"name":"Object001"}],"accessors":[{"bufferView":0,"componentType":5123,"count":53376,"type":"SCALAR","name":"accessorIndices"},{"bufferView":1,"componentType":5126,"count":53376,"max":[8.589224E-06,60.79087,1.2627207],"min":[-2.323779,-60.79087,-1.2627207],"type":"VEC3","name":"accessorPositions"},{"bufferView":1,"byteOffset":640512,"componentType":5126,"count":53376,"type":"VEC3","name":"accessorNormals"}],"bufferViews":[{"buffer":0,"byteLength":106752,"name":"bufferViewScalar"},{"buffer":0,"byteOffset":106752,"byteLength":1281024,"byteStride":12,"name":"bufferViewFloatVec3"}],"buffers":[{"uri":"L9111WH.bin","byteLength":1387776}]}