{"asset":{"version":"2.0","generator":"babylon.js glTF exporter for 3ds max 2015 v1.3.33"},"scene":0,"scenes":[{"nodes":[0,1,2,3,4,5],"extensions":{}}],"nodes":[{"mesh":0,"translation":[0.0,0.0,0.0],"rotation":[-1.53133087E-07,-9.97480143E-08,0.7071068,0.7071068],"scale":[0.1000594,0.1000594,0.1000594],"name":" L99123WH  1202х306х14"},{"mesh":1,"translation":[-0.122467041,14.034174,-0.6222061],"rotation":[-0.50000006,-0.5000001,0.49999997,0.49999997],"scale":[0.350947827,0.630207658,0.385708],"name":"markerObj_tit2"},{"mesh":2,"translation":[32.36107,14.034174,-0.6222061],"rotation":[-0.50000006,-0.5000001,0.49999997,0.49999997],"scale":[0.350947827,0.630207658,0.385708],"name":"markerObj_tit2 (1)"},{"mesh":3,"translation":[-24.52285,14.034174,-0.6222061],"rotation":[-0.50000006,-0.5000001,0.49999997,0.49999997],"scale":[0.350947827,0.630207658,0.385708],"name":"markerObj_tit2 (2)"},{"mesh":4,"translation":[-48.2829781,14.034174,-0.6222061],"rotation":[-0.50000006,-0.5000001,0.49999997,0.49999997],"scale":[0.350947827,0.630207658,0.385708],"name":"markerObj_tit2 (3)"},{"translation":[0.0,0.0,0.0],"rotation":[0.0,0.0,0.0,1.0],"scale":[1.0,1.0,1.0],"name":"Default light"}],"meshes":[{"primitives":[{"attributes":{"POSITION":1,"NORMAL":2},"indices":0,"mode":4,"material":0}],"name":" L99123WH  1202х306х14"},{"primitives":[{"attributes":{"POSITION":4,"NORMAL":5,"TEXCOORD_0":6},"indices":3}],"name":"markerObj_tit2"},{"primitives":[{"attributes":{"POSITION":8,"NORMAL":9,"TEXCOORD_0":10},"indices":7}],"name":"markerObj_tit2"},{"primitives":[{"attributes":{"POSITION":12,"NORMAL":13,"TEXCOORD_0":14},"indices":11}],"name":"markerObj_tit2"},{"primitives":[{"attributes":{"POSITION":16,"NORMAL":17,"TEXCOORD_0":18},"indices":15}],"name":"markerObj_tit2"}],"accessors":[{"bufferView":0,"componentType":5123,"count":28512,"type":"SCALAR","name":"accessorIndices"},{"bufferView":1,"componentType":5126,"count":28512,"max":[306.000031,603.000061,7.000024],"min":[-1.936415E-05,-603.000061,-7.000002],"type":"VEC3","name":"accessorPositions"},{"bufferView":1,"byteOffset":342144,"componentType":5126,"count":28512,"type":"VEC3","name":"accessorNormals"},{"bufferView":0,"byteOffset":57024,"componentType":5123,"count":96,"type":"SCALAR","name":"accessorIndices"},{"bufferView":1,"byteOffset":684288,"componentType":5126,"count":96,"max":[3.73376846,4.22077942,3.409091],"min":[-3.73376465,0.0,-3.409091],"type":"VEC3","name":"accessorPositions"},{"bufferView":1,"byteOffset":685440,"componentType":5126,"count":96,"type":"VEC3","name":"accessorNormals"},{"bufferView":2,"componentType":5126,"count":96,"type":"VEC2","name":"accessorUVs"},{"bufferView":0,"byteOffset":57216,"componentType":5123,"count":96,"type":"SCALAR","name":"accessorIndices"},{"bufferView":1,"byteOffset":686592,"componentType":5126,"count":96,"max":[3.73376846,4.22077942,3.40908813],"min":[-3.73376465,0.0,-3.40909576],"type":"VEC3","name":"accessorPositions"},{"bufferView":1,"byteOffset":687744,"componentType":5126,"count":96,"type":"VEC3","name":"accessorNormals"},{"bufferView":2,"byteOffset":768,"componentType":5126,"count":96,"type":"VEC2","name":"accessorUVs"},{"bufferView":0,"byteOffset":57408,"componentType":5123,"count":96,"type":"SCALAR","name":"accessorIndices"},{"bufferView":1,"byteOffset":688896,"componentType":5126,"count":96,"max":[3.73376846,4.22078,3.40908813],"min":[-3.73376465,0.0,-3.409092],"type":"VEC3","name":"accessorPositions"},{"bufferView":1,"byteOffset":690048,"componentType":5126,"count":96,"type":"VEC3","name":"accessorNormals"},{"bufferView":2,"byteOffset":1536,"componentType":5126,"count":96,"type":"VEC2","name":"accessorUVs"},{"bufferView":0,"byteOffset":57600,"componentType":5123,"count":96,"type":"SCALAR","name":"accessorIndices"},{"bufferView":1,"byteOffset":691200,"componentType":5126,"count":96,"max":[3.73376846,4.22077942,3.40909576],"min":[-3.73376465,0.0,-3.40909576],"type":"VEC3","name":"accessorPositions"},{"bufferView":1,"byteOffset":692352,"componentType":5126,"count":96,"type":"VEC3","name":"accessorNormals"},{"bufferView":2,"byteOffset":2304,"componentType":5126,"count":96,"type":"VEC2","name":"accessorUVs"}],"bufferViews":[{"buffer":0,"byteLength":57792,"name":"bufferViewScalar"},{"buffer":0,"byteOffset":57792,"byteLength":693504,"byteStride":12,"name":"bufferViewFloatVec3"},{"buffer":0,"byteOffset":751296,"byteLength":3072,"byteStride":8,"name":"bufferViewFloatVec2"}],"buffers":[{"uri":"L99123WH_m.bin","byteLength":754368}],"materials":[{"pbrMetallicRoughness":{"baseColorFactor":[0.6125001,0.6125001,0.6125001,1.0],"metallicFactor":0.0,"roughnessFactor":0.9},"emissiveFactor":[0.0,0.0,0.0],"alphaMode":"OPAQUE","name":"m_base0"}]}