{"asset":{"version":"2.0","generator":"babylon.js glTF exporter for 3ds max 2015 v1.3.33"},"scene":0,"scenes":[{"nodes":[0,1,2,3],"extensions":{}}],"nodes":[{"mesh":0,"translation":[11.6610079,18.6046944,5.32],"rotation":[0.0,-0.7071068,0.0,0.7071067],"scale":[0.350947827,0.630207658,0.385708],"name":"markerObj_tit9"},{"mesh":1,"translation":[0.0,0.0,0.0],"rotation":[1.10986235E-07,-1.10986235E-07,0.7071068,0.7071068],"scale":[0.099999994,0.09809999,0.099999994],"name":"Корзинка_900 (1)002"},{"mesh":2,"translation":[-13.480196,18.6046944,5.32],"rotation":[0.0,-0.7071068,0.0,0.7071067],"scale":[0.350947827,0.630207658,0.385708],"name":"markerObj_tit9 (1)"},{"translation":[0.0,0.0,0.0],"rotation":[0.0,0.0,0.0,1.0],"scale":[1.0,1.0,1.0],"name":"Default light"}],"meshes":[{"primitives":[{"attributes":{"POSITION":1,"NORMAL":2,"TEXCOORD_0":3},"indices":0}],"name":"markerObj_tit9"},{"primitives":[{"attributes":{"POSITION":5,"NORMAL":6,"TEXCOORD_0":7},"indices":4,"mode":4,"material":0}],"name":"Корзинка_900 (1)002"},{"primitives":[{"attributes":{"POSITION":9,"NORMAL":10,"TEXCOORD_0":11},"indices":8}],"name":"markerObj_tit9"}],"accessors":[{"bufferView":0,"componentType":5123,"count":96,"type":"SCALAR","name":"accessorIndices"},{"bufferView":1,"componentType":5126,"count":96,"max":[3.7337656,4.22077751,3.409092],"min":[-3.73376656,0.0,-3.40909],"type":"VEC3","name":"accessorPositions"},{"bufferView":1,"byteOffset":1152,"componentType":5126,"count":96,"type":"VEC3","name":"accessorNormals"},{"bufferView":2,"componentType":5126,"count":96,"type":"VEC2","name":"accessorUVs"},{"bufferView":0,"byteOffset":192,"componentType":5123,"count":43968,"type":"SCALAR","name":"accessorIndices"},{"bufferView":1,"byteOffset":2304,"componentType":5126,"count":43968,"max":[405.989227,308.2001,58.9477768],"min":[0.0286887549,-308.2001,-58.9477577],"type":"VEC3","name":"accessorPositions"},{"bufferView":1,"byteOffset":529920,"componentType":5126,"count":43968,"type":"VEC3","name":"accessorNormals"},{"bufferView":2,"byteOffset":768,"componentType":5126,"count":43968,"type":"VEC2","name":"accessorUVs"},{"bufferView":0,"byteOffset":88128,"componentType":5123,"count":96,"type":"SCALAR","name":"accessorIndices"},{"bufferView":1,"byteOffset":1057536,"componentType":5126,"count":96,"max":[3.7337656,4.22077751,3.409092],"min":[-3.73376656,0.0,-3.40909],"type":"VEC3","name":"accessorPositions"},{"bufferView":1,"byteOffset":1058688,"componentType":5126,"count":96,"type":"VEC3","name":"accessorNormals"},{"bufferView":2,"byteOffset":352512,"componentType":5126,"count":96,"type":"VEC2","name":"accessorUVs"}],"bufferViews":[{"buffer":0,"byteLength":88320,"name":"bufferViewScalar"},{"buffer":0,"byteOffset":88320,"byteLength":1059840,"byteStride":12,"name":"bufferViewFloatVec3"},{"buffer":0,"byteOffset":1148160,"byteLength":353280,"byteStride":8,"name":"bufferViewFloatVec2"}],"buffers":[{"uri":"L9549WH_m.bin","byteLength":1501440}],"materials":[{"pbrMetallicRoughness":{"baseColorFactor":[0.6125001,0.6125001,0.6125001,1.0],"metallicFactor":0.0,"roughnessFactor":0.9},"emissiveFactor":[0.0,0.0,0.0],"alphaMode":"OPAQUE","name":"m_base0"}]}