{"asset":{"version":"2.0","generator":"babylon.js glTF exporter for 3ds max 2015 v1.3.33"},"scene":0,"scenes":[{"nodes":[0,7],"extensions":{}}],"nodes":[{"children":[1,4],"translation":[0.187535286,3.89287043,0.08129597],"rotation":[0.0,-1.0,0.0,-7.54979E-08],"scale":[1.0,1.0,1.0],"name":"Group005"},{"children":[2,3],"translation":[-5.162059,4.76837158E-07,-0.0986535549],"rotation":[0.0,-4.76837158E-07,0.0,1.0],"scale":[0.188983381,0.3206336,0.3206336],"name":"Group002"},{"mesh":0,"translation":[0.179357529,-12.141181,0.21537593],"rotation":[0.0,-1.42108547E-14,0.0,1.0],"scale":[1.0,1.0,1.0],"name":"Box002"},{"mesh":1,"translation":[-48.30298,-12.141181,0.21537593],"rotation":[0.0,0.0,0.0,1.0],"scale":[0.997000039,0.997000039,0.997000039],"name":"Object002"},{"children":[5,6],"translation":[4.307571,4.76837158E-07,2.5331974E-07],"rotation":[0.0,-0.04361986,0.0,0.999048233],"scale":[0.188983381,0.3206336,0.3206336],"name":"Group004"},{"mesh":2,"translation":[0.179357529,-12.1411791,0.2153759],"rotation":[0.0,0.0,0.0,1.0],"scale":[0.99999994,0.9999999,0.99999994],"name":"Box003"},{"mesh":3,"translation":[-48.30297,-12.1411791,0.2153759],"rotation":[0.0,0.0,0.0,1.0],"scale":[0.997,0.9969999,0.997],"name":"Object003"},{"translation":[0.0,0.0,0.0],"rotation":[0.0,0.0,0.0,1.0],"scale":[1.0,1.0,1.0],"name":"Default light"}],"meshes":[{"primitives":[{"attributes":{"POSITION":1,"NORMAL":2,"TEXCOORD_0":3},"indices":0,"mode":4,"material":0}],"name":"Box002"},{"primitives":[{"attributes":{"POSITION":5,"NORMAL":6,"TEXCOORD_0":7},"indices":4,"mode":4,"material":0}],"name":"Object002"},{"primitives":[{"attributes":{"POSITION":9,"NORMAL":10,"TEXCOORD_0":11},"indices":8,"mode":4,"material":0}],"name":"Box003"},{"primitives":[{"attributes":{"POSITION":13,"NORMAL":14,"TEXCOORD_0":15},"indices":12,"mode":4,"material":0}],"name":"Object003"}],"accessors":[{"bufferView":0,"componentType":5123,"count":768,"type":"SCALAR","name":"accessorIndices"},{"bufferView":1,"componentType":5126,"count":768,"max":[21.35793,24.4285946,30.9163513],"min":[-21.7166481,-0.146235,-31.3471],"type":"VEC3","name":"accessorPositions"},{"bufferView":1,"byteOffset":9216,"componentType":5126,"count":768,"type":"VEC3","name":"accessorNormals"},{"bufferView":2,"componentType":5126,"count":768,"type":"VEC2","name":"accessorUVs"},{"bufferView":0,"byteOffset":1536,"componentType":5123,"count":384,"type":"SCALAR","name":"accessorIndices"},{"bufferView":1,"byteOffset":18432,"componentType":5126,"count":384,"max":[69.24919,24.18075,30.4315338],"min":[27.8134956,-0.146234989,-30.6060143],"type":"VEC3","name":"accessorPositions"},{"bufferView":1,"byteOffset":23040,"componentType":5126,"count":384,"type":"VEC3","name":"accessorNormals"},{"bufferView":2,"byteOffset":6144,"componentType":5126,"count":384,"type":"VEC2","name":"accessorUVs"},{"bufferView":0,"byteOffset":2304,"componentType":5123,"count":768,"type":"SCALAR","name":"accessorIndices"},{"bufferView":1,"byteOffset":27648,"componentType":5126,"count":768,"max":[21.3579311,24.42859,30.9163437],"min":[-21.7166424,-0.146234974,-31.3470974],"type":"VEC3","name":"accessorPositions"},{"bufferView":1,"byteOffset":36864,"componentType":5126,"count":768,"type":"VEC3","name":"accessorNormals"},{"bufferView":2,"byteOffset":9216,"componentType":5126,"count":768,"type":"VEC2","name":"accessorUVs"},{"bufferView":0,"byteOffset":3840,"componentType":5123,"count":384,"type":"SCALAR","name":"accessorIndices"},{"bufferView":1,"byteOffset":46080,"componentType":5126,"count":384,"max":[69.24919,24.180748,30.43153],"min":[27.8135014,-0.146234974,-30.6060123],"type":"VEC3","name":"accessorPositions"},{"bufferView":1,"byteOffset":50688,"componentType":5126,"count":384,"type":"VEC3","name":"accessorNormals"},{"bufferView":2,"byteOffset":15360,"componentType":5126,"count":384,"type":"VEC2","name":"accessorUVs"}],"bufferViews":[{"buffer":0,"byteLength":4608,"name":"bufferViewScalar"},{"buffer":0,"byteOffset":4608,"byteLength":55296,"byteStride":12,"name":"bufferViewFloatVec3"},{"buffer":0,"byteOffset":59904,"byteLength":18432,"byteStride":8,"name":"bufferViewFloatVec2"}],"buffers":[{"uri":"box_3.bin","byteLength":78336}],"materials":[{"pbrMetallicRoughness":{"baseColorFactor":[0.6125001,0.6125001,0.6125001,1.0],"metallicFactor":0.0,"roughnessFactor":0.9},"emissiveFactor":[0.0,0.0,0.0],"alphaMode":"OPAQUE","name":"m_10"}]}