{"asset":{"version":"2.0","generator":"babylon.js glTF exporter for 3ds max 2015 v1.3.33"},"scene":0,"scenes":[{"nodes":[0,3],"extensions":{}}],"nodes":[{"children":[1,2],"translation":[0.0,0.0,0.0],"rotation":[0.0,0.0,0.0,1.0],"scale":[0.714041352,0.714041352,0.714041352],"name":"Group001"},{"mesh":0,"translation":[0.0,25.8045578,-9.536743E-07],"rotation":[0.0,0.0,0.0,1.0],"scale":[0.68162775,1.04207861,0.68162775],"name":"Box003"},{"mesh":1,"translation":[0.0,8.860759,-9.536743E-07],"rotation":[0.0,0.0,0.0,1.0],"scale":[0.734385669,1.12273562,0.734385669],"name":"Box002"},{"translation":[0.0,0.0,0.0],"rotation":[0.0,0.0,0.0,1.0],"scale":[1.0,1.0,1.0],"name":"Default light"}],"meshes":[{"primitives":[{"attributes":{"POSITION":1,"NORMAL":2,"TEXCOORD_0":3},"indices":0,"mode":4,"material":0}],"name":"Box003"},{"primitives":[{"attributes":{"POSITION":5,"NORMAL":6,"TEXCOORD_0":7},"indices":4,"mode":4,"material":0}],"name":"Box002"}],"accessors":[{"bufferView":0,"componentType":5123,"count":2400,"type":"SCALAR","name":"accessorIndices"},{"bufferView":1,"componentType":5126,"count":2400,"max":[18.52575,7.89212036,27.9598141],"min":[-18.52575,-7.89211655,-27.95981],"type":"VEC3","name":"accessorPositions"},{"bufferView":1,"byteOffset":28800,"componentType":5126,"count":2400,"type":"VEC3","name":"accessorNormals"},{"bufferView":2,"componentType":5126,"count":2400,"type":"VEC2","name":"accessorUVs"},{"bufferView":0,"byteOffset":4800,"componentType":5123,"count":2400,"type":"SCALAR","name":"accessorIndices"},{"bufferView":1,"byteOffset":57600,"componentType":5126,"count":2400,"max":[18.5257473,7.892117,27.9598141],"min":[-18.52575,-7.89211559,-27.9598122],"type":"VEC3","name":"accessorPositions"},{"bufferView":1,"byteOffset":86400,"componentType":5126,"count":2400,"type":"VEC3","name":"accessorNormals"},{"bufferView":2,"byteOffset":19200,"componentType":5126,"count":2400,"type":"VEC2","name":"accessorUVs"}],"bufferViews":[{"buffer":0,"byteLength":9600,"name":"bufferViewScalar"},{"buffer":0,"byteOffset":9600,"byteLength":115200,"byteStride":12,"name":"bufferViewFloatVec3"},{"buffer":0,"byteOffset":124800,"byteLength":38400,"byteStride":8,"name":"bufferViewFloatVec2"}],"buffers":[{"uri":"box_5.bin","byteLength":163200}],"materials":[{"pbrMetallicRoughness":{"baseColorFactor":[0.6125001,0.6125001,0.6125001,1.0],"metallicFactor":0.0,"roughnessFactor":0.9},"emissiveFactor":[0.0,0.0,0.0],"alphaMode":"OPAQUE","name":"m_10"}]}