{"asset":{"version":"2.0","generator":"babylon.js glTF exporter for 3ds max 2015 v1.3.33"},"scene":0,"scenes":[{"nodes":[0,9],"extensions":{}}],"nodes":[{"children":[1,2,3,4,5,6],"translation":[0.0,0.0,0.0],"rotation":[0.0,0.0,0.0,1.0],"scale":[1.0,0.729800344,1.0],"name":"Group003"},{"mesh":0,"translation":[3.450223,3.6407814,-0.137846947],"rotation":[0.0,-0.7071072,0.0,0.7071065],"scale":[0.527324438,0.299356371,0.3969923],"name":"Object008"},{"mesh":1,"translation":[-0.0334882736,3.6407814,-0.480647564],"rotation":[0.0,-1.0,0.0,-5.52335052E-07],"scale":[0.527324438,0.299356371,0.3969923],"name":"Object004"},{"mesh":2,"translation":[-3.42306161,3.6407814,-0.137846947],"rotation":[0.0,-0.7071072,0.0,0.7071065],"scale":[0.527324438,0.299356371,0.3969923],"name":"Object007"},{"mesh":3,"translation":[-0.0334882736,3.6407814,6.206258],"rotation":[0.0,-1.0,0.0,-5.52335052E-07],"scale":[0.527324438,0.299356371,0.3969923],"name":"Object003"},{"mesh":4,"translation":[-0.0334882736,3.6407814,-6.30006838],"rotation":[0.0,-1.0,0.0,-5.52335052E-07],"scale":[0.527324438,0.299356371,0.3969923],"name":"Object005"},{"children":[7,8],"translation":[2.861023E-06,3.68925142,0.201412648],"rotation":[0.0,-1.0,0.0,-5.52335052E-07],"scale":[0.5289112,0.300257117,0.398186833],"name":"Group002"},{"mesh":5,"translation":[0.179356024,-12.1411791,0.7212003],"rotation":[0.0,-2.842171E-14,0.0,1.0],"scale":[1.0,1.0,1.0],"name":"Box002"},{"mesh":6,"translation":[-48.30298,-12.1411791,0.2153759],"rotation":[0.0,-8.55217E-14,0.0,1.0],"scale":[0.997,0.997000039,0.9970001],"name":"Object002"},{"translation":[0.0,0.0,0.0],"rotation":[0.0,0.0,0.0,1.0],"scale":[1.0,1.0,1.0],"name":"Default light"}],"meshes":[{"primitives":[{"attributes":{"POSITION":1,"NORMAL":2,"TEXCOORD_0":3},"indices":0,"mode":4,"material":0}],"name":"Object008"},{"primitives":[{"attributes":{"POSITION":5,"NORMAL":6,"TEXCOORD_0":7},"indices":4,"mode":4,"material":0}],"name":"Object004"},{"primitives":[{"attributes":{"POSITION":9,"NORMAL":10,"TEXCOORD_0":11},"indices":8,"mode":4,"material":0}],"name":"Object007"},{"primitives":[{"attributes":{"POSITION":13,"NORMAL":14,"TEXCOORD_0":15},"indices":12,"mode":4,"material":0}],"name":"Object003"},{"primitives":[{"attributes":{"POSITION":17,"NORMAL":18,"TEXCOORD_0":19},"indices":16,"mode":4,"material":0}],"name":"Object005"},{"primitives":[{"attributes":{"POSITION":21,"NORMAL":22,"TEXCOORD_0":23},"indices":20,"mode":4,"material":0}],"name":"Box002"},{"primitives":[{"attributes":{"POSITION":25,"NORMAL":26,"TEXCOORD_0":27},"indices":24,"mode":4,"material":0}],"name":"Object002"}],"accessors":[{"bufferView":0,"componentType":5123,"count":96,"type":"SCALAR","name":"accessorIndices"},{"bufferView":1,"componentType":5126,"count":96,"max":[23.0085945,12.1620331,0.5280113],"min":[-22.5961266,-12.1620321,-0.5280056],"type":"VEC3","name":"accessorPositions"},{"bufferView":1,"byteOffset":1152,"componentType":5126,"count":96,"type":"VEC3","name":"accessorNormals"},{"bufferView":2,"componentType":5126,"count":96,"type":"VEC2","name":"accessorUVs"},{"bufferView":0,"byteOffset":192,"componentType":5123,"count":96,"type":"SCALAR","name":"accessorIndices"},{"bufferView":1,"byteOffset":2304,"componentType":5126,"count":96,"max":[20.5626965,12.1620331,0.5280092],"min":[-20.66071,-12.1620321,-0.528005958],"type":"VEC3","name":"accessorPositions"},{"bufferView":1,"byteOffset":3456,"componentType":5126,"count":96,"type":"VEC3","name":"accessorNormals"},{"bufferView":2,"byteOffset":768,"componentType":5126,"count":96,"type":"VEC2","name":"accessorUVs"},{"bufferView":0,"byteOffset":384,"componentType":5123,"count":96,"type":"SCALAR","name":"accessorIndices"},{"bufferView":1,"byteOffset":4608,"componentType":5126,"count":96,"max":[23.0085945,12.1620331,0.5280113],"min":[-22.5961266,-12.1620321,-0.528004646],"type":"VEC3","name":"accessorPositions"},{"bufferView":1,"byteOffset":5760,"componentType":5126,"count":96,"type":"VEC3","name":"accessorNormals"},{"bufferView":2,"byteOffset":1536,"componentType":5126,"count":96,"type":"VEC2","name":"accessorUVs"},{"bufferView":0,"byteOffset":576,"componentType":5123,"count":96,"type":"SCALAR","name":"accessorIndices"},{"bufferView":1,"byteOffset":6912,"componentType":5126,"count":96,"max":[20.5626965,12.1620331,0.528008461],"min":[-20.5627041,-12.1620321,-0.5280056],"type":"VEC3","name":"accessorPositions"},{"bufferView":1,"byteOffset":8064,"componentType":5126,"count":96,"type":"VEC3","name":"accessorNormals"},{"bufferView":2,"byteOffset":2304,"componentType":5126,"count":96,"type":"VEC2","name":"accessorUVs"},{"bufferView":0,"byteOffset":768,"componentType":5123,"count":96,"type":"SCALAR","name":"accessorIndices"},{"bufferView":1,"byteOffset":9216,"componentType":5126,"count":96,"max":[20.5626984,12.1620331,0.5280094],"min":[-20.5627022,-12.1620321,-0.528006554],"type":"VEC3","name":"accessorPositions"},{"bufferView":1,"byteOffset":10368,"componentType":5126,"count":96,"type":"VEC3","name":"accessorNormals"},{"bufferView":2,"byteOffset":3072,"componentType":5126,"count":96,"type":"VEC2","name":"accessorUVs"},{"bufferView":0,"byteOffset":960,"componentType":5123,"count":768,"type":"SCALAR","name":"accessorIndices"},{"bufferView":1,"byteOffset":11520,"componentType":5126,"count":768,"max":[21.3579311,24.4285965,30.9163475],"min":[-21.7166443,-0.146234989,-31.3471],"type":"VEC3","name":"accessorPositions"},{"bufferView":1,"byteOffset":20736,"componentType":5126,"count":768,"type":"VEC3","name":"accessorNormals"},{"bufferView":2,"byteOffset":3840,"componentType":5126,"count":768,"type":"VEC2","name":"accessorUVs"},{"bufferView":0,"byteOffset":2496,"componentType":5123,"count":384,"type":"SCALAR","name":"accessorIndices"},{"bufferView":1,"byteOffset":29952,"componentType":5126,"count":384,"max":[69.24919,24.1807461,30.4315319],"min":[27.8135,-0.146234974,-30.1064968],"type":"VEC3","name":"accessorPositions"},{"bufferView":1,"byteOffset":34560,"componentType":5126,"count":384,"type":"VEC3","name":"accessorNormals"},{"bufferView":2,"byteOffset":9984,"componentType":5126,"count":384,"type":"VEC2","name":"accessorUVs"}],"bufferViews":[{"buffer":0,"byteLength":3264,"name":"bufferViewScalar"},{"buffer":0,"byteOffset":3264,"byteLength":39168,"byteStride":12,"name":"bufferViewFloatVec3"},{"buffer":0,"byteOffset":42432,"byteLength":13056,"byteStride":8,"name":"bufferViewFloatVec2"}],"buffers":[{"uri":"box_4.bin","byteLength":55488}],"materials":[{"pbrMetallicRoughness":{"baseColorFactor":[0.6125001,0.6125001,0.6125001,1.0],"metallicFactor":0.0,"roughnessFactor":0.9},"emissiveFactor":[0.0,0.0,0.0],"alphaMode":"OPAQUE","name":"m_10"}]}