{"asset":{"version":"2.0","generator":"babylon.js glTF exporter for 3ds max 2015 v1.3.33"},"scene":0,"scenes":[{"nodes":[0,1],"extensions":{}}],"nodes":[{"mesh":0,"translation":[0.0,0.0,0.0],"rotation":[0.0,-0.710440636,0.0,0.7037571],"scale":[0.0999980643,0.099999994,0.0717246458],"name":"e001"},{"translation":[0.0,0.0,0.0],"rotation":[0.0,0.0,0.0,1.0],"scale":[1.0,1.0,1.0],"name":"Default light"}],"meshes":[{"primitives":[{"attributes":{"POSITION":1,"NORMAL":2,"TEXCOORD_0":3},"indices":0,"mode":4,"material":0}],"name":"e001"}],"accessors":[{"bufferView":0,"componentType":5123,"count":25260,"type":"SCALAR","name":"accessorIndices"},{"bufferView":1,"componentType":5126,"count":25260,"max":[155.658371,31.1396828,62.62954],"min":[-165.552017,-616.6875,-74.6547241],"type":"VEC3","name":"accessorPositions"},{"bufferView":1,"byteOffset":303120,"componentType":5126,"count":25260,"type":"VEC3","name":"accessorNormals"},{"bufferView":2,"componentType":5126,"count":25260,"type":"VEC2","name":"accessorUVs"}],"bufferViews":[{"buffer":0,"byteLength":50520,"name":"bufferViewScalar"},{"buffer":0,"byteOffset":50520,"byteLength":606240,"byteStride":12,"name":"bufferViewFloatVec3"},{"buffer":0,"byteOffset":656760,"byteLength":202080,"byteStride":8,"name":"bufferViewFloatVec2"}],"buffers":[{"uri":"shtanci_1.bin","byteLength":858840}],"materials":[{"pbrMetallicRoughness":{"baseColorFactor":[0.6125001,0.6125001,0.6125001,1.0],"metallicFactor":0.0,"roughnessFactor":0.9},"emissiveFactor":[0.0,0.0,0.0],"alphaMode":"OPAQUE","name":"m_33"}]}