{"asset":{"version":"2.0","generator":"babylon.js glTF exporter for 3ds max 2015 v1.3.33"},"scene":0,"scenes":[{"nodes":[0,1],"extensions":{}}],"nodes":[{"mesh":0,"translation":[0.0,0.0,0.0],"rotation":[0.562422156,-0.303603142,-0.2329629,0.732962966],"scale":[0.231733069,0.231733069,0.231732965],"name":"Tube001"},{"translation":[0.0,0.0,0.0],"rotation":[0.0,0.0,0.0,1.0],"scale":[1.0,1.0,1.0],"name":"Default light"}],"meshes":[{"primitives":[{"attributes":{"POSITION":1,"NORMAL":2,"TEXCOORD_0":3},"indices":0,"mode":4,"material":0}],"name":"Tube001"}],"accessors":[{"bufferView":0,"componentType":5123,"count":1176,"type":"SCALAR","name":"accessorIndices"},{"bufferView":1,"componentType":5126,"count":1176,"max":[73.8061142,-22.25771,71.3764648],"min":[-169.3849,-43.80403,-167.88588],"type":"VEC3","name":"accessorPositions"},{"bufferView":1,"byteOffset":14112,"componentType":5126,"count":1176,"type":"VEC3","name":"accessorNormals"},{"bufferView":2,"componentType":5126,"count":1176,"type":"VEC2","name":"accessorUVs"}],"bufferViews":[{"buffer":0,"byteLength":2352,"name":"bufferViewScalar"},{"buffer":0,"byteOffset":2352,"byteLength":28224,"byteStride":12,"name":"bufferViewFloatVec3"},{"buffer":0,"byteOffset":30576,"byteLength":9408,"byteStride":8,"name":"bufferViewFloatVec2"}],"buffers":[{"uri":"pict.bin","byteLength":39984}],"materials":[{"pbrMetallicRoughness":{"baseColorFactor":[0.6125001,0.6125001,0.6125001,1.0],"metallicFactor":0.0,"roughnessFactor":0.9},"emissiveFactor":[0.0,0.0,0.0],"alphaMode":"OPAQUE","name":"m_10"}]}