{"asset":{"version":"2.0","generator":"babylon.js glTF exporter for 3ds max 2015 v1.3.33"},"scene":0,"scenes":[{"nodes":[0,1],"extensions":{}}],"nodes":[{"mesh":0,"translation":[0.0,0.0,0.0],"rotation":[0.0,0.0,0.0,1.0],"scale":[1.0,1.0,1.0],"name":"Plane001"},{"translation":[0.0,0.0,0.0],"rotation":[0.0,0.0,0.0,1.0],"scale":[1.0,1.0,1.0],"name":"Default light"}],"meshes":[{"primitives":[{"attributes":{"POSITION":1,"NORMAL":2,"TEXCOORD_0":3},"indices":0,"mode":4,"material":0}],"name":"Plane001"}],"accessors":[{"bufferView":0,"componentType":5123,"count":32484,"type":"SCALAR","name":"accessorIndices"},{"bufferView":1,"componentType":5126,"count":32484,"max":[26.0184689,19.6153564,7.59840631],"min":[-26.0184746,-0.0689535141,-7.598405],"type":"VEC3","name":"accessorPositions"},{"bufferView":1,"byteOffset":389808,"componentType":5126,"count":32484,"type":"VEC3","name":"accessorNormals"},{"bufferView":2,"componentType":5126,"count":32484,"type":"VEC2","name":"accessorUVs"}],"bufferViews":[{"buffer":0,"byteLength":64968,"name":"bufferViewScalar"},{"buffer":0,"byteOffset":64968,"byteLength":779616,"byteStride":12,"name":"bufferViewFloatVec3"},{"buffer":0,"byteOffset":844584,"byteLength":259872,"byteStride":8,"name":"bufferViewFloatVec2"}],"buffers":[{"uri":"knigi.bin","byteLength":1104456}],"materials":[{"pbrMetallicRoughness":{"baseColorFactor":[0.6125001,0.6125001,0.6125001,1.0],"metallicFactor":0.0,"roughnessFactor":0.9},"emissiveFactor":[0.0,0.0,0.0],"alphaMode":"OPAQUE","name":"m_10"}]}