{"asset":{"version":"2.0","generator":"babylon.js glTF exporter for 3ds max 2015 v1.3.33"},"scene":0,"scenes":[{"nodes":[0,1],"extensions":{}}],"nodes":[{"mesh":0,"translation":[0.0,0.0,0.0],"rotation":[-0.98425746,1.334356E-08,-7.430937E-08,-0.17674081],"scale":[0.03380668,-0.0338066779,0.0338066779],"name":"emily001"},{"translation":[0.0,0.0,0.0],"rotation":[0.0,0.0,0.0,1.0],"scale":[1.0,1.0,1.0],"name":"Default light"}],"meshes":[{"primitives":[{"attributes":{"POSITION":1,"NORMAL":2,"COLOR_0":3,"TEXCOORD_0":4},"indices":0,"mode":4,"material":0}],"name":"emily001"}],"accessors":[{"bufferView":0,"componentType":5123,"count":5832,"type":"SCALAR","name":"accessorIndices"},{"bufferView":1,"componentType":5126,"count":5832,"max":[257.8484,230.708923,-6.654581],"min":[-257.848358,-44.8419571,-765.8423],"type":"VEC3","name":"accessorPositions"},{"bufferView":1,"byteOffset":69984,"componentType":5126,"count":5832,"type":"VEC3","name":"accessorNormals"},{"bufferView":2,"componentType":5126,"count":5832,"type":"VEC4","name":"accessorColors"},{"bufferView":3,"componentType":5126,"count":5832,"type":"VEC2","name":"accessorUVs"}],"bufferViews":[{"buffer":0,"byteLength":11664,"name":"bufferViewScalar"},{"buffer":0,"byteOffset":11664,"byteLength":139968,"byteStride":12,"name":"bufferViewFloatVec3"},{"buffer":0,"byteOffset":151632,"byteLength":93312,"byteStride":16,"name":"bufferViewFloatVec4"},{"buffer":0,"byteOffset":244944,"byteLength":46656,"byteStride":8,"name":"bufferViewFloatVec2"}],"buffers":[{"uri":"bot_1_3.bin","byteLength":291600}],"materials":[{"pbrMetallicRoughness":{"baseColorFactor":[0.6125001,0.6125001,0.6125001,1.0],"metallicFactor":0.0,"roughnessFactor":0.9},"emissiveFactor":[0.0,0.0,0.0],"alphaMode":"OPAQUE","name":"m_10"}]}