{"asset":{"version":"2.0","generator":"babylon.js glTF exporter for 3ds max 2015 v1.3.33"},"scene":0,"scenes":[{"nodes":[0,5],"extensions":{}}],"nodes":[{"children":[1,2],"translation":[-0.03088355,0.0,0.4014074],"rotation":[0.0,-0.382683456,0.0,0.923879564],"scale":[1.0,1.0,1.0],"name":"Group011"},{"mesh":0,"translation":[0.349108756,31.5986862,-1.937151E-06],"rotation":[-0.7071068,0.0,0.0,0.7071067],"scale":[1.75907278,1.7920537,1.75907266],"name":"WraithMesh013"},{"children":[3,4],"translation":[-1.01162732,60.54837,0.2609367],"rotation":[0.0,0.0,0.0,1.0],"scale":[1.0,1.0,1.0],"name":"Group010"},{"mesh":1,"translation":[5.96046448E-08,-0.0819778442,-8.34465E-07],"rotation":[-0.499999881,-0.5000001,-0.49999997,0.50000006],"scale":[0.099999994,0.099999994,0.099999994],"name":"Object015"},{"mesh":2,"translation":[5.96046448E-08,0.0819778442,-8.34465E-07],"rotation":[-0.499999881,-0.5000001,-0.49999997,0.50000006],"scale":[0.099999994,0.099999994,0.099999994],"name":"Object016"},{"translation":[0.0,0.0,0.0],"rotation":[0.0,0.0,0.0,1.0],"scale":[1.0,1.0,1.0],"name":"Default light"}],"meshes":[{"primitives":[{"attributes":{"POSITION":1,"NORMAL":2,"COLOR_0":3,"TEXCOORD_0":4},"indices":0,"mode":4,"material":0}],"name":"WraithMesh013"},{"primitives":[{"attributes":{"POSITION":6,"NORMAL":7,"TEXCOORD_0":8},"indices":5,"mode":4,"material":1}],"name":"Object015"},{"primitives":[{"attributes":{"POSITION":10,"NORMAL":11,"TEXCOORD_0":12},"indices":9,"mode":4,"material":2}],"name":"Object016"}],"accessors":[{"bufferView":0,"componentType":5123,"count":29424,"type":"SCALAR","name":"accessorIndices"},{"bufferView":1,"componentType":5126,"count":29424,"max":[3.34587145,14.8733072,16.40459],"min":[-3.742785,-14.8733082,-18.1136684],"type":"VEC3","name":"accessorPositions"},{"bufferView":1,"byteOffset":353088,"componentType":5126,"count":29424,"type":"VEC3","name":"accessorNormals"},{"bufferView":2,"componentType":5126,"count":29424,"type":"VEC4","name":"accessorColors"},{"bufferView":3,"componentType":5126,"count":29424,"type":"VEC2","name":"accessorUVs"},{"bufferView":0,"byteOffset":58848,"componentType":5123,"count":1260,"type":"SCALAR","name":"accessorIndices"},{"bufferView":1,"byteOffset":706176,"componentType":5126,"count":1260,"max":[189.598251,8.863313,18.3955078],"min":[-189.598282,-8.863315,-94.30301],"type":"VEC3","name":"accessorPositions"},{"bufferView":1,"byteOffset":721296,"componentType":5126,"count":1260,"type":"VEC3","name":"accessorNormals"},{"bufferView":3,"byteOffset":235392,"componentType":5126,"count":1260,"type":"VEC2","name":"accessorUVs"},{"bufferView":0,"byteOffset":61368,"componentType":5123,"count":1026,"type":"SCALAR","name":"accessorIndices"},{"bufferView":1,"byteOffset":736416,"componentType":5126,"count":1026,"max":[32.83781,7.040488,94.30298],"min":[-32.1516571,3.65870953,12.7817993],"type":"VEC3","name":"accessorPositions"},{"bufferView":1,"byteOffset":748728,"componentType":5126,"count":1026,"type":"VEC3","name":"accessorNormals"},{"bufferView":3,"byteOffset":245472,"componentType":5126,"count":1026,"type":"VEC2","name":"accessorUVs"}],"bufferViews":[{"buffer":0,"byteLength":63420,"name":"bufferViewScalar"},{"buffer":0,"byteOffset":63420,"byteLength":761040,"byteStride":12,"name":"bufferViewFloatVec3"},{"buffer":0,"byteOffset":824460,"byteLength":470784,"byteStride":16,"name":"bufferViewFloatVec4"},{"buffer":0,"byteOffset":1295244,"byteLength":253680,"byteStride":8,"name":"bufferViewFloatVec2"}],"buffers":[{"uri":"TS_6.bin","byteLength":1548924}],"materials":[{"pbrMetallicRoughness":{"baseColorFactor":[0.7148694,0.612745166,0.8700982,1.0],"metallicFactor":0.0,"roughnessFactor":0.9},"emissiveFactor":[0.0,0.0,0.0],"alphaMode":"OPAQUE","name":"m_10"},{"pbrMetallicRoughness":{"baseColorFactor":[0.06535949,0.06535949,0.06535949,1.0],"metallicFactor":0.0,"roughnessFactor":0.9},"emissiveFactor":[0.0,0.0,0.0],"alphaMode":"OPAQUE","name":"m_31"},{"pbrMetallicRoughness":{"baseColorFactor":[0.212418333,0.416666746,0.6740197,1.0],"metallicFactor":0.0,"roughnessFactor":0.9},"emissiveFactor":[0.0,0.0,0.0],"alphaMode":"OPAQUE","name":"m_32"}]}