{"asset":{"version":"2.0","generator":"babylon.js glTF exporter for 3ds max 2015 v1.3.33"},"scene":0,"scenes":[{"nodes":[0,1],"extensions":{}}],"nodes":[{"mesh":0,"translation":[0.0,0.0,0.0],"rotation":[0.0,0.0,0.0,1.0],"scale":[1.0,0.9610005,1.0],"name":"Object001"},{"translation":[0.0,0.0,0.0],"rotation":[0.0,0.0,0.0,1.0],"scale":[1.0,1.0,1.0],"name":"Default light"}],"meshes":[{"primitives":[{"attributes":{"POSITION":1,"NORMAL":2,"TEXCOORD_0":3},"indices":0,"mode":4,"material":0}],"name":"Object001"}],"accessors":[{"bufferView":0,"componentType":5123,"count":11790,"type":"SCALAR","name":"accessorIndices"},{"bufferView":1,"componentType":5126,"count":11790,"max":[29.4000015,42.4,9.015743],"min":[-29.3999977,0.0,-9.015743],"type":"VEC3","name":"accessorPositions"},{"bufferView":1,"byteOffset":141480,"componentType":5126,"count":11790,"type":"VEC3","name":"accessorNormals"},{"bufferView":2,"componentType":5126,"count":11790,"type":"VEC2","name":"accessorUVs"}],"bufferViews":[{"buffer":0,"byteLength":23580,"name":"bufferViewScalar"},{"buffer":0,"byteOffset":23580,"byteLength":282960,"byteStride":12,"name":"bufferViewFloatVec3"},{"buffer":0,"byteOffset":306540,"byteLength":94320,"byteStride":8,"name":"bufferViewFloatVec2"}],"buffers":[{"uri":"L9540WH.bin","byteLength":400860}],"materials":[{"pbrMetallicRoughness":{"baseColorFactor":[0.6125001,0.6125001,0.6125001,1.0],"metallicFactor":0.0,"roughnessFactor":0.9},"emissiveFactor":[0.0,0.0,0.0],"alphaMode":"OPAQUE","name":"m_base0"}]}