{"asset":{"version":"2.0","generator":"babylon.js glTF exporter for 3ds max 2015 v1.3.33"},"scene":0,"scenes":[{"nodes":[0,1],"extensions":{}}],"nodes":[{"mesh":0,"translation":[0.0,0.0,0.0],"rotation":[0.0,2.98023224E-08,0.0,1.0],"scale":[0.0885803849,0.0885803849,0.0885803849],"name":"Box_case003"},{"translation":[0.0,0.0,0.0],"rotation":[0.0,0.0,0.0,1.0],"scale":[1.0,1.0,1.0],"name":"Default light"}],"meshes":[{"primitives":[{"attributes":{"POSITION":1,"NORMAL":2,"TEXCOORD_0":3},"indices":0,"mode":4,"material":0}],"name":"Box_case003"}],"accessors":[{"bufferView":0,"componentType":5123,"count":39312,"type":"SCALAR","name":"accessorIndices"},{"bufferView":1,"componentType":5126,"count":39312,"max":[244.734039,160.28212,168.5679],"min":[-244.734039,0.251258761,-168.5679],"type":"VEC3","name":"accessorPositions"},{"bufferView":1,"byteOffset":471744,"componentType":5126,"count":39312,"type":"VEC3","name":"accessorNormals"},{"bufferView":2,"componentType":5126,"count":39312,"type":"VEC2","name":"accessorUVs"}],"bufferViews":[{"buffer":0,"byteLength":78624,"name":"bufferViewScalar"},{"buffer":0,"byteOffset":78624,"byteLength":943488,"byteStride":12,"name":"bufferViewFloatVec3"},{"buffer":0,"byteOffset":1022112,"byteLength":314496,"byteStride":8,"name":"bufferViewFloatVec2"}],"buffers":[{"uri":"chumadan2.bin","byteLength":1336608}],"materials":[{"pbrMetallicRoughness":{"baseColorFactor":[0.612745166,0.612745166,0.612745166,1.0],"metallicFactor":0.0,"roughnessFactor":0.9},"emissiveFactor":[0.0,0.0,0.0],"alphaMode":"OPAQUE","name":"m_10"}]}