{"asset":{"version":"2.0","generator":"babylon.js glTF exporter for 3ds max 2015 v1.3.33"},"scene":0,"scenes":[{"nodes":[0,1,2],"extensions":{}}],"nodes":[{"mesh":0,"translation":[0.0,5.178965,-5.23847632E-07],"rotation":[0.0,-1.509958E-07,0.0,1.0],"scale":[0.552710533,0.713360369,0.4802925],"name":"Box004"},{"mesh":1,"translation":[0.06397247,6.173181,-10.5585432],"rotation":[-0.5,-0.5,-0.5,-0.5],"scale":[0.5875644,1.648678,1.90316451],"name":"Plane001"},{"translation":[0.0,0.0,0.0],"rotation":[0.0,0.0,0.0,1.0],"scale":[1.0,1.0,1.0],"name":"Default light"}],"meshes":[{"primitives":[{"attributes":{"POSITION":1,"NORMAL":2,"TEXCOORD_0":3},"indices":0,"mode":4,"material":0}],"name":"Box004"},{"primitives":[{"attributes":{"POSITION":5,"NORMAL":6,"TEXCOORD_0":7},"indices":4,"mode":4,"material":0}],"name":"Plane001"}],"accessors":[{"bufferView":0,"componentType":5123,"count":2400,"type":"SCALAR","name":"accessorIndices"},{"bufferView":1,"componentType":5126,"count":2400,"max":[18.52575,11.8843746,27.9598141],"min":[-18.5257473,-7.892117,-27.9598141],"type":"VEC3","name":"accessorPositions"},{"bufferView":1,"byteOffset":28800,"componentType":5126,"count":2400,"type":"VEC3","name":"accessorNormals"},{"bufferView":2,"componentType":5126,"count":2400,"type":"VEC2","name":"accessorUVs"},{"bufferView":0,"byteOffset":4800,"componentType":5123,"count":6,"type":"SCALAR","name":"accessorIndices"},{"bufferView":1,"byteOffset":57600,"componentType":5126,"count":6,"max":[8.813214,0.0,4.66280556],"min":[-8.813213,0.0,-4.662805],"type":"VEC3","name":"accessorPositions"},{"bufferView":1,"byteOffset":57672,"componentType":5126,"count":6,"type":"VEC3","name":"accessorNormals"},{"bufferView":2,"byteOffset":19200,"componentType":5126,"count":6,"type":"VEC2","name":"accessorUVs"}],"bufferViews":[{"buffer":0,"byteLength":4812,"name":"bufferViewScalar"},{"buffer":0,"byteOffset":4812,"byteLength":57744,"byteStride":12,"name":"bufferViewFloatVec3"},{"buffer":0,"byteOffset":62556,"byteLength":19248,"byteStride":8,"name":"bufferViewFloatVec2"}],"buffers":[{"uri":"box_8_pash.bin","byteLength":81804}],"materials":[{"pbrMetallicRoughness":{"baseColorFactor":[0.6125001,0.6125001,0.6125001,1.0],"metallicFactor":0.0,"roughnessFactor":0.9},"emissiveFactor":[0.0,0.0,0.0],"alphaMode":"OPAQUE","name":"m_10"}]}