{"asset":{"version":"2.0","generator":"babylon.js glTF exporter for 3ds max 2015 v1.3.33"},"scene":0,"scenes":[{"nodes":[0,1],"extensions":{}}],"nodes":[{"mesh":0,"translation":[0.0,0.0,0.0],"rotation":[2.82129974E-07,1.1924902E-08,7.54978942E-08,1.0],"scale":[0.09677408,0.09677408,0.09677408],"name":"Разделитель002"},{"translation":[0.0,0.0,0.0],"rotation":[0.0,0.0,0.0,1.0],"scale":[1.0,1.0,1.0],"name":"Default light"}],"meshes":[{"primitives":[{"attributes":{"POSITION":1,"NORMAL":2},"indices":0,"mode":4,"material":0}],"name":"Разделитель002"}],"accessors":[{"bufferView":0,"componentType":5123,"count":3432,"type":"SCALAR","name":"accessorIndices"},{"bufferView":1,"componentType":5126,"count":3432,"max":[5.00003433,409.357,59.2183151],"min":[-4.999966,-4.898619E-05,-59.218544],"type":"VEC3","name":"accessorPositions"},{"bufferView":1,"byteOffset":41184,"componentType":5126,"count":3432,"type":"VEC3","name":"accessorNormals"}],"bufferViews":[{"buffer":0,"byteLength":6864,"name":"bufferViewScalar"},{"buffer":0,"byteOffset":6864,"byteLength":82368,"byteStride":12,"name":"bufferViewFloatVec3"}],"buffers":[{"uri":"L9715.bin","byteLength":89232}],"materials":[{"pbrMetallicRoughness":{"baseColorFactor":[0.6125001,0.6125001,0.6125001,1.0],"metallicFactor":0.0,"roughnessFactor":0.9},"emissiveFactor":[0.0,0.0,0.0],"alphaMode":"OPAQUE","name":"m_plastik"}]}