{"asset":{"version":"2.0","generator":"babylon.js glTF exporter for 3ds max 2015 v1.3.33"},"scene":0,"scenes":[{"nodes":[0,1],"extensions":{}}],"nodes":[{"mesh":0,"translation":[0.0,0.0,0.0],"rotation":[-0.18301253,-0.6830129,0.683012664,-0.18301259],"scale":[0.05702582,-0.05702582,0.0570258163],"name":"sumka"},{"translation":[0.0,0.0,0.0],"rotation":[0.0,0.0,0.0,1.0],"scale":[1.0,1.0,1.0],"name":"Default light"}],"meshes":[{"primitives":[{"attributes":{"POSITION":1,"NORMAL":2,"TEXCOORD_0":3},"indices":0,"mode":4,"material":0}],"name":"sumka"}],"accessors":[{"bufferView":0,"componentType":5123,"count":10668,"type":"SCALAR","name":"accessorIndices"},{"bufferView":1,"componentType":5126,"count":10668,"max":[222.382233,91.57783,0.194654226],"min":[-222.382233,-91.57797,-351.48764],"type":"VEC3","name":"accessorPositions"},{"bufferView":1,"byteOffset":128016,"componentType":5126,"count":10668,"type":"VEC3","name":"accessorNormals"},{"bufferView":2,"componentType":5126,"count":10668,"type":"VEC2","name":"accessorUVs"}],"bufferViews":[{"buffer":0,"byteLength":21336,"name":"bufferViewScalar"},{"buffer":0,"byteOffset":21336,"byteLength":256032,"byteStride":12,"name":"bufferViewFloatVec3"},{"buffer":0,"byteOffset":277368,"byteLength":85344,"byteStride":8,"name":"bufferViewFloatVec2"}],"buffers":[{"uri":"sumka3.bin","byteLength":362712}],"materials":[{"pbrMetallicRoughness":{"baseColorFactor":[0.6125001,0.6125001,0.6125001,1.0],"metallicFactor":0.0,"roughnessFactor":0.9},"emissiveFactor":[0.0,0.0,0.0],"alphaMode":"OPAQUE","name":"m_10"}]}