{"asset":{"version":"2.0","generator":"babylon.js glTF exporter for 3ds max 2015 v1.3.33"},"scene":0,"scenes":[{"nodes":[0,1],"extensions":{}}],"nodes":[{"mesh":0,"translation":[0.0,10.2358532,0.0],"rotation":[-0.7660444,4.852912E-08,-0.6427877,-5.78347432E-08],"scale":[0.3426958,0.160431772,0.3426958],"name":"Cylinder003"},{"translation":[0.0,0.0,0.0],"rotation":[0.0,0.0,0.0,1.0],"scale":[1.0,1.0,1.0],"name":"Default light"}],"meshes":[{"primitives":[{"attributes":{"POSITION":1,"NORMAL":2,"TEXCOORD_0":3},"indices":0,"mode":4,"material":0}],"name":"Cylinder003"}],"accessors":[{"bufferView":0,"componentType":5123,"count":912,"type":"SCALAR","name":"accessorIndices"},{"bufferView":1,"componentType":5126,"count":912,"max":[34.9917259,63.80192,35.13293],"min":[-35.1452942,-50.0055428,-35.00409],"type":"VEC3","name":"accessorPositions"},{"bufferView":1,"byteOffset":10944,"componentType":5126,"count":912,"type":"VEC3","name":"accessorNormals"},{"bufferView":2,"componentType":5126,"count":912,"type":"VEC2","name":"accessorUVs"}],"bufferViews":[{"buffer":0,"byteLength":1824,"name":"bufferViewScalar"},{"buffer":0,"byteOffset":1824,"byteLength":21888,"byteStride":12,"name":"bufferViewFloatVec3"},{"buffer":0,"byteOffset":23712,"byteLength":7296,"byteStride":8,"name":"bufferViewFloatVec2"}],"buffers":[{"uri":"box_2.bin","byteLength":31008}],"materials":[{"pbrMetallicRoughness":{"baseColorFactor":[0.6125001,0.6125001,0.6125001,1.0],"metallicFactor":0.0,"roughnessFactor":0.9},"emissiveFactor":[0.0,0.0,0.0],"alphaMode":"OPAQUE","name":"m_10"}]}