{"asset":{"version":"2.0","generator":"babylon.js glTF exporter for 3ds max 2015 v1.3.33"},"scene":0,"scenes":[{"nodes":[0,5],"extensions":{}}],"nodes":[{"children":[1,2],"translation":[0.0,0.0,0.0],"rotation":[0.0,0.0,0.0,1.0],"scale":[1.0,1.0,1.0],"name":"Group008"},{"mesh":0,"translation":[2.54553032,36.0990257,-2.14919567],"rotation":[-1.0,-2.270973E-12,-1.23580423E-06,1.83185057E-06],"scale":[0.099999994,-0.099999994,0.099999994],"name":"jacket"},{"children":[3,4],"translation":[2.56308174,79.88258,0.123587608],"rotation":[0.0,0.0,0.0,1.0],"scale":[1.0,1.0,1.0],"name":"Group007"},{"mesh":1,"translation":[0.0,0.0,-8.34465E-07],"rotation":[-0.499999881,-0.5000001,-0.49999997,0.50000006],"scale":[0.099999994,0.099999994,0.099999994],"name":"Object010"},{"mesh":2,"translation":[0.0,0.0,-8.34465E-07],"rotation":[-0.499999881,-0.5000001,-0.49999997,0.50000006],"scale":[0.099999994,0.099999994,0.099999994],"name":"Object009"},{"translation":[0.0,0.0,0.0],"rotation":[0.0,0.0,0.0,1.0],"scale":[1.0,1.0,1.0],"name":"Default light"}],"meshes":[{"primitives":[{"attributes":{"POSITION":1,"NORMAL":2,"TEXCOORD_0":3},"indices":0,"mode":4,"material":0}],"name":"jacket"},{"primitives":[{"attributes":{"POSITION":5,"NORMAL":6,"TEXCOORD_0":7},"indices":4,"mode":4,"material":1}],"name":"Object010"},{"primitives":[{"attributes":{"POSITION":9,"NORMAL":10,"TEXCOORD_0":11},"indices":8,"mode":4,"material":2}],"name":"Object009"}],"accessors":[{"bufferView":0,"componentType":5123,"count":8289,"type":"SCALAR","name":"accessorIndices"},{"bufferView":1,"componentType":5126,"count":8289,"max":[41.17045,422.8583,244.651337],"min":[-92.08076,-360.990173,-287.6366],"type":"VEC3","name":"accessorPositions"},{"bufferView":1,"byteOffset":99468,"componentType":5126,"count":8289,"type":"VEC3","name":"accessorNormals"},{"bufferView":2,"componentType":5126,"count":8289,"type":"VEC2","name":"accessorUVs"},{"bufferView":0,"byteOffset":16580,"componentType":5123,"count":1026,"type":"SCALAR","name":"accessorIndices"},{"bufferView":1,"byteOffset":198936,"componentType":5126,"count":1026,"max":[32.8378143,7.040489,94.30298],"min":[-32.15166,3.65871048,12.7817383],"type":"VEC3","name":"accessorPositions"},{"bufferView":1,"byteOffset":211248,"componentType":5126,"count":1026,"type":"VEC3","name":"accessorNormals"},{"bufferView":2,"byteOffset":66312,"componentType":5126,"count":1026,"type":"VEC2","name":"accessorUVs"},{"bufferView":0,"byteOffset":18632,"componentType":5123,"count":1260,"type":"SCALAR","name":"accessorIndices"},{"bufferView":1,"byteOffset":223560,"componentType":5126,"count":1260,"max":[189.598267,8.863312,18.3955078],"min":[-189.598282,-8.863312,-94.30298],"type":"VEC3","name":"accessorPositions"},{"bufferView":1,"byteOffset":238680,"componentType":5126,"count":1260,"type":"VEC3","name":"accessorNormals"},{"bufferView":2,"byteOffset":74520,"componentType":5126,"count":1260,"type":"VEC2","name":"accessorUVs"}],"bufferViews":[{"buffer":0,"byteLength":21152,"name":"bufferViewScalar"},{"buffer":0,"byteOffset":21152,"byteLength":253800,"byteStride":12,"name":"bufferViewFloatVec3"},{"buffer":0,"byteOffset":274952,"byteLength":84600,"byteStride":8,"name":"bufferViewFloatVec2"}],"buffers":[{"uri":"TS_3.bin","byteLength":359552}],"materials":[{"pbrMetallicRoughness":{"baseColorFactor":[0.7148694,0.612745166,0.8700982,1.0],"metallicFactor":0.0,"roughnessFactor":0.9},"emissiveFactor":[0.0,0.0,0.0],"alphaMode":"OPAQUE","name":"m_10"},{"pbrMetallicRoughness":{"baseColorFactor":[0.212418333,0.416666746,0.6740197,1.0],"metallicFactor":0.0,"roughnessFactor":0.9},"emissiveFactor":[0.0,0.0,0.0],"alphaMode":"OPAQUE","name":"m_32"},{"pbrMetallicRoughness":{"baseColorFactor":[0.06535949,0.06535949,0.06535949,1.0],"metallicFactor":0.0,"roughnessFactor":0.9},"emissiveFactor":[0.0,0.0,0.0],"alphaMode":"OPAQUE","name":"m_31"}]}