{"asset":{"version":"2.0","generator":"babylon.js glTF exporter for 3ds max 2015 v1.3.33"},"scene":0,"scenes":[{"nodes":[0,1,2,3,4,5],"extensions":{}}],"nodes":[{"mesh":0,"translation":[-7.62939453E-06,-1.90734863E-06,-1.14440918E-05],"rotation":[-6.180359E-08,1.96567456E-08,0.7071068,0.7071067],"scale":[2.54,2.54,2.54],"name":"stitch_result_stitch all"},{"mesh":1,"translation":[-42.03295,19.6517067,-0.6771153],"rotation":[-0.7071068,0.0,0.0,0.7071067],"scale":[1.0,1.0,1.0],"name":"markerObj_tit2"},{"mesh":2,"translation":[41.8828545,19.6517067,-0.6771153],"rotation":[-0.7071068,0.0,0.0,0.7071067],"scale":[1.0,1.0,1.0],"name":"markerObj_tit2 (1)"},{"mesh":3,"translation":[13.2821674,19.6517067,-0.6771153],"rotation":[-0.7071068,0.0,0.0,0.7071067],"scale":[1.0,1.0,1.0],"name":"markerObj_tit2 (2)"},{"mesh":4,"translation":[-13.6684723,19.6517067,-0.6771153],"rotation":[-0.7071068,0.0,0.0,0.7071067],"scale":[1.0,1.0,1.0],"name":"markerObj_tit2 (3)"},{"translation":[0.0,0.0,0.0],"rotation":[0.0,0.0,0.0,1.0],"scale":[1.0,1.0,1.0],"name":"Default light"}],"meshes":[{"primitives":[{"attributes":{"POSITION":1,"NORMAL":2,"TEXCOORD_0":3},"indices":0,"mode":4,"material":0}],"name":"stitch_result_stitch all"},{"primitives":[{"attributes":{"POSITION":5,"NORMAL":6,"TEXCOORD_0":7},"indices":4}],"name":"markerObj_tit2"},{"primitives":[{"attributes":{"POSITION":9,"NORMAL":10,"TEXCOORD_0":11},"indices":8}],"name":"markerObj_tit2"},{"primitives":[{"attributes":{"POSITION":13,"NORMAL":14,"TEXCOORD_0":15},"indices":12}],"name":"markerObj_tit2"},{"primitives":[{"attributes":{"POSITION":17,"NORMAL":18,"TEXCOORD_0":19},"indices":16}],"name":"markerObj_tit2"}],"accessors":[{"bufferView":0,"componentType":5123,"count":24924,"type":"SCALAR","name":"accessorIndices"},{"bufferView":1,"componentType":5126,"count":24924,"max":[15.984252,23.7007885,0.2755916],"min":[-6.05415948E-08,-23.7007885,-0.275589526],"type":"VEC3","name":"accessorPositions"},{"bufferView":1,"byteOffset":299088,"componentType":5126,"count":24924,"type":"VEC3","name":"accessorNormals"},{"bufferView":2,"componentType":5126,"count":24924,"type":"VEC2","name":"accessorUVs"},{"bufferView":0,"byteOffset":49848,"componentType":5123,"count":36,"type":"SCALAR","name":"accessorIndices"},{"bufferView":1,"byteOffset":598176,"componentType":5126,"count":36,"max":[1.5,3.00000024,1.5],"min":[-1.5,-5.96046448E-08,-1.5],"type":"VEC3","name":"accessorPositions"},{"bufferView":1,"byteOffset":598608,"componentType":5126,"count":36,"type":"VEC3","name":"accessorNormals"},{"bufferView":2,"byteOffset":199392,"componentType":5126,"count":36,"type":"VEC2","name":"accessorUVs"},{"bufferView":0,"byteOffset":49920,"componentType":5123,"count":36,"type":"SCALAR","name":"accessorIndices"},{"bufferView":1,"byteOffset":599040,"componentType":5126,"count":36,"max":[1.5,3.00000024,1.5],"min":[-1.5,-5.96046448E-08,-1.5],"type":"VEC3","name":"accessorPositions"},{"bufferView":1,"byteOffset":599472,"componentType":5126,"count":36,"type":"VEC3","name":"accessorNormals"},{"bufferView":2,"byteOffset":199680,"componentType":5126,"count":36,"type":"VEC2","name":"accessorUVs"},{"bufferView":0,"byteOffset":49992,"componentType":5123,"count":36,"type":"SCALAR","name":"accessorIndices"},{"bufferView":1,"byteOffset":599904,"componentType":5126,"count":36,"max":[1.5,3.00000024,1.5],"min":[-1.5,-5.96046448E-08,-1.5],"type":"VEC3","name":"accessorPositions"},{"bufferView":1,"byteOffset":600336,"componentType":5126,"count":36,"type":"VEC3","name":"accessorNormals"},{"bufferView":2,"byteOffset":199968,"componentType":5126,"count":36,"type":"VEC2","name":"accessorUVs"},{"bufferView":0,"byteOffset":50064,"componentType":5123,"count":36,"type":"SCALAR","name":"accessorIndices"},{"bufferView":1,"byteOffset":600768,"componentType":5126,"count":36,"max":[1.5,3.00000024,1.5],"min":[-1.5,-5.96046448E-08,-1.5],"type":"VEC3","name":"accessorPositions"},{"bufferView":1,"byteOffset":601200,"componentType":5126,"count":36,"type":"VEC3","name":"accessorNormals"},{"bufferView":2,"byteOffset":200256,"componentType":5126,"count":36,"type":"VEC2","name":"accessorUVs"}],"bufferViews":[{"buffer":0,"byteLength":50136,"name":"bufferViewScalar"},{"buffer":0,"byteOffset":50136,"byteLength":601632,"byteStride":12,"name":"bufferViewFloatVec3"},{"buffer":0,"byteOffset":651768,"byteLength":200544,"byteStride":8,"name":"bufferViewFloatVec2"}],"buffers":[{"uri":"L99124WH.bin","byteLength":852312}],"materials":[{"pbrMetallicRoughness":{"baseColorFactor":[0.6125001,0.6125001,0.6125001,1.0],"metallicFactor":0.0,"roughnessFactor":0.9},"emissiveFactor":[0.0,0.0,0.0],"alphaMode":"OPAQUE","name":"m_base0"}]}