{"asset":{"version":"2.0","generator":"babylon.js glTF exporter for 3ds max 2015 v1.3.33"},"scene":0,"scenes":[{"nodes":[0,1,2,3,4,5,7,9],"extensions":{}}],"nodes":[{"mesh":0,"translation":[-17.5437717,0.104615688,-26.10279],"rotation":[0.0,0.0,0.0,1.0],"scale":[1.0,1.0,1.0],"name":"marker_"},{"mesh":1,"translation":[-17.5437717,0.104615688,-15.5864143],"rotation":[0.0,0.0,0.0,1.0],"scale":[1.0,1.0,1.0],"name":"marker_002"},{"mesh":2,"translation":[-17.5437717,0.104615688,-5.07138252],"rotation":[0.0,0.0,0.0,1.0],"scale":[1.0,1.0,1.0],"name":"marker_003"},{"mesh":3,"translation":[-17.5437717,0.104615688,5.39853573],"rotation":[0.0,0.0,0.0,1.0],"scale":[1.0,1.0,1.0],"name":"marker_004"},{"mesh":4,"translation":[-17.5437717,0.104615688,15.9526424],"rotation":[0.0,0.0,0.0,1.0],"scale":[1.0,1.0,1.0],"name":"marker_005"},{"children":[6],"translation":[21.25,55.4000359,-27.6000156],"rotation":[-3.2584137E-07,1.509958E-07,3.495769E-14,1.0],"scale":[2.54,2.54,2.54],"name":"95"},{"mesh":5,"translation":[0.0,0.0,0.0],"rotation":[2.842171E-14,-1.61558713E-27,0.0,1.0],"scale":[1.0,1.0,1.0],"name":"stitch_result_stitch all"},{"children":[8],"translation":[-21.2499771,0.9999962,-0.8499985],"rotation":[1.5067205E-14,-2.01028633E-14,-0.7071068,0.7071067],"scale":[2.54,2.54,2.54],"name":"93"},{"mesh":6,"translation":[0.0,0.0,0.0],"rotation":[-2.524355E-29,0.0,7.10542736E-15,1.0],"scale":[1.0,1.0,1.0],"name":"stitch_result_stitch all (1)"},{"translation":[0.0,0.0,0.0],"rotation":[0.0,0.0,0.0,1.0],"scale":[1.0,1.0,1.0],"name":"Default light"}],"meshes":[{"primitives":[{"attributes":{"POSITION":1,"NORMAL":2,"TEXCOORD_0":3},"indices":0}],"name":"marker_"},{"primitives":[{"attributes":{"POSITION":5,"NORMAL":6,"TEXCOORD_0":7},"indices":4}],"name":"marker_002"},{"primitives":[{"attributes":{"POSITION":9,"NORMAL":10,"TEXCOORD_0":11},"indices":8}],"name":"marker_003"},{"primitives":[{"attributes":{"POSITION":13,"NORMAL":14,"TEXCOORD_0":15},"indices":12}],"name":"marker_004"},{"primitives":[{"attributes":{"POSITION":17,"NORMAL":18,"TEXCOORD_0":19},"indices":16}],"name":"marker_005"},{"primitives":[{"attributes":{"POSITION":21,"NORMAL":22,"TEXCOORD_0":23},"indices":20,"mode":4,"material":0}],"name":"stitch_result_stitch all"},{"primitives":[{"attributes":{"POSITION":25,"NORMAL":26,"TEXCOORD_0":27},"indices":24,"mode":4,"material":0}],"name":"stitch_result_stitch all"}],"accessors":[{"bufferView":0,"componentType":5123,"count":36,"type":"SCALAR","name":"accessorIndices"},{"bufferView":1,"componentType":5126,"count":36,"max":[2.56002331,1.04728317,0.0581817627],"min":[-2.56002235,0.0,-0.0581817627],"type":"VEC3","name":"accessorPositions"},{"bufferView":1,"byteOffset":432,"componentType":5126,"count":36,"type":"VEC3","name":"accessorNormals"},{"bufferView":2,"componentType":5126,"count":36,"type":"VEC2","name":"accessorUVs"},{"bufferView":0,"byteOffset":72,"componentType":5123,"count":36,"type":"SCALAR","name":"accessorIndices"},{"bufferView":1,"byteOffset":864,"componentType":5126,"count":36,"max":[2.56002331,1.04728317,0.0581827164],"min":[-2.56002235,0.0,-0.0581827164],"type":"VEC3","name":"accessorPositions"},{"bufferView":1,"byteOffset":1296,"componentType":5126,"count":36,"type":"VEC3","name":"accessorNormals"},{"bufferView":2,"byteOffset":288,"componentType":5126,"count":36,"type":"VEC2","name":"accessorUVs"},{"bufferView":0,"byteOffset":144,"componentType":5123,"count":36,"type":"SCALAR","name":"accessorIndices"},{"bufferView":1,"byteOffset":1728,"componentType":5126,"count":36,"max":[2.56002331,1.04728317,0.0581827164],"min":[-2.56002235,0.0,-0.0581827164],"type":"VEC3","name":"accessorPositions"},{"bufferView":1,"byteOffset":2160,"componentType":5126,"count":36,"type":"VEC3","name":"accessorNormals"},{"bufferView":2,"byteOffset":576,"componentType":5126,"count":36,"type":"VEC2","name":"accessorUVs"},{"bufferView":0,"byteOffset":216,"componentType":5123,"count":36,"type":"SCALAR","name":"accessorIndices"},{"bufferView":1,"byteOffset":2592,"componentType":5126,"count":36,"max":[2.56002331,1.04728317,0.0581827164],"min":[-2.56002235,0.0,-0.0581827164],"type":"VEC3","name":"accessorPositions"},{"bufferView":1,"byteOffset":3024,"componentType":5126,"count":36,"type":"VEC3","name":"accessorNormals"},{"bufferView":2,"byteOffset":864,"componentType":5126,"count":36,"type":"VEC2","name":"accessorUVs"},{"bufferView":0,"byteOffset":288,"componentType":5123,"count":36,"type":"SCALAR","name":"accessorIndices"},{"bufferView":1,"byteOffset":3456,"componentType":5126,"count":36,"max":[2.56002331,1.04728317,0.05818367],"min":[-2.56002235,0.0,-0.0581827164],"type":"VEC3","name":"accessorPositions"},{"bufferView":1,"byteOffset":3888,"componentType":5126,"count":36,"type":"VEC3","name":"accessorNormals"},{"bufferView":2,"byteOffset":1152,"componentType":5126,"count":36,"type":"VEC2","name":"accessorUVs"},{"bufferView":0,"byteOffset":360,"componentType":5123,"count":984,"type":"SCALAR","name":"accessorIndices"},{"bufferView":1,"byteOffset":4320,"componentType":5126,"count":984,"max":[0.19685173,0.393701553,0.1968584],"min":[-16.9291344,-21.81104,-0.19685936],"type":"VEC3","name":"accessorPositions"},{"bufferView":1,"byteOffset":16128,"componentType":5126,"count":984,"type":"VEC3","name":"accessorNormals"},{"bufferView":2,"byteOffset":1440,"componentType":5126,"count":984,"type":"VEC2","name":"accessorUVs"},{"bufferView":0,"byteOffset":2328,"componentType":5123,"count":29136,"type":"SCALAR","name":"accessorIndices"},{"bufferView":1,"byteOffset":27936,"componentType":5126,"count":29136,"max":[0.3937015,16.9291267,11.3976431],"min":[-21.8110371,-0.196866989,-10.3346453],"type":"VEC3","name":"accessorPositions"},{"bufferView":1,"byteOffset":377568,"componentType":5126,"count":29136,"type":"VEC3","name":"accessorNormals"},{"bufferView":2,"byteOffset":9312,"componentType":5126,"count":29136,"type":"VEC2","name":"accessorUVs"}],"bufferViews":[{"buffer":0,"byteLength":60600,"name":"bufferViewScalar"},{"buffer":0,"byteOffset":60600,"byteLength":727200,"byteStride":12,"name":"bufferViewFloatVec3"},{"buffer":0,"byteOffset":787800,"byteLength":242400,"byteStride":8,"name":"bufferViewFloatVec2"}],"buffers":[{"uri":"LWS5FWH.bin","byteLength":1030200}],"materials":[{"pbrMetallicRoughness":{"baseColorFactor":[0.404411823,0.404411823,0.404411823,1.0],"metallicFactor":0.0,"roughnessFactor":0.9},"emissiveFactor":[0.0,0.0,0.0],"alphaMode":"OPAQUE","name":"m_base0"}]}