{"asset":{"version":"2.0","generator":"babylon.js glTF exporter for 3ds max 2015 v1.3.33"},"scene":0,"scenes":[{"nodes":[0,5],"extensions":{}}],"nodes":[{"children":[1,2],"translation":[3.906021E-07,0.0,-2.73502565E-07],"rotation":[0.0,2.98023224E-08,0.0,1.0],"scale":[1.0,1.0,1.0],"name":"Group004"},{"mesh":0,"translation":[0.0212949067,20.0921059,0.0304122828],"rotation":[8.337659E-08,0.30070582,-2.6288534E-08,0.953716934],"scale":[0.09999999,0.099999994,0.09999999],"name":"dress001"},{"children":[3,4],"translation":[0.876823664,69.7886047,-0.6139585],"rotation":[0.0,0.30070582,0.0,0.953716934],"scale":[0.99999994,1.0,0.99999994],"name":"Group005"},{"mesh":1,"translation":[-7.51018524E-06,0.0,-8.34465E-07],"rotation":[-0.499999881,-0.5000001,-0.49999997,0.50000006],"scale":[0.099999994,0.099999994,0.099999994],"name":"Object005"},{"mesh":2,"translation":[-7.51018524E-06,0.0,-8.34465E-07],"rotation":[-0.499999881,-0.5000001,-0.49999997,0.50000006],"scale":[0.099999994,0.099999994,0.099999994],"name":"Object006"},{"translation":[0.0,0.0,0.0],"rotation":[0.0,0.0,0.0,1.0],"scale":[1.0,1.0,1.0],"name":"Default light"}],"meshes":[{"primitives":[{"attributes":{"POSITION":1,"NORMAL":2,"TEXCOORD_0":3},"indices":0,"mode":4,"material":0}],"name":"dress001"},{"primitives":[{"attributes":{"POSITION":5,"NORMAL":6,"TEXCOORD_0":7},"indices":4,"mode":4,"material":1}],"name":"Object005"},{"primitives":[{"attributes":{"POSITION":9,"NORMAL":10,"TEXCOORD_0":11},"indices":8,"mode":4,"material":2}],"name":"Object006"}],"accessors":[{"bufferView":0,"componentType":5123,"count":5526,"type":"SCALAR","name":"accessorIndices"},{"bufferView":1,"componentType":5126,"count":5526,"max":[42.5758553,446.560974,144.507919],"min":[-42.5758476,-201.759842,-144.508041],"type":"VEC3","name":"accessorPositions"},{"bufferView":1,"byteOffset":66312,"componentType":5126,"count":5526,"type":"VEC3","name":"accessorNormals"},{"bufferView":2,"componentType":5126,"count":5526,"type":"VEC2","name":"accessorUVs"},{"bufferView":0,"byteOffset":11052,"componentType":5123,"count":1026,"type":"SCALAR","name":"accessorIndices"},{"bufferView":1,"byteOffset":132624,"componentType":5126,"count":1026,"max":[32.83782,7.04048824,94.30298],"min":[-32.1516571,3.65870953,12.7817383],"type":"VEC3","name":"accessorPositions"},{"bufferView":1,"byteOffset":144936,"componentType":5126,"count":1026,"type":"VEC3","name":"accessorNormals"},{"bufferView":2,"byteOffset":44208,"componentType":5126,"count":1026,"type":"VEC2","name":"accessorUVs"},{"bufferView":0,"byteOffset":13104,"componentType":5123,"count":1260,"type":"SCALAR","name":"accessorIndices"},{"bufferView":1,"byteOffset":157248,"componentType":5126,"count":1260,"max":[189.598282,8.863313,18.3955688],"min":[-189.598267,-8.863315,-94.30298],"type":"VEC3","name":"accessorPositions"},{"bufferView":1,"byteOffset":172368,"componentType":5126,"count":1260,"type":"VEC3","name":"accessorNormals"},{"bufferView":2,"byteOffset":52416,"componentType":5126,"count":1260,"type":"VEC2","name":"accessorUVs"}],"bufferViews":[{"buffer":0,"byteLength":15624,"name":"bufferViewScalar"},{"buffer":0,"byteOffset":15624,"byteLength":187488,"byteStride":12,"name":"bufferViewFloatVec3"},{"buffer":0,"byteOffset":203112,"byteLength":62496,"byteStride":8,"name":"bufferViewFloatVec2"}],"buffers":[{"uri":"TS_2_1.bin","byteLength":265608}],"materials":[{"pbrMetallicRoughness":{"baseColorFactor":[0.7148694,0.612745166,0.8700982,1.0],"metallicFactor":0.0,"roughnessFactor":0.9},"emissiveFactor":[0.0,0.0,0.0],"alphaMode":"OPAQUE","name":"m_10"},{"pbrMetallicRoughness":{"baseColorFactor":[0.212418333,0.416666746,0.6740197,1.0],"metallicFactor":0.0,"roughnessFactor":0.9},"emissiveFactor":[0.0,0.0,0.0],"alphaMode":"OPAQUE","name":"m_32"},{"pbrMetallicRoughness":{"baseColorFactor":[0.06535949,0.06535949,0.06535949,1.0],"metallicFactor":0.0,"roughnessFactor":0.9},"emissiveFactor":[0.0,0.0,0.0],"alphaMode":"OPAQUE","name":"m_31"}]}