{"asset":{"version":"2.0","generator":"babylon.js glTF exporter for 3ds max 2015 v1.3.33"},"scene":0,"scenes":[{"nodes":[0,6],"extensions":{}}],"nodes":[{"children":[1,5],"translation":[-4.053116E-06,41.752533,-1.43051147E-05],"rotation":[0.0,0.0,0.0,1.0],"scale":[1.0,1.0,1.0],"name":"Group023"},{"children":[2,3,4],"translation":[4.053116E-06,-41.752533,1.43051147E-05],"rotation":[0.0,0.0,0.0,1.0],"scale":[1.0,1.0,1.0],"name":"Group001"},{"translation":[1.71485758,74.1893158,0.839467049],"rotation":[-0.499999881,-0.5000001,-0.49999997,0.50000006],"scale":[0.099999994,0.099999994,0.099999994],"name":"Hangers001"},{"mesh":0,"translation":[1.71485746,74.1893,0.839467168],"rotation":[-0.499999881,-0.5000001,-0.49999997,0.50000006],"scale":[0.099999994,0.099999994,0.099999994],"name":"Object001"},{"mesh":1,"translation":[1.71485746,74.1893,0.839467168],"rotation":[-0.499999881,-0.5000001,-0.49999997,0.50000006],"scale":[0.099999994,0.099999994,0.099999994],"name":"Object002"},{"mesh":2,"translation":[4.053116E-06,-41.752533,1.43051147E-05],"rotation":[-1.0,-2.01808785E-13,-4.33125763E-07,4.33125763E-07],"scale":[0.100441769,-0.100441769,0.100441769],"name":"rubashka001"},{"translation":[0.0,0.0,0.0],"rotation":[0.0,0.0,0.0,1.0],"scale":[1.0,1.0,1.0],"name":"Default light"}],"meshes":[{"primitives":[{"attributes":{"POSITION":1,"NORMAL":2,"TEXCOORD_0":3},"indices":0,"mode":4,"material":0}],"name":"Object001"},{"primitives":[{"attributes":{"POSITION":5,"NORMAL":6,"TEXCOORD_0":7},"indices":4,"mode":4,"material":1}],"name":"Object002"},{"primitives":[{"attributes":{"POSITION":9,"NORMAL":10,"TEXCOORD_0":11},"indices":8,"mode":4,"material":2}],"name":"rubashka001"}],"accessors":[{"bufferView":0,"componentType":5123,"count":1260,"type":"SCALAR","name":"accessorIndices"},{"bufferView":1,"componentType":5126,"count":1260,"max":[189.598282,8.863314,18.3955688],"min":[-189.598267,-8.863312,-94.30298],"type":"VEC3","name":"accessorPositions"},{"bufferView":1,"byteOffset":15120,"componentType":5126,"count":1260,"type":"VEC3","name":"accessorNormals"},{"bufferView":2,"componentType":5126,"count":1260,"type":"VEC2","name":"accessorUVs"},{"bufferView":0,"byteOffset":2520,"componentType":5123,"count":1026,"type":"SCALAR","name":"accessorIndices"},{"bufferView":1,"byteOffset":30240,"componentType":5126,"count":1026,"max":[32.8378143,7.040489,94.30298],"min":[-32.15166,3.65871048,12.7817383],"type":"VEC3","name":"accessorPositions"},{"bufferView":1,"byteOffset":42552,"componentType":5126,"count":1026,"type":"VEC3","name":"accessorNormals"},{"bufferView":2,"byteOffset":10080,"componentType":5126,"count":1026,"type":"VEC2","name":"accessorUVs"},{"bufferView":0,"byteOffset":4572,"componentType":5123,"count":5013,"type":"SCALAR","name":"accessorIndices"},{"bufferView":1,"byteOffset":54864,"componentType":5126,"count":5013,"max":[69.44147,751.440063,240.701141],"min":[-69.44154,-1.14051652,-240.700424],"type":"VEC3","name":"accessorPositions"},{"bufferView":1,"byteOffset":115020,"componentType":5126,"count":5013,"type":"VEC3","name":"accessorNormals"},{"bufferView":2,"byteOffset":18288,"componentType":5126,"count":5013,"type":"VEC2","name":"accessorUVs"}],"bufferViews":[{"buffer":0,"byteLength":14600,"name":"bufferViewScalar"},{"buffer":0,"byteOffset":14600,"byteLength":175176,"byteStride":12,"name":"bufferViewFloatVec3"},{"buffer":0,"byteOffset":189776,"byteLength":58392,"byteStride":8,"name":"bufferViewFloatVec2"}],"buffers":[{"uri":"rubaha_111.bin","byteLength":248168}],"materials":[{"pbrMetallicRoughness":{"baseColorFactor":[0.06535949,0.06535949,0.06535949,1.0],"metallicFactor":0.0,"roughnessFactor":0.9},"emissiveFactor":[0.0,0.0,0.0],"alphaMode":"OPAQUE","name":"Material #27"},{"pbrMetallicRoughness":{"baseColorFactor":[0.212418333,0.416666746,0.6740197,1.0],"metallicFactor":0.0,"roughnessFactor":0.9},"emissiveFactor":[0.0,0.0,0.0],"alphaMode":"OPAQUE","name":"m_32"},{"pbrMetallicRoughness":{"baseColorFactor":[0.6125001,0.6125001,0.6125001,1.0],"metallicFactor":0.0,"roughnessFactor":0.9},"emissiveFactor":[0.0,0.0,0.0],"alphaMode":"OPAQUE","name":"m_10"}]}