{"asset":{"version":"2.0","generator":"babylon.js glTF exporter for 3ds max 2015 v1.3.33"},"scene":0,"scenes":[{"nodes":[0,3],"extensions":{}}],"nodes":[{"children":[1,2],"translation":[0.0,0.0,0.0],"rotation":[-0.209988654,0.0,0.0,0.977703869],"scale":[1.0,1.0,1.0],"name":"Group001"},{"mesh":0,"translation":[9.374002,-2.6147666,20.4141979],"rotation":[0.0,-1.0,1.2232606E-08,-7.54978942E-08],"scale":[0.0380672142,0.0380672179,0.0380672179],"name":"Object002"},{"mesh":1,"translation":[-9.374006,-2.6147666,20.4141979],"rotation":[-1.0,0.0,-7.54978942E-08,-1.2232606E-08],"scale":[0.0380672142,-0.0380672179,0.0380672179],"name":"Object003"},{"translation":[0.0,0.0,0.0],"rotation":[0.0,0.0,0.0,1.0],"scale":[1.0,1.0,1.0],"name":"Default light"}],"meshes":[{"primitives":[{"attributes":{"POSITION":1,"NORMAL":2,"COLOR_0":3,"TEXCOORD_0":4},"indices":0,"mode":4,"material":0}],"name":"Object002"},{"primitives":[{"attributes":{"POSITION":6,"NORMAL":7,"COLOR_0":8,"TEXCOORD_0":9},"indices":5,"mode":4,"material":0}],"name":"Object003"}],"accessors":[{"bufferView":0,"componentType":5123,"count":3186,"type":"SCALAR","name":"accessorIndices"},{"bufferView":1,"componentType":5126,"count":3186,"max":[556.926147,367.778,518.304565],"min":[250.048874,10.032959,-234.569519],"type":"VEC3","name":"accessorPositions"},{"bufferView":1,"byteOffset":38232,"componentType":5126,"count":3186,"type":"VEC3","name":"accessorNormals"},{"bufferView":2,"componentType":5126,"count":3186,"type":"VEC4","name":"accessorColors"},{"bufferView":3,"componentType":5126,"count":3186,"type":"VEC2","name":"accessorUVs"},{"bufferView":0,"byteOffset":6372,"componentType":5123,"count":3186,"type":"SCALAR","name":"accessorIndices"},{"bufferView":1,"byteOffset":76464,"componentType":5126,"count":3186,"max":[556.9261,367.778,518.304565],"min":[250.048859,10.0329742,-234.569519],"type":"VEC3","name":"accessorPositions"},{"bufferView":1,"byteOffset":114696,"componentType":5126,"count":3186,"type":"VEC3","name":"accessorNormals"},{"bufferView":2,"byteOffset":50976,"componentType":5126,"count":3186,"type":"VEC4","name":"accessorColors"},{"bufferView":3,"byteOffset":25488,"componentType":5126,"count":3186,"type":"VEC2","name":"accessorUVs"}],"bufferViews":[{"buffer":0,"byteLength":12744,"name":"bufferViewScalar"},{"buffer":0,"byteOffset":12744,"byteLength":152928,"byteStride":12,"name":"bufferViewFloatVec3"},{"buffer":0,"byteOffset":165672,"byteLength":101952,"byteStride":16,"name":"bufferViewFloatVec4"},{"buffer":0,"byteOffset":267624,"byteLength":50976,"byteStride":8,"name":"bufferViewFloatVec2"}],"buffers":[{"uri":"bot_2_4.bin","byteLength":318600}],"materials":[{"pbrMetallicRoughness":{"baseColorFactor":[0.6125001,0.6125001,0.6125001,1.0],"metallicFactor":0.0,"roughnessFactor":0.9},"emissiveFactor":[0.0,0.0,0.0],"alphaMode":"OPAQUE","name":"m_10"}]}