{"asset":{"version":"2.0","generator":"babylon.js glTF exporter for 3ds max 2015 v1.3.33"},"scene":0,"scenes":[{"nodes":[0,1,2,3,48],"extensions":{}}],"nodes":[{"mesh":0,"translation":[-17.5437717,0.104615688,-15.9943056],"rotation":[0.0,0.0,0.0,1.0],"scale":[1.0,1.0,1.0],"name":"marker_"},{"mesh":1,"translation":[-17.5437717,0.104615688,-5.477929],"rotation":[0.0,0.0,0.0,1.0],"scale":[1.0,1.0,1.0],"name":"marker_002"},{"mesh":2,"translation":[-17.5437717,0.104615688,5.0371027],"rotation":[0.0,0.0,0.0,1.0],"scale":[1.0,1.0,1.0],"name":"marker_003"},{"children":[4,6,8,10,12,14,16,18,20,22,24,26,28,30,32,34,36,38,40,42,44,46],"translation":[-8.068158E-06,0.0,5.96046448E-07],"rotation":[-1.04216071E-14,1.1920929E-07,-8.742278E-08,1.0],"scale":[2.54,2.54,2.54],"name":"LWS3.IGS"},{"children":[5],"translation":[-8.129923,11.1181211,-6.2992115],"rotation":[0.0,0.0,-7.10542736E-15,1.0],"scale":[1.0,1.0,1.0],"name":"75"},{"mesh":3,"translation":[0.0,0.0,0.0],"rotation":[0.0,0.0,-7.10542736E-15,1.0],"scale":[1.0,1.0,1.0],"name":"stitch_result_stitch all"},{"children":[7],"translation":[-1.94395375E-06,21.8267822,6.062993],"rotation":[0.0,0.0,-7.10542736E-15,1.0],"scale":[1.0,1.0,1.0],"name":"77"},{"mesh":4,"translation":[0.0,0.0,0.0],"rotation":[0.0,0.0,-7.10542736E-15,1.0],"scale":[1.0,1.0,1.0],"name":"stitch_result_stitch all (1)"},{"children":[9],"translation":[8.366139,21.8267841,6.062993],"rotation":[0.0,0.0,-7.10542736E-15,1.0],"scale":[1.0,1.0,1.0],"name":"79"},{"mesh":5,"translation":[0.0,0.0,0.0],"rotation":[0.0,0.0,-7.10542736E-15,1.0],"scale":[1.0,1.0,1.0],"name":"stitch_result_stitch all (2)"},{"children":[11],"translation":[8.36614,21.8267841,-6.73228359],"rotation":[0.0,0.0,-7.10542736E-15,1.0],"scale":[1.0,1.0,1.0],"name":"81"},{"mesh":6,"translation":[0.0,0.0,0.0],"rotation":[0.0,0.0,-7.10542736E-15,1.0],"scale":[1.0,1.0,1.0],"name":"stitch_result_stitch all (3)"},{"children":[13],"translation":[-1.94395375E-06,21.8267822,-6.732283],"rotation":[0.0,0.0,-7.10542736E-15,1.0],"scale":[1.0,1.0,1.0],"name":"82"},{"mesh":7,"translation":[0.0,0.0,0.0],"rotation":[0.0,0.0,-7.10542736E-15,1.0],"scale":[1.0,1.0,1.0],"name":"stitch_result_stitch all (4)"},{"children":[15],"translation":[8.366139,21.8267841,-0.334645033],"rotation":[0.0,0.0,-0.7071067,0.7071068],"scale":[1.0,1.0,1.0],"name":"84"},{"mesh":8,"translation":[0.0,0.0,0.0],"rotation":[0.0,0.0,8.881784E-16,1.0],"scale":[1.0,1.0,1.0],"name":"stitch_result_stitch all (5)"},{"children":[17],"translation":[-8.366144,21.8267822,-0.334645033],"rotation":[0.0,0.0,-0.7071067,0.7071068],"scale":[1.0,1.0,1.0],"name":"85"},{"mesh":9,"translation":[0.0,0.0,0.0],"rotation":[0.0,0.0,8.881784E-16,1.0],"scale":[1.0,1.0,1.0],"name":"stitch_result_stitch all (6)"},{"children":[19],"translation":[-8.366144,21.8267822,6.062993],"rotation":[-1.62920685E-07,-1.62920685E-07,1.0,-2.13162821E-14],"scale":[1.0,1.0,1.0],"name":"86"},{"mesh":10,"translation":[0.0,0.0,0.0],"rotation":[7.10542736E-15,3.552717E-15,0.0,1.0],"scale":[1.0,1.0,1.0],"name":"stitch_result_stitch all (7)"},{"children":[21],"translation":[-8.366143,21.8267822,-6.73228264],"rotation":[-1.62920685E-07,-1.62920685E-07,1.0,-2.13162821E-14],"scale":[1.0,1.0,1.0],"name":"87"},{"mesh":11,"translation":[0.0,0.0,0.0],"rotation":[7.10542736E-15,3.552717E-15,0.0,1.0],"scale":[1.0,1.0,1.0],"name":"stitch_result_stitch all (8)"},{"children":[23],"translation":[-1.9439542E-06,0.409459144,6.062993],"rotation":[0.0,0.0,-7.10542736E-15,1.0],"scale":[1.0,1.0,1.0],"name":"88"},{"mesh":12,"translation":[0.0,0.0,0.0],"rotation":[0.0,0.0,-7.10542736E-15,1.0],"scale":[1.0,1.0,1.0],"name":"stitch_result_stitch all (9)"},{"children":[25],"translation":[8.366139,0.409459144,6.062993],"rotation":[0.0,0.0,-7.10542736E-15,1.0],"scale":[1.0,1.0,1.0],"name":"89"},{"mesh":13,"translation":[0.0,0.0,0.0],"rotation":[0.0,0.0,-7.10542736E-15,1.0],"scale":[1.0,1.0,1.0],"name":"stitch_result_stitch all (10)"},{"children":[27],"translation":[8.36614,0.409459144,-6.73228359],"rotation":[0.0,0.0,-7.10542736E-15,1.0],"scale":[1.0,1.0,1.0],"name":"90"},{"mesh":14,"translation":[0.0,0.0,0.0],"rotation":[0.0,0.0,-7.10542736E-15,1.0],"scale":[1.0,1.0,1.0],"name":"stitch_result_stitch all (11)"},{"children":[29],"translation":[-1.9439542E-06,0.409459144,-6.732283],"rotation":[0.0,0.0,-7.10542736E-15,1.0],"scale":[1.0,1.0,1.0],"name":"91"},{"mesh":15,"translation":[0.0,0.0,0.0],"rotation":[0.0,0.0,-7.10542736E-15,1.0],"scale":[1.0,1.0,1.0],"name":"stitch_result_stitch all (12)"},{"children":[31],"translation":[8.366139,0.409459144,-0.334645033],"rotation":[0.0,0.0,-0.7071067,0.7071068],"scale":[1.0,1.0,1.0],"name":"92"},{"mesh":16,"translation":[0.0,0.0,0.0],"rotation":[0.0,0.0,8.881784E-16,1.0],"scale":[1.0,1.0,1.0],"name":"stitch_result_stitch all (13)"},{"children":[33],"translation":[-8.366144,0.409459144,-0.334645033],"rotation":[0.0,0.0,-0.7071067,0.7071068],"scale":[1.0,1.0,1.0],"name":"93"},{"mesh":17,"translation":[0.0,0.0,0.0],"rotation":[0.0,0.0,8.881784E-16,1.0],"scale":[1.0,1.0,1.0],"name":"stitch_result_stitch all (14)"},{"children":[35],"translation":[-8.366144,0.409459144,6.062993],"rotation":[-1.62920685E-07,-1.62920685E-07,1.0,-2.13162821E-14],"scale":[1.0,1.0,1.0],"name":"94"},{"mesh":18,"translation":[0.0,0.0,0.0],"rotation":[7.10542736E-15,3.552717E-15,0.0,1.0],"scale":[1.0,1.0,1.0],"name":"stitch_result_stitch all (15)"},{"children":[37],"translation":[-8.366143,0.409459144,-6.73228264],"rotation":[-1.62920685E-07,-1.62920685E-07,1.0,-2.13162821E-14],"scale":[1.0,1.0,1.0],"name":"95"},{"mesh":19,"translation":[0.0,0.0,0.0],"rotation":[7.10542736E-15,3.552717E-15,0.0,1.0],"scale":[1.0,1.0,1.0],"name":"stitch_result_stitch all (16)"},{"children":[39],"translation":[8.12992,11.11812,-6.299212],"rotation":[-7.10542736E-15,-1.0,1.69406589E-21,-1.62920685E-07],"scale":[1.0,1.0,1.0],"name":"96"},{"mesh":20,"translation":[0.0,0.0,0.0],"rotation":[0.0,-3.55271368E-15,7.10542736E-15,1.0],"scale":[1.0,1.0,1.0],"name":"stitch_result_stitch all (17)"},{"children":[41],"translation":[-8.129923,11.1181211,-2.16535378],"rotation":[0.0,0.0,-7.10542736E-15,1.0],"scale":[1.0,1.0,1.0],"name":"97"},{"mesh":21,"translation":[0.0,0.0,0.0],"rotation":[0.0,0.0,-7.10542736E-15,1.0],"scale":[1.0,1.0,1.0],"name":"stitch_result_stitch all (18)"},{"children":[43],"translation":[-8.129922,11.1181211,1.96850514],"rotation":[0.0,0.0,-7.10542736E-15,1.0],"scale":[1.0,1.0,1.0],"name":"98"},{"mesh":22,"translation":[0.0,0.0,0.0],"rotation":[0.0,0.0,-7.10542736E-15,1.0],"scale":[1.0,1.0,1.0],"name":"stitch_result_stitch all (19)"},{"children":[45],"translation":[8.12992,11.11812,-2.16535378],"rotation":[-7.10542736E-15,-1.0,1.69406589E-21,-1.62920685E-07],"scale":[1.0,1.0,1.0],"name":"99"},{"mesh":23,"translation":[0.0,0.0,0.0],"rotation":[0.0,-3.55271368E-15,7.10542736E-15,1.0],"scale":[1.0,1.0,1.0],"name":"stitch_result_stitch all (20)"},{"children":[47],"translation":[8.12992,11.11812,1.96850514],"rotation":[-7.10542736E-15,-1.0,1.69406589E-21,-1.62920685E-07],"scale":[1.0,1.0,1.0],"name":"100"},{"mesh":24,"translation":[0.0,0.0,0.0],"rotation":[0.0,-3.55271368E-15,7.10542736E-15,1.0],"scale":[1.0,1.0,1.0],"name":"stitch_result_stitch all (21)"},{"translation":[0.0,0.0,0.0],"rotation":[0.0,0.0,0.0,1.0],"scale":[1.0,1.0,1.0],"name":"Default light"}],"meshes":[{"primitives":[{"attributes":{"POSITION":1,"NORMAL":2,"TEXCOORD_0":3},"indices":0}],"name":"marker_"},{"primitives":[{"attributes":{"POSITION":5,"NORMAL":6,"TEXCOORD_0":7},"indices":4}],"name":"marker_002"},{"primitives":[{"attributes":{"POSITION":9,"NORMAL":10,"TEXCOORD_0":11},"indices":8}],"name":"marker_003"},{"primitives":[{"attributes":{"POSITION":13,"NORMAL":14,"TEXCOORD_0":15},"indices":12,"mode":4,"material":0}],"name":"stitch_result_stitch all"},{"primitives":[{"attributes":{"POSITION":17,"NORMAL":18,"TEXCOORD_0":19},"indices":16,"mode":4,"material":0}],"name":"stitch_result_stitch all"},{"primitives":[{"attributes":{"POSITION":21,"NORMAL":22,"TEXCOORD_0":23},"indices":20,"mode":4,"material":0}],"name":"stitch_result_stitch all"},{"primitives":[{"attributes":{"POSITION":25,"NORMAL":26,"TEXCOORD_0":27},"indices":24,"mode":4,"material":0}],"name":"stitch_result_stitch all"},{"primitives":[{"attributes":{"POSITION":29,"NORMAL":30,"TEXCOORD_0":31},"indices":28,"mode":4,"material":0}],"name":"stitch_result_stitch all"},{"primitives":[{"attributes":{"POSITION":33,"NORMAL":34,"TEXCOORD_0":35},"indices":32,"mode":4,"material":0}],"name":"stitch_result_stitch all"},{"primitives":[{"attributes":{"POSITION":37,"NORMAL":38,"TEXCOORD_0":39},"indices":36,"mode":4,"material":0}],"name":"stitch_result_stitch all"},{"primitives":[{"attributes":{"POSITION":41,"NORMAL":42,"TEXCOORD_0":43},"indices":40,"mode":4,"material":0}],"name":"stitch_result_stitch all"},{"primitives":[{"attributes":{"POSITION":45,"NORMAL":46,"TEXCOORD_0":47},"indices":44,"mode":4,"material":0}],"name":"stitch_result_stitch all"},{"primitives":[{"attributes":{"POSITION":49,"NORMAL":50,"TEXCOORD_0":51},"indices":48,"mode":4,"material":0}],"name":"stitch_result_stitch all"},{"primitives":[{"attributes":{"POSITION":53,"NORMAL":54,"TEXCOORD_0":55},"indices":52,"mode":4,"material":0}],"name":"stitch_result_stitch all"},{"primitives":[{"attributes":{"POSITION":57,"NORMAL":58,"TEXCOORD_0":59},"indices":56,"mode":4,"material":0}],"name":"stitch_result_stitch all"},{"primitives":[{"attributes":{"POSITION":61,"NORMAL":62,"TEXCOORD_0":63},"indices":60,"mode":4,"material":0}],"name":"stitch_result_stitch all"},{"primitives":[{"attributes":{"POSITION":65,"NORMAL":66,"TEXCOORD_0":67},"indices":64,"mode":4,"material":0}],"name":"stitch_result_stitch all"},{"primitives":[{"attributes":{"POSITION":69,"NORMAL":70,"TEXCOORD_0":71},"indices":68,"mode":4,"material":0}],"name":"stitch_result_stitch all"},{"primitives":[{"attributes":{"POSITION":73,"NORMAL":74,"TEXCOORD_0":75},"indices":72,"mode":4,"material":0}],"name":"stitch_result_stitch all"},{"primitives":[{"attributes":{"POSITION":77,"NORMAL":78,"TEXCOORD_0":79},"indices":76,"mode":4,"material":0}],"name":"stitch_result_stitch all"},{"primitives":[{"attributes":{"POSITION":81,"NORMAL":82,"TEXCOORD_0":83},"indices":80,"mode":4,"material":0}],"name":"stitch_result_stitch all"},{"primitives":[{"attributes":{"POSITION":85,"NORMAL":86,"TEXCOORD_0":87},"indices":84,"mode":4,"material":0}],"name":"stitch_result_stitch all"},{"primitives":[{"attributes":{"POSITION":89,"NORMAL":90,"TEXCOORD_0":91},"indices":88,"mode":4,"material":0}],"name":"stitch_result_stitch all"},{"primitives":[{"attributes":{"POSITION":93,"NORMAL":94,"TEXCOORD_0":95},"indices":92,"mode":4,"material":0}],"name":"stitch_result_stitch all"},{"primitives":[{"attributes":{"POSITION":97,"NORMAL":98,"TEXCOORD_0":99},"indices":96,"mode":4,"material":0}],"name":"stitch_result_stitch all"}],"accessors":[{"bufferView":0,"componentType":5123,"count":36,"type":"SCALAR","name":"accessorIndices"},{"bufferView":1,"componentType":5126,"count":36,"max":[2.56002331,1.04728317,0.0581827164],"min":[-2.56002235,0.0,-0.0581827164],"type":"VEC3","name":"accessorPositions"},{"bufferView":1,"byteOffset":432,"componentType":5126,"count":36,"type":"VEC3","name":"accessorNormals"},{"bufferView":2,"componentType":5126,"count":36,"type":"VEC2","name":"accessorUVs"},{"bufferView":0,"byteOffset":72,"componentType":5123,"count":36,"type":"SCALAR","name":"accessorIndices"},{"bufferView":1,"byteOffset":864,"componentType":5126,"count":36,"max":[2.56002331,1.04728317,0.0581827164],"min":[-2.56002235,0.0,-0.0581827164],"type":"VEC3","name":"accessorPositions"},{"bufferView":1,"byteOffset":1296,"componentType":5126,"count":36,"type":"VEC3","name":"accessorNormals"},{"bufferView":2,"byteOffset":288,"componentType":5126,"count":36,"type":"VEC2","name":"accessorUVs"},{"bufferView":0,"byteOffset":144,"componentType":5123,"count":36,"type":"SCALAR","name":"accessorIndices"},{"bufferView":1,"byteOffset":1728,"componentType":5126,"count":36,"max":[2.56002331,1.04728317,0.0581827164],"min":[-2.56002235,0.0,-0.0581827164],"type":"VEC3","name":"accessorPositions"},{"bufferView":1,"byteOffset":2160,"componentType":5126,"count":36,"type":"VEC3","name":"accessorNormals"},{"bufferView":2,"byteOffset":576,"componentType":5126,"count":36,"type":"VEC2","name":"accessorUVs"},{"bufferView":0,"byteOffset":216,"componentType":5123,"count":2628,"type":"SCALAR","name":"accessorIndices"},{"bufferView":1,"byteOffset":2592,"componentType":5126,"count":2628,"max":[0.354331017,11.0433054,0.216535568],"min":[-0.0394058228,-11.1023636,-0.216537952],"type":"VEC3","name":"accessorPositions"},{"bufferView":1,"byteOffset":34128,"componentType":5126,"count":2628,"type":"VEC3","name":"accessorNormals"},{"bufferView":2,"byteOffset":864,"componentType":5126,"count":2628,"type":"VEC2","name":"accessorUVs"},{"bufferView":0,"byteOffset":5472,"componentType":5123,"count":420,"type":"SCALAR","name":"accessorIndices"},{"bufferView":1,"byteOffset":65664,"componentType":5126,"count":420,"max":[8.1692915,0.393701553,0.1968503],"min":[-8.169292,-0.393701553,-0.1968503],"type":"VEC3","name":"accessorPositions"},{"bufferView":1,"byteOffset":70704,"componentType":5126,"count":420,"type":"VEC3","name":"accessorNormals"},{"bufferView":2,"byteOffset":21888,"componentType":5126,"count":420,"type":"VEC2","name":"accessorUVs"},{"bufferView":0,"byteOffset":6312,"componentType":5123,"count":84,"type":"SCALAR","name":"accessorIndices"},{"bufferView":1,"byteOffset":75744,"componentType":5126,"count":84,"max":[0.19685173,0.393699646,0.8661418],"min":[-0.196850777,-0.393701553,-0.1968503],"type":"VEC3","name":"accessorPositions"},{"bufferView":1,"byteOffset":76752,"componentType":5126,"count":84,"type":"VEC3","name":"accessorNormals"},{"bufferView":2,"byteOffset":25248,"componentType":5126,"count":84,"type":"VEC2","name":"accessorUVs"},{"bufferView":0,"byteOffset":6480,"componentType":5123,"count":36,"type":"SCALAR","name":"accessorIndices"},{"bufferView":1,"byteOffset":77760,"componentType":5126,"count":36,"max":[0.196849823,0.393699646,0.1968503],"min":[-0.196850777,-0.393701553,-0.1968503],"type":"VEC3","name":"accessorPositions"},{"bufferView":1,"byteOffset":78192,"componentType":5126,"count":36,"type":"VEC3","name":"accessorNormals"},{"bufferView":2,"byteOffset":25920,"componentType":5126,"count":36,"type":"VEC2","name":"accessorUVs"},{"bufferView":0,"byteOffset":6552,"componentType":5123,"count":420,"type":"SCALAR","name":"accessorIndices"},{"bufferView":1,"byteOffset":78624,"componentType":5126,"count":420,"max":[8.1692915,0.393701553,0.196850777],"min":[-8.1692915,-0.393701553,-0.196850777],"type":"VEC3","name":"accessorPositions"},{"bufferView":1,"byteOffset":83664,"componentType":5126,"count":420,"type":"VEC3","name":"accessorNormals"},{"bufferView":2,"byteOffset":26208,"componentType":5126,"count":420,"type":"VEC2","name":"accessorUVs"},{"bufferView":0,"byteOffset":7392,"componentType":5123,"count":420,"type":"SCALAR","name":"accessorIndices"},{"bufferView":1,"byteOffset":88704,"componentType":5126,"count":420,"max":[0.393701553,0.19685173,6.20078754],"min":[-0.393699646,-0.196849823,-6.20078754],"type":"VEC3","name":"accessorPositions"},{"bufferView":1,"byteOffset":93744,"componentType":5126,"count":420,"type":"VEC3","name":"accessorNormals"},{"bufferView":2,"byteOffset":29568,"componentType":5126,"count":420,"type":"VEC2","name":"accessorUVs"},{"bufferView":0,"byteOffset":8232,"componentType":5123,"count":420,"type":"SCALAR","name":"accessorIndices"},{"bufferView":1,"byteOffset":98784,"componentType":5126,"count":420,"max":[0.393701553,0.196850777,6.200788],"min":[-0.393701553,-0.196849823,-6.20078754],"type":"VEC3","name":"accessorPositions"},{"bufferView":1,"byteOffset":103824,"componentType":5126,"count":420,"type":"VEC3","name":"accessorNormals"},{"bufferView":2,"byteOffset":32928,"componentType":5126,"count":420,"type":"VEC2","name":"accessorUVs"},{"bufferView":0,"byteOffset":9072,"componentType":5123,"count":84,"type":"SCALAR","name":"accessorIndices"},{"bufferView":1,"byteOffset":108864,"componentType":5126,"count":84,"max":[0.196850777,0.393701553,0.8661418],"min":[-0.196849823,-0.393701553,-0.196850777],"type":"VEC3","name":"accessorPositions"},{"bufferView":1,"byteOffset":109872,"componentType":5126,"count":84,"type":"VEC3","name":"accessorNormals"},{"bufferView":2,"byteOffset":36288,"componentType":5126,"count":84,"type":"VEC2","name":"accessorUVs"},{"bufferView":0,"byteOffset":9240,"componentType":5123,"count":36,"type":"SCALAR","name":"accessorIndices"},{"bufferView":1,"byteOffset":110880,"componentType":5126,"count":36,"max":[0.196850777,0.393701553,0.1968503],"min":[-0.196849823,-0.393701553,-0.196851254],"type":"VEC3","name":"accessorPositions"},{"bufferView":1,"byteOffset":111312,"componentType":5126,"count":36,"type":"VEC3","name":"accessorNormals"},{"bufferView":2,"byteOffset":36960,"componentType":5126,"count":36,"type":"VEC2","name":"accessorUVs"},{"bufferView":0,"byteOffset":9312,"componentType":5123,"count":420,"type":"SCALAR","name":"accessorIndices"},{"bufferView":1,"byteOffset":111744,"componentType":5126,"count":420,"max":[8.1692915,0.3937008,0.1968503],"min":[-8.169292,-0.393700778,-0.1968503],"type":"VEC3","name":"accessorPositions"},{"bufferView":1,"byteOffset":116784,"componentType":5126,"count":420,"type":"VEC3","name":"accessorNormals"},{"bufferView":2,"byteOffset":37248,"componentType":5126,"count":420,"type":"VEC2","name":"accessorUVs"},{"bufferView":0,"byteOffset":10152,"componentType":5123,"count":84,"type":"SCALAR","name":"accessorIndices"},{"bufferView":1,"byteOffset":121824,"componentType":5126,"count":84,"max":[0.19685173,0.3937008,0.8661418],"min":[-0.196850777,-0.393700778,-0.1968503],"type":"VEC3","name":"accessorPositions"},{"bufferView":1,"byteOffset":122832,"componentType":5126,"count":84,"type":"VEC3","name":"accessorNormals"},{"bufferView":2,"byteOffset":40608,"componentType":5126,"count":84,"type":"VEC2","name":"accessorUVs"},{"bufferView":0,"byteOffset":10320,"componentType":5123,"count":36,"type":"SCALAR","name":"accessorIndices"},{"bufferView":1,"byteOffset":123840,"componentType":5126,"count":36,"max":[0.196849823,0.3937008,0.1968503],"min":[-0.196850777,-0.393700778,-0.1968503],"type":"VEC3","name":"accessorPositions"},{"bufferView":1,"byteOffset":124272,"componentType":5126,"count":36,"type":"VEC3","name":"accessorNormals"},{"bufferView":2,"byteOffset":41280,"componentType":5126,"count":36,"type":"VEC2","name":"accessorUVs"},{"bufferView":0,"byteOffset":10392,"componentType":5123,"count":420,"type":"SCALAR","name":"accessorIndices"},{"bufferView":1,"byteOffset":124704,"componentType":5126,"count":420,"max":[8.1692915,0.3937008,0.196850777],"min":[-8.1692915,-0.393700778,-0.196850777],"type":"VEC3","name":"accessorPositions"},{"bufferView":1,"byteOffset":129744,"componentType":5126,"count":420,"type":"VEC3","name":"accessorNormals"},{"bufferView":2,"byteOffset":41568,"componentType":5126,"count":420,"type":"VEC2","name":"accessorUVs"},{"bufferView":0,"byteOffset":11232,"componentType":5123,"count":420,"type":"SCALAR","name":"accessorIndices"},{"bufferView":1,"byteOffset":134784,"componentType":5126,"count":420,"max":[0.393700778,0.19685173,6.20078754],"min":[-0.393700778,-0.196849823,-6.20078754],"type":"VEC3","name":"accessorPositions"},{"bufferView":1,"byteOffset":139824,"componentType":5126,"count":420,"type":"VEC3","name":"accessorNormals"},{"bufferView":2,"byteOffset":44928,"componentType":5126,"count":420,"type":"VEC2","name":"accessorUVs"},{"bufferView":0,"byteOffset":12072,"componentType":5123,"count":420,"type":"SCALAR","name":"accessorIndices"},{"bufferView":1,"byteOffset":144864,"componentType":5126,"count":420,"max":[0.3937008,0.19685173,6.200788],"min":[-0.393700778,-0.196849823,-6.20078754],"type":"VEC3","name":"accessorPositions"},{"bufferView":1,"byteOffset":149904,"componentType":5126,"count":420,"type":"VEC3","name":"accessorNormals"},{"bufferView":2,"byteOffset":48288,"componentType":5126,"count":420,"type":"VEC2","name":"accessorUVs"},{"bufferView":0,"byteOffset":12912,"componentType":5123,"count":84,"type":"SCALAR","name":"accessorIndices"},{"bufferView":1,"byteOffset":154944,"componentType":5126,"count":84,"max":[0.196850777,0.3937008,0.8661423],"min":[-0.196850777,-0.3937008,-0.1968503],"type":"VEC3","name":"accessorPositions"},{"bufferView":1,"byteOffset":155952,"componentType":5126,"count":84,"type":"VEC3","name":"accessorNormals"},{"bufferView":2,"byteOffset":51648,"componentType":5126,"count":84,"type":"VEC2","name":"accessorUVs"},{"bufferView":0,"byteOffset":13080,"componentType":5123,"count":36,"type":"SCALAR","name":"accessorIndices"},{"bufferView":1,"byteOffset":156960,"componentType":5126,"count":36,"max":[0.196850777,0.393700778,0.196850777],"min":[-0.196849823,-0.3937008,-0.196850777],"type":"VEC3","name":"accessorPositions"},{"bufferView":1,"byteOffset":157392,"componentType":5126,"count":36,"type":"VEC3","name":"accessorNormals"},{"bufferView":2,"byteOffset":52320,"componentType":5126,"count":36,"type":"VEC2","name":"accessorUVs"},{"bufferView":0,"byteOffset":13152,"componentType":5123,"count":2628,"type":"SCALAR","name":"accessorIndices"},{"bufferView":1,"byteOffset":157824,"componentType":5126,"count":2628,"max":[0.35433054,11.0433083,0.216535091],"min":[-0.0394067764,-11.1023626,-0.216537952],"type":"VEC3","name":"accessorPositions"},{"bufferView":1,"byteOffset":189360,"componentType":5126,"count":2628,"type":"VEC3","name":"accessorNormals"},{"bufferView":2,"byteOffset":52608,"componentType":5126,"count":2628,"type":"VEC2","name":"accessorUVs"},{"bufferView":0,"byteOffset":18408,"componentType":5123,"count":2628,"type":"SCALAR","name":"accessorIndices"},{"bufferView":1,"byteOffset":220896,"componentType":5126,"count":2628,"max":[0.35433054,11.0433054,0.216535568],"min":[-0.0394067764,-11.1023636,-0.216537714],"type":"VEC3","name":"accessorPositions"},{"bufferView":1,"byteOffset":252432,"componentType":5126,"count":2628,"type":"VEC3","name":"accessorNormals"},{"bufferView":2,"byteOffset":73632,"componentType":5126,"count":2628,"type":"VEC2","name":"accessorUVs"},{"bufferView":0,"byteOffset":23664,"componentType":5123,"count":2628,"type":"SCALAR","name":"accessorIndices"},{"bufferView":1,"byteOffset":283968,"componentType":5126,"count":2628,"max":[0.35433054,11.0433054,0.216535568],"min":[-0.0394067764,-11.1023636,-0.216537833],"type":"VEC3","name":"accessorPositions"},{"bufferView":1,"byteOffset":315504,"componentType":5126,"count":2628,"type":"VEC3","name":"accessorNormals"},{"bufferView":2,"byteOffset":94656,"componentType":5126,"count":2628,"type":"VEC2","name":"accessorUVs"},{"bufferView":0,"byteOffset":28920,"componentType":5123,"count":2628,"type":"SCALAR","name":"accessorIndices"},{"bufferView":1,"byteOffset":347040,"componentType":5126,"count":2628,"max":[0.3543315,11.0433083,0.216535568],"min":[-0.0394067764,-11.1023626,-0.216537833],"type":"VEC3","name":"accessorPositions"},{"bufferView":1,"byteOffset":378576,"componentType":5126,"count":2628,"type":"VEC3","name":"accessorNormals"},{"bufferView":2,"byteOffset":115680,"componentType":5126,"count":2628,"type":"VEC2","name":"accessorUVs"},{"bufferView":0,"byteOffset":34176,"componentType":5123,"count":2628,"type":"SCALAR","name":"accessorIndices"},{"bufferView":1,"byteOffset":410112,"componentType":5126,"count":2628,"max":[0.35433054,11.0433083,0.216535568],"min":[-0.0394067764,-11.1023626,-0.216537714],"type":"VEC3","name":"accessorPositions"},{"bufferView":1,"byteOffset":441648,"componentType":5126,"count":2628,"type":"VEC3","name":"accessorNormals"},{"bufferView":2,"byteOffset":136704,"componentType":5126,"count":2628,"type":"VEC2","name":"accessorUVs"}],"bufferViews":[{"buffer":0,"byteLength":39432,"name":"bufferViewScalar"},{"buffer":0,"byteOffset":39432,"byteLength":473184,"byteStride":12,"name":"bufferViewFloatVec3"},{"buffer":0,"byteOffset":512616,"byteLength":157728,"byteStride":8,"name":"bufferViewFloatVec2"}],"buffers":[{"uri":"LWS3FWH.bin","byteLength":670344}],"materials":[{"pbrMetallicRoughness":{"baseColorFactor":[0.404411823,0.404411823,0.404411823,1.0],"metallicFactor":0.0,"roughnessFactor":0.9},"emissiveFactor":[0.0,0.0,0.0],"alphaMode":"OPAQUE","name":"m_base0"}]}