{"asset":{"version":"2.0","generator":"babylon.js glTF exporter for 3ds max 2015 v1.3.33"},"scene":0,"scenes":[{"nodes":[0,1,2,3],"extensions":{}}],"nodes":[{"mesh":0,"translation":[0.0,0.0,0.0],"rotation":[0.0,0.0,0.7071068,0.7071068],"scale":[0.099999994,0.099999994,0.099999994],"name":"Корзинка полка 300"},{"mesh":1,"translation":[12.1818542,15.3399754,4.94309473],"rotation":[-0.5000001,-0.50000006,0.49999997,0.49999997],"scale":[0.350947827,0.630207658,0.385708],"name":"markerObj_tit10"},{"mesh":2,"translation":[-11.9825134,15.3399754,4.94309473],"rotation":[-0.5000001,-0.50000006,0.49999997,0.49999997],"scale":[0.350947827,0.630207658,0.385708],"name":"markerObj_tit10 (1)"},{"translation":[0.0,0.0,0.0],"rotation":[0.0,0.0,0.0,1.0],"scale":[1.0,1.0,1.0],"name":"Default light"}],"meshes":[{"primitives":[{"attributes":{"POSITION":1,"NORMAL":2,"TEXCOORD_0":3},"indices":0,"mode":4,"material":0}],"name":"Корзинка полка 300"},{"primitives":[{"attributes":{"POSITION":5,"NORMAL":6,"TEXCOORD_0":7},"indices":4}],"name":"markerObj_tit10"},{"primitives":[{"attributes":{"POSITION":9,"NORMAL":10,"TEXCOORD_0":11},"indices":8}],"name":"markerObj_tit10"}],"accessors":[{"bufferView":0,"componentType":5123,"count":27708,"type":"SCALAR","name":"accessorIndices"},{"bufferView":1,"componentType":5126,"count":27708,"max":[306.0,300.969849,58.9674034],"min":[-1.31120987E-05,-300.969849,-58.9674034],"type":"VEC3","name":"accessorPositions"},{"bufferView":1,"byteOffset":332496,"componentType":5126,"count":27708,"type":"VEC3","name":"accessorNormals"},{"bufferView":2,"componentType":5126,"count":27708,"type":"VEC2","name":"accessorUVs"},{"bufferView":0,"byteOffset":55416,"componentType":5123,"count":96,"type":"SCALAR","name":"accessorIndices"},{"bufferView":1,"byteOffset":664992,"componentType":5126,"count":96,"max":[3.73376465,4.22077942,3.409092],"min":[-3.73376465,-4.76837158E-07,-3.409092],"type":"VEC3","name":"accessorPositions"},{"bufferView":1,"byteOffset":666144,"componentType":5126,"count":96,"type":"VEC3","name":"accessorNormals"},{"bufferView":2,"byteOffset":221664,"componentType":5126,"count":96,"type":"VEC2","name":"accessorUVs"},{"bufferView":0,"byteOffset":55608,"componentType":5123,"count":96,"type":"SCALAR","name":"accessorIndices"},{"bufferView":1,"byteOffset":667296,"componentType":5126,"count":96,"max":[3.73376465,4.22077942,3.409092],"min":[-3.73376465,-4.76837158E-07,-3.40909],"type":"VEC3","name":"accessorPositions"},{"bufferView":1,"byteOffset":668448,"componentType":5126,"count":96,"type":"VEC3","name":"accessorNormals"},{"bufferView":2,"byteOffset":222432,"componentType":5126,"count":96,"type":"VEC2","name":"accessorUVs"}],"bufferViews":[{"buffer":0,"byteLength":55800,"name":"bufferViewScalar"},{"buffer":0,"byteOffset":55800,"byteLength":669600,"byteStride":12,"name":"bufferViewFloatVec3"},{"buffer":0,"byteOffset":725400,"byteLength":223200,"byteStride":8,"name":"bufferViewFloatVec2"}],"buffers":[{"uri":"L9547_mWH.bin","byteLength":948600}],"materials":[{"pbrMetallicRoughness":{"baseColorFactor":[0.6125001,0.6125001,0.6125001,1.0],"metallicFactor":0.0,"roughnessFactor":0.9},"emissiveFactor":[0.0,0.0,0.0],"alphaMode":"OPAQUE","name":"m_base0"}]}