{"asset":{"version":"2.0","generator":"babylon.js glTF exporter for 3ds max 2015 v1.3.33"},"scene":0,"scenes":[{"nodes":[0,1,2,3,4],"extensions":{}}],"nodes":[{"mesh":0,"translation":[0.803688049,19.3044071,5.23397446],"rotation":[-0.50000006,-0.5,0.5,0.49999994],"scale":[0.350947827,0.630207658,0.385708],"name":"markerObj_tit9"},{"mesh":1,"translation":[-24.511013,19.3044071,5.23397446],"rotation":[-0.50000006,-0.5,0.5,0.49999994],"scale":[0.350947827,0.630207658,0.385708],"name":"markerObj_tit9 (1)"},{"mesh":2,"translation":[22.460371,19.3044071,5.23397446],"rotation":[-0.50000006,-0.5,0.5,0.49999994],"scale":[0.350947827,0.630207658,0.385708],"name":"markerObj_tit9 (2)"},{"mesh":3,"translation":[0.0,0.0,0.0],"rotation":[1.10986235E-07,-1.10986235E-07,0.7071068,0.7071068],"scale":[0.099999994,0.09809999,0.099999994],"name":"kor"},{"translation":[0.0,0.0,0.0],"rotation":[0.0,0.0,0.0,1.0],"scale":[1.0,1.0,1.0],"name":"Default light"}],"meshes":[{"primitives":[{"attributes":{"POSITION":1,"NORMAL":2,"TEXCOORD_0":3},"indices":0}],"name":"markerObj_tit9"},{"primitives":[{"attributes":{"POSITION":5,"NORMAL":6,"TEXCOORD_0":7},"indices":4}],"name":"markerObj_tit9"},{"primitives":[{"attributes":{"POSITION":9,"NORMAL":10,"TEXCOORD_0":11},"indices":8}],"name":"markerObj_tit9"},{"primitives":[{"attributes":{"POSITION":13,"NORMAL":14},"indices":12,"mode":4,"material":0}],"name":"kor"}],"accessors":[{"bufferView":0,"componentType":5123,"count":96,"type":"SCALAR","name":"accessorIndices"},{"bufferView":1,"componentType":5126,"count":96,"max":[3.73376846,4.22077942,3.409091],"min":[-3.73376465,0.0,-3.40909171],"type":"VEC3","name":"accessorPositions"},{"bufferView":1,"byteOffset":1152,"componentType":5126,"count":96,"type":"VEC3","name":"accessorNormals"},{"bufferView":2,"componentType":5126,"count":96,"type":"VEC2","name":"accessorUVs"},{"bufferView":0,"byteOffset":192,"componentType":5123,"count":96,"type":"SCALAR","name":"accessorIndices"},{"bufferView":1,"byteOffset":2304,"componentType":5126,"count":96,"max":[3.73376846,4.22077942,3.40909576],"min":[-3.73376465,0.0,-3.40908813],"type":"VEC3","name":"accessorPositions"},{"bufferView":1,"byteOffset":3456,"componentType":5126,"count":96,"type":"VEC3","name":"accessorNormals"},{"bufferView":2,"byteOffset":768,"componentType":5126,"count":96,"type":"VEC2","name":"accessorUVs"},{"bufferView":0,"byteOffset":384,"componentType":5123,"count":96,"type":"SCALAR","name":"accessorIndices"},{"bufferView":1,"byteOffset":4608,"componentType":5126,"count":96,"max":[3.73376846,4.22077942,3.409092],"min":[-3.73376465,-9.536743E-07,-3.409092],"type":"VEC3","name":"accessorPositions"},{"bufferView":1,"byteOffset":5760,"componentType":5126,"count":96,"type":"VEC3","name":"accessorNormals"},{"bufferView":2,"byteOffset":1536,"componentType":5126,"count":96,"type":"VEC2","name":"accessorUVs"},{"bufferView":0,"byteOffset":576,"componentType":5123,"count":33030,"type":"SCALAR","name":"accessorIndices"},{"bufferView":1,"byteOffset":6912,"componentType":5126,"count":33030,"max":[405.989227,458.4763,58.9656677],"min":[-1.6943266E-05,-458.5328,-58.96563],"type":"VEC3","name":"accessorPositions"},{"bufferView":1,"byteOffset":403272,"componentType":5126,"count":33030,"type":"VEC3","name":"accessorNormals"}],"bufferViews":[{"buffer":0,"byteLength":66636,"name":"bufferViewScalar"},{"buffer":0,"byteOffset":66636,"byteLength":799632,"byteStride":12,"name":"bufferViewFloatVec3"},{"buffer":0,"byteOffset":866268,"byteLength":2304,"byteStride":8,"name":"bufferViewFloatVec2"}],"buffers":[{"uri":"L9550WH_m.bin","byteLength":868572}],"materials":[{"pbrMetallicRoughness":{"baseColorFactor":[0.6125001,0.6125001,0.6125001,1.0],"metallicFactor":0.0,"roughnessFactor":0.9},"emissiveFactor":[0.0,0.0,0.0],"alphaMode":"OPAQUE","name":"m_base0"}]}