{"asset":{"version":"2.0","generator":"babylon.js glTF exporter for 3ds max 2015 v1.3.33"},"scene":0,"scenes":[{"nodes":[0,5],"extensions":{}}],"nodes":[{"children":[1,2],"translation":[0.0,0.0,0.0],"rotation":[0.0,0.0,0.0,1.0],"scale":[1.0,1.0,1.0],"name":"Group003"},{"mesh":0,"translation":[0.0,44.6859665,0.03712654],"rotation":[8.742278E-08,-7.764702E-23,-8.881786E-16,1.0],"scale":[0.099999994,0.099999994,0.099999994],"name":"dress"},{"children":[3,4],"translation":[1.070404,94.38246,0.0],"rotation":[0.0,0.0,0.0,1.0],"scale":[1.0,1.0,1.0],"name":"Group002"},{"mesh":1,"translation":[-7.62939453E-06,0.0,-8.34465E-07],"rotation":[-0.499999881,-0.5000001,-0.49999997,0.50000006],"scale":[0.099999994,0.099999994,0.099999994],"name":"Object004"},{"mesh":2,"translation":[-7.62939453E-06,0.0,-8.34465E-07],"rotation":[-0.499999881,-0.5000001,-0.49999997,0.50000006],"scale":[0.099999994,0.099999994,0.099999994],"name":"Object003"},{"translation":[0.0,0.0,0.0],"rotation":[0.0,0.0,0.0,1.0],"scale":[1.0,1.0,1.0],"name":"Default light"}],"meshes":[{"primitives":[{"attributes":{"POSITION":1,"NORMAL":2,"TEXCOORD_0":3},"indices":0,"mode":4,"material":0}],"name":"dress"},{"primitives":[{"attributes":{"POSITION":5,"NORMAL":6,"TEXCOORD_0":7},"indices":4,"mode":4,"material":1}],"name":"Object004"},{"primitives":[{"attributes":{"POSITION":9,"NORMAL":10,"TEXCOORD_0":11},"indices":8,"mode":4,"material":2}],"name":"Object003"}],"accessors":[{"bufferView":0,"componentType":5123,"count":5526,"type":"SCALAR","name":"accessorIndices"},{"bufferView":1,"componentType":5126,"count":5526,"max":[42.57586,447.3257,144.508],"min":[-42.57586,-447.325836,-144.508057],"type":"VEC3","name":"accessorPositions"},{"bufferView":1,"byteOffset":66312,"componentType":5126,"count":5526,"type":"VEC3","name":"accessorNormals"},{"bufferView":2,"componentType":5126,"count":5526,"type":"VEC2","name":"accessorUVs"},{"bufferView":0,"byteOffset":11052,"componentType":5123,"count":1026,"type":"SCALAR","name":"accessorIndices"},{"bufferView":1,"byteOffset":132624,"componentType":5126,"count":1026,"max":[32.8378143,7.040489,94.30298],"min":[-32.15166,3.65870857,12.7817383],"type":"VEC3","name":"accessorPositions"},{"bufferView":1,"byteOffset":144936,"componentType":5126,"count":1026,"type":"VEC3","name":"accessorNormals"},{"bufferView":2,"byteOffset":44208,"componentType":5126,"count":1026,"type":"VEC2","name":"accessorUVs"},{"bufferView":0,"byteOffset":13104,"componentType":5123,"count":1260,"type":"SCALAR","name":"accessorIndices"},{"bufferView":1,"byteOffset":157248,"componentType":5126,"count":1260,"max":[189.598282,8.863314,18.3955688],"min":[-189.598251,-8.863314,-94.30298],"type":"VEC3","name":"accessorPositions"},{"bufferView":1,"byteOffset":172368,"componentType":5126,"count":1260,"type":"VEC3","name":"accessorNormals"},{"bufferView":2,"byteOffset":52416,"componentType":5126,"count":1260,"type":"VEC2","name":"accessorUVs"}],"bufferViews":[{"buffer":0,"byteLength":15624,"name":"bufferViewScalar"},{"buffer":0,"byteOffset":15624,"byteLength":187488,"byteStride":12,"name":"bufferViewFloatVec3"},{"buffer":0,"byteOffset":203112,"byteLength":62496,"byteStride":8,"name":"bufferViewFloatVec2"}],"buffers":[{"uri":"TS_2.bin","byteLength":265608}],"materials":[{"pbrMetallicRoughness":{"baseColorFactor":[0.7148694,0.612745166,0.8700982,1.0],"metallicFactor":0.0,"roughnessFactor":0.9},"emissiveFactor":[0.0,0.0,0.0],"alphaMode":"OPAQUE","name":"m_10"},{"pbrMetallicRoughness":{"baseColorFactor":[0.212418333,0.416666746,0.6740197,1.0],"metallicFactor":0.0,"roughnessFactor":0.9},"emissiveFactor":[0.0,0.0,0.0],"alphaMode":"OPAQUE","name":"m_32"},{"pbrMetallicRoughness":{"baseColorFactor":[0.06535949,0.06535949,0.06535949,1.0],"metallicFactor":0.0,"roughnessFactor":0.9},"emissiveFactor":[0.0,0.0,0.0],"alphaMode":"OPAQUE","name":"m_31"}]}