{"asset":{"version":"2.0","generator":"babylon.js glTF exporter for 3ds max 2018 v1.3.33"},"scene":0,"scenes":[{"nodes":[0,1,6],"extensions":{}}],"nodes":[{"mesh":0,"translation":[1.13160944,0.0,-0.6188364],"rotation":[0.0,0.0,0.0,1.0],"scale":[1.0,1.0,1.0],"name":"testBox123"},{"children":[2,3],"translation":[-14.8172283,11.6070213,3.0723772],"rotation":[-0.259495467,0.198789418,0.0546751544,0.943480551],"scale":[0.99999994,0.99999994,0.99999994],"name":"ttttttt"},{"mesh":1,"translation":[4.05071259,-1.17808533,5.15547037],"rotation":[0.0,0.0,0.0,1.0],"scale":[0.99999994,1.0,0.9999999],"name":"Box004"},{"children":[4,5],"translation":[-2.07245159,0.0,-5.13826227],"rotation":[0.0,0.0,0.0,1.0],"scale":[0.99999994,1.0,0.9999999],"name":"grup1"},{"mesh":2,"translation":[1.97826,-1.17808437,0.0172076225],"rotation":[0.0,0.0,0.0,1.0],"scale":[0.99999994,1.0,0.9999999],"name":"Box003"},{"mesh":2,"translation":[-1.97826,-1.17808533,-0.0172076225],"rotation":[0.0,0.0,0.0,1.0],"scale":[0.99999994,1.0,0.9999999],"name":"Box002"},{"translation":[0.0,0.0,0.0],"rotation":[0.0,0.0,0.0,1.0],"scale":[1.0,1.0,1.0],"name":"Default light"}],"meshes":[{"primitives":[{"attributes":{"POSITION":1,"NORMAL":2,"TEXCOORD_0":3},"indices":0,"mode":4,"material":0}],"name":"testBox123"},{"primitives":[{"attributes":{"POSITION":5,"NORMAL":6,"TEXCOORD_0":7},"indices":4}],"name":"Box004"},{"primitives":[{"attributes":{"POSITION":9,"NORMAL":10,"TEXCOORD_0":11},"indices":8,"mode":4,"material":1}],"name":"Box003"}],"accessors":[{"bufferView":0,"componentType":5123,"count":36,"type":"SCALAR","name":"accessorIndices"},{"bufferView":1,"componentType":5126,"count":36,"max":[5.02746439,10.5111418,4.996319],"min":[-5.02746439,0.0,-4.996319],"type":"VEC3","name":"accessorPositions"},{"bufferView":1,"byteOffset":432,"componentType":5126,"count":36,"type":"VEC3","name":"accessorNormals"},{"bufferView":2,"componentType":5126,"count":36,"type":"VEC2","name":"accessorUVs"},{"bufferView":0,"byteOffset":72,"componentType":5123,"count":36,"type":"SCALAR","name":"accessorIndices"},{"bufferView":1,"byteOffset":864,"componentType":5126,"count":36,"max":[1.21422577,2.3561697,1.748601],"min":[-1.21422672,-9.536743E-07,-1.74859953],"type":"VEC3","name":"accessorPositions"},{"bufferView":1,"byteOffset":1296,"componentType":5126,"count":36,"type":"VEC3","name":"accessorNormals"},{"bufferView":2,"byteOffset":288,"componentType":5126,"count":36,"type":"VEC2","name":"accessorUVs"},{"bufferView":0,"byteOffset":144,"componentType":5123,"count":36,"type":"SCALAR","name":"accessorIndices"},{"bufferView":1,"byteOffset":1728,"componentType":5126,"count":36,"max":[1.21422577,2.3561697,1.74859989],"min":[-1.21422768,-9.536743E-07,-1.74859977],"type":"VEC3","name":"accessorPositions"},{"bufferView":1,"byteOffset":2160,"componentType":5126,"count":36,"type":"VEC3","name":"accessorNormals"},{"bufferView":2,"byteOffset":576,"componentType":5126,"count":36,"type":"VEC2","name":"accessorUVs"}],"bufferViews":[{"buffer":0,"byteLength":216,"name":"bufferViewScalar"},{"buffer":0,"byteOffset":216,"byteLength":2592,"byteStride":12,"name":"bufferViewFloatVec3"},{"buffer":0,"byteOffset":2808,"byteLength":864,"byteStride":8,"name":"bufferViewFloatVec2"}],"buffers":[{"uri":"project.bin","byteLength":3672}],"materials":[{"pbrMetallicRoughness":{"baseColorFactor":[1.0,1.0,1.0,1.0],"baseColorTexture":{"index":0,"texCoord":0},"metallicFactor":0.0,"roughnessFactor":0.9},"emissiveFactor":[0.0,0.0,0.0],"alphaMode":"BLEND","name":"testXZ123"},{"pbrMetallicRoughness":{"baseColorFactor":[1.0,1.0,1.0,1.0],"baseColorTexture":{"index":1,"texCoord":0},"metallicFactor":0.0,"roughnessFactor":0.9},"emissiveFactor":[0.0,0.0,0.0],"alphaMode":"BLEND","name":"Material #48"}],"textures":[{"sampler":0,"source":0,"name":"pic1.png"},{"sampler":0,"source":1,"name":"pic3.png"}],"images":[{"uri":"pic1.png"},{"uri":"pic3.png"}],"samplers":[{"magFilter":9729,"minFilter":9987,"wrapS":10497,"wrapT":10497}]}