{"asset":{"version":"2.0","generator":"babylon.js glTF exporter for 3ds max 2015 v1.3.33"},"scene":0,"scenes":[{"nodes":[0,1],"extensions":{}}],"nodes":[{"mesh":0,"translation":[0.0,0.0,0.0],"rotation":[0.0,0.7071068,0.0,0.7071067],"scale":[0.9717937,1.01374853,0.9717937],"name":"Box101"},{"translation":[0.0,0.0,0.0],"rotation":[0.0,0.0,0.0,1.0],"scale":[1.0,1.0,1.0],"name":"Default light"}],"meshes":[{"primitives":[{"attributes":{"POSITION":1,"NORMAL":2,"TEXCOORD_0":3},"indices":0,"mode":4,"material":0}],"name":"Box101"}],"accessors":[{"bufferView":0,"componentType":5123,"count":33336,"type":"SCALAR","name":"accessorIndices"},{"bufferView":1,"componentType":5126,"count":33336,"max":[4.31989956,55.0600052,21.1168],"min":[-4.31989956,-0.1301966,-21.1168022],"type":"VEC3","name":"accessorPositions"},{"bufferView":1,"byteOffset":400032,"componentType":5126,"count":33336,"type":"VEC3","name":"accessorNormals"},{"bufferView":2,"componentType":5126,"count":33336,"type":"VEC2","name":"accessorUVs"}],"bufferViews":[{"buffer":0,"byteLength":66672,"name":"bufferViewScalar"},{"buffer":0,"byteOffset":66672,"byteLength":800064,"byteStride":12,"name":"bufferViewFloatVec3"},{"buffer":0,"byteOffset":866736,"byteLength":266688,"byteStride":8,"name":"bufferViewFloatVec2"}],"buffers":[{"uri":"L9559WH_vert.bin","byteLength":1133424}],"materials":[{"pbrMetallicRoughness":{"baseColorFactor":[1.0,1.0,1.0,1.0],"metallicFactor":0.0,"roughnessFactor":0.9},"emissiveFactor":[0.0,0.0,0.0],"alphaMode":"OPAQUE","name":"m_base0"}]}