{"asset":{"version":"2.0","generator":"babylon.js glTF exporter for 3ds max 2015 v1.3.33"},"scene":0,"scenes":[{"nodes":[0,5],"extensions":{}}],"nodes":[{"children":[1,2],"translation":[0.0,0.0,0.0],"rotation":[0.0,0.0,0.0,1.0],"scale":[1.0,1.0,1.0],"name":"Group020"},{"mesh":0,"translation":[0.4346695,38.04205,-5.96046448E-06],"rotation":[0.0,-0.7071068,0.0,0.7071067],"scale":[118.715942,118.715942,111.046021],"name":"Object023"},{"children":[3,4],"translation":[1.07756424,79.88199,-0.257078171],"rotation":[0.0,0.0,0.0,1.0],"scale":[1.0,1.0,1.0],"name":"Group019"},{"mesh":1,"translation":[0.0,-0.0819778442,-8.34465E-07],"rotation":[-0.499999881,-0.5000001,-0.49999997,0.50000006],"scale":[0.099999994,0.099999994,0.099999994],"name":"Object024"},{"mesh":2,"translation":[0.0,0.0819778442,-8.34465E-07],"rotation":[-0.499999881,-0.5000001,-0.49999997,0.50000006],"scale":[0.099999994,0.099999994,0.099999994],"name":"Object025"},{"translation":[0.0,0.0,0.0],"rotation":[0.0,0.0,0.0,1.0],"scale":[1.0,1.0,1.0],"name":"Default light"}],"meshes":[{"primitives":[{"attributes":{"POSITION":1,"NORMAL":2,"TEXCOORD_0":3},"indices":0,"mode":4,"material":0}],"name":"Object023"},{"primitives":[{"attributes":{"POSITION":5,"NORMAL":6,"TEXCOORD_0":7},"indices":4,"mode":4,"material":1}],"name":"Object024"},{"primitives":[{"attributes":{"POSITION":9,"NORMAL":10,"TEXCOORD_0":11},"indices":8,"mode":4,"material":2}],"name":"Object025"}],"accessors":[{"bufferView":0,"componentType":5123,"count":38178,"type":"SCALAR","name":"accessorIndices"},{"bufferView":1,"componentType":5126,"count":38178,"max":[0.233483076,0.320600241,0.06155979],"min":[-0.233483016,-0.320600152,-0.05373121],"type":"VEC3","name":"accessorPositions"},{"bufferView":1,"byteOffset":458136,"componentType":5126,"count":38178,"type":"VEC3","name":"accessorNormals"},{"bufferView":2,"componentType":5126,"count":38178,"type":"VEC2","name":"accessorUVs"},{"bufferView":0,"byteOffset":76356,"componentType":5123,"count":1260,"type":"SCALAR","name":"accessorIndices"},{"bufferView":1,"byteOffset":916272,"componentType":5126,"count":1260,"max":[189.598282,8.863314,18.3955688],"min":[-189.598267,-8.863314,-94.30298],"type":"VEC3","name":"accessorPositions"},{"bufferView":1,"byteOffset":931392,"componentType":5126,"count":1260,"type":"VEC3","name":"accessorNormals"},{"bufferView":2,"byteOffset":305424,"componentType":5126,"count":1260,"type":"VEC2","name":"accessorUVs"},{"bufferView":0,"byteOffset":78876,"componentType":5123,"count":1026,"type":"SCALAR","name":"accessorIndices"},{"bufferView":1,"byteOffset":946512,"componentType":5126,"count":1026,"max":[32.8378143,7.040489,94.30304],"min":[-32.15166,3.65870857,12.7817993],"type":"VEC3","name":"accessorPositions"},{"bufferView":1,"byteOffset":958824,"componentType":5126,"count":1026,"type":"VEC3","name":"accessorNormals"},{"bufferView":2,"byteOffset":315504,"componentType":5126,"count":1026,"type":"VEC2","name":"accessorUVs"}],"bufferViews":[{"buffer":0,"byteLength":80928,"name":"bufferViewScalar"},{"buffer":0,"byteOffset":80928,"byteLength":971136,"byteStride":12,"name":"bufferViewFloatVec3"},{"buffer":0,"byteOffset":1052064,"byteLength":323712,"byteStride":8,"name":"bufferViewFloatVec2"}],"buffers":[{"uri":"TS_8.bin","byteLength":1375776}],"materials":[{"pbrMetallicRoughness":{"baseColorFactor":[0.7148694,0.612745166,0.8700982,1.0],"metallicFactor":0.0,"roughnessFactor":0.9},"emissiveFactor":[0.0,0.0,0.0],"alphaMode":"OPAQUE","name":"m_10"},{"pbrMetallicRoughness":{"baseColorFactor":[0.06535949,0.06535949,0.06535949,1.0],"metallicFactor":0.0,"roughnessFactor":0.9},"emissiveFactor":[0.0,0.0,0.0],"alphaMode":"OPAQUE","name":"m_31"},{"pbrMetallicRoughness":{"baseColorFactor":[0.212418333,0.416666746,0.6740197,1.0],"metallicFactor":0.0,"roughnessFactor":0.9},"emissiveFactor":[0.0,0.0,0.0],"alphaMode":"OPAQUE","name":"m_32"}]}