{"asset":{"version":"2.0","generator":"babylon.js glTF exporter for 3ds max 2015 v1.3.33"},"scene":0,"scenes":[{"nodes":[0,1,2],"extensions":{}}],"nodes":[{"mesh":0,"translation":[0.0,0.0,0.0],"rotation":[6.883939E-08,-1.53133087E-07,0.7071068,0.7071068],"scale":[1.31313086,1.0,1.31313086],"name":"Cylinder30107"},{"mesh":1,"translation":[0.0,15.8384724,-0.601182938],"rotation":[-0.5000001,-0.50000006,0.49999997,0.49999997],"scale":[0.350947827,0.630207658,0.385708],"name":"markerObj_tit2"},{"translation":[0.0,0.0,0.0],"rotation":[0.0,0.0,0.0,1.0],"scale":[1.0,1.0,1.0],"name":"Default light"}],"meshes":[{"primitives":[{"attributes":{"POSITION":1,"NORMAL":2,"TEXCOORD_0":3},"indices":0,"mode":4,"material":0}],"name":"Cylinder30107"},{"primitives":[{"attributes":{"POSITION":5,"NORMAL":6,"TEXCOORD_0":7},"indices":4}],"name":"markerObj_tit2"}],"accessors":[{"bufferView":0,"componentType":5123,"count":8940,"type":"SCALAR","name":"accessorIndices"},{"bufferView":1,"componentType":5126,"count":8940,"max":[23.2733517,30.1501713,0.565063],"min":[-1.24543039E-05,-30.15017,-0.5650702],"type":"VEC3","name":"accessorPositions"},{"bufferView":1,"byteOffset":107280,"componentType":5126,"count":8940,"type":"VEC3","name":"accessorNormals"},{"bufferView":2,"componentType":5126,"count":8940,"type":"VEC2","name":"accessorUVs"},{"bufferView":0,"byteOffset":17880,"componentType":5123,"count":96,"type":"SCALAR","name":"accessorIndices"},{"bufferView":1,"byteOffset":214560,"componentType":5126,"count":96,"max":[3.73376465,4.22077942,3.409091],"min":[-3.73376465,-1.1920929E-07,-3.40909123],"type":"VEC3","name":"accessorPositions"},{"bufferView":1,"byteOffset":215712,"componentType":5126,"count":96,"type":"VEC3","name":"accessorNormals"},{"bufferView":2,"byteOffset":71520,"componentType":5126,"count":96,"type":"VEC2","name":"accessorUVs"}],"bufferViews":[{"buffer":0,"byteLength":18072,"name":"bufferViewScalar"},{"buffer":0,"byteOffset":18072,"byteLength":216864,"byteStride":12,"name":"bufferViewFloatVec3"},{"buffer":0,"byteOffset":234936,"byteLength":72288,"byteStride":8,"name":"bufferViewFloatVec2"}],"buffers":[{"uri":"L9963_m.bin","byteLength":307224}],"materials":[{"pbrMetallicRoughness":{"baseColorFactor":[0.6125001,0.6125001,0.6125001,1.0],"metallicFactor":0.0,"roughnessFactor":0.9},"emissiveFactor":[0.0,0.0,0.0],"alphaMode":"OPAQUE","name":"m_base0"}]}