{"asset":{"version":"2.0","generator":"babylon.js glTF exporter for 3ds max 2015 v1.3.33"},"scene":0,"scenes":[{"nodes":[0,1],"extensions":{}}],"nodes":[{"mesh":0,"translation":[0.0,0.0,0.0],"rotation":[-2.38418579E-07,-7.54979E-08,1.0,-1.80001023E-14],"scale":[0.0979260355,-0.0979260355,0.0979260355],"name":"L99S64WH"},{"translation":[0.0,0.0,0.0],"rotation":[0.0,0.0,0.0,1.0],"scale":[1.0,1.0,1.0],"name":"Default light"}],"meshes":[{"primitives":[{"attributes":{"POSITION":1,"NORMAL":2,"TEXCOORD_0":3},"indices":0,"mode":4,"material":0}],"name":"L99S64WH"}],"accessors":[{"bufferView":0,"componentType":5123,"count":1368,"type":"SCALAR","name":"accessorIndices"},{"bufferView":1,"componentType":5126,"count":1368,"max":[305.0,422.0004,26.5000687],"min":[-305.0,-2.33278261E-05,-26.5001354],"type":"VEC3","name":"accessorPositions"},{"bufferView":1,"byteOffset":16416,"componentType":5126,"count":1368,"type":"VEC3","name":"accessorNormals"},{"bufferView":2,"componentType":5126,"count":1368,"type":"VEC2","name":"accessorUVs"}],"bufferViews":[{"buffer":0,"byteLength":2736,"name":"bufferViewScalar"},{"buffer":0,"byteOffset":2736,"byteLength":32832,"byteStride":12,"name":"bufferViewFloatVec3"},{"buffer":0,"byteOffset":35568,"byteLength":10944,"byteStride":8,"name":"bufferViewFloatVec2"}],"buffers":[{"uri":"L99S64WH.bin","byteLength":46512}],"materials":[{"pbrMetallicRoughness":{"baseColorFactor":[0.6125001,0.6125001,0.6125001,1.0],"metallicFactor":0.0,"roughnessFactor":0.9},"emissiveFactor":[0.0,0.0,0.0],"alphaMode":"OPAQUE","name":"m_base0"}]}