{"asset":{"version":"2.0","generator":"babylon.js glTF exporter for 3ds max 2015 v1.3.33"},"scene":0,"scenes":[{"nodes":[0,3],"extensions":{}}],"nodes":[{"children":[1,2],"translation":[0.0,0.0,0.0],"rotation":[-0.5,-0.5,0.5,0.5],"scale":[0.09999999,0.09999999,0.104999982],"name":"Group40937"},{"mesh":0,"translation":[204.4285,41.6421623,-1.7860806],"rotation":[2.038251E-24,0.0,0.0,1.0],"scale":[0.981801867,1.0,0.9818018],"name":"Rectangle059"},{"mesh":1,"translation":[204.0827,-14.8762732,0.08891931],"rotation":[-6.209646E-07,-0.7071067,0.7071068,-6.20964556E-07],"scale":[1.00053573,1.00053573,1.00053573],"name":"385_Basket_L9529.a3d.bak051"},{"translation":[0.0,0.0,0.0],"rotation":[0.0,0.0,0.0,1.0],"scale":[1.0,1.0,1.0],"name":"Default light"}],"meshes":[{"primitives":[{"attributes":{"POSITION":1,"NORMAL":2,"TEXCOORD_0":3},"indices":0,"mode":4,"material":0}],"name":"Rectangle059"},{"primitives":[{"attributes":{"POSITION":5,"NORMAL":6,"TEXCOORD_0":7},"indices":4,"mode":4,"material":0}],"name":"385_Basket_L9529.a3d.bak051"}],"accessors":[{"bufferView":0,"componentType":5123,"count":2850,"type":"SCALAR","name":"accessorIndices"},{"bufferView":1,"componentType":5126,"count":2850,"max":[207.4615,1.04438019,273.301331],"min":[-208.217682,-1.04438019,-269.663],"type":"VEC3","name":"accessorPositions"},{"bufferView":1,"byteOffset":34200,"componentType":5126,"count":2850,"type":"VEC3","name":"accessorNormals"},{"bufferView":2,"componentType":5126,"count":2850,"type":"VEC2","name":"accessorUVs"},{"bufferView":0,"byteOffset":5700,"componentType":5123,"count":14682,"type":"SCALAR","name":"accessorIndices"},{"bufferView":1,"byteOffset":68400,"componentType":5126,"count":14682,"max":[194.9849,257.490845,27.79533],"min":[-194.986343,-257.491364,-57.19848],"type":"VEC3","name":"accessorPositions"},{"bufferView":1,"byteOffset":244584,"componentType":5126,"count":14682,"type":"VEC3","name":"accessorNormals"},{"bufferView":2,"byteOffset":22800,"componentType":5126,"count":14682,"type":"VEC2","name":"accessorUVs"}],"bufferViews":[{"buffer":0,"byteLength":35064,"name":"bufferViewScalar"},{"buffer":0,"byteOffset":35064,"byteLength":420768,"byteStride":12,"name":"bufferViewFloatVec3"},{"buffer":0,"byteOffset":455832,"byteLength":140256,"byteStride":8,"name":"bufferViewFloatVec2"}],"buffers":[{"uri":"L9529WH_g.bin","byteLength":596088}],"materials":[{"pbrMetallicRoughness":{"baseColorFactor":[0.6125001,0.6125001,0.6125001,1.0],"metallicFactor":0.0,"roughnessFactor":0.9},"emissiveFactor":[0.0,0.0,0.0],"alphaMode":"OPAQUE","name":"m_base0"}]}