{"asset":{"version":"2.0","generator":"babylon.js glTF exporter for 3ds max 2015 v1.3.33"},"scene":0,"scenes":[{"nodes":[0,1],"extensions":{}}],"nodes":[{"mesh":0,"translation":[0.0002784729,0.0,0.0],"rotation":[0.499510169,-0.499510318,0.5004894,0.5004892],"scale":[0.03950413,0.0395041332,0.03950413],"name":"handbag001"},{"translation":[0.0,0.0,0.0],"rotation":[0.0,0.0,0.0,1.0],"scale":[1.0,1.0,1.0],"name":"Default light"}],"meshes":[{"primitives":[{"attributes":{"POSITION":1,"NORMAL":2,"TEXCOORD_0":3},"indices":0,"mode":4,"material":0}],"name":"handbag001"}],"accessors":[{"bufferView":0,"componentType":5123,"count":22125,"type":"SCALAR","name":"accessorIndices"},{"bufferView":1,"componentType":5126,"count":22125,"max":[303.8816,177.835144,1.28427148],"min":[-303.609222,-177.835159,-140.355316],"type":"VEC3","name":"accessorPositions"},{"bufferView":1,"byteOffset":265500,"componentType":5126,"count":22125,"type":"VEC3","name":"accessorNormals"},{"bufferView":2,"componentType":5126,"count":22125,"type":"VEC2","name":"accessorUVs"}],"bufferViews":[{"buffer":0,"byteLength":44252,"name":"bufferViewScalar"},{"buffer":0,"byteOffset":44252,"byteLength":531000,"byteStride":12,"name":"bufferViewFloatVec3"},{"buffer":0,"byteOffset":575252,"byteLength":177000,"byteStride":8,"name":"bufferViewFloatVec2"}],"buffers":[{"uri":"sumka_2.bin","byteLength":752252}],"materials":[{"pbrMetallicRoughness":{"baseColorFactor":[0.612745166,0.05718955,0.05718955,1.0],"metallicFactor":0.0,"roughnessFactor":0.9},"emissiveFactor":[0.0,0.0,0.0],"alphaMode":"OPAQUE","name":"m_33"}]}