{"asset":{"version":"2.0","generator":"babylon.js glTF exporter for 3ds max 2015 v1.3.33"},"scene":0,"scenes":[{"nodes":[0,1,2],"extensions":{}}],"nodes":[{"mesh":0,"translation":[0.0,0.0,0.0],"rotation":[-7.164545E-08,-1.02554075E-07,0.7071068,0.7071068],"scale":[0.099999994,0.099999994,0.099999994],"name":"070_Полка_L9964"},{"mesh":1,"translation":[0.0,18.5174141,-0.104240417],"rotation":[-0.50000006,-0.5,0.5,0.49999994],"scale":[0.350947827,0.630207658,0.385708],"name":"markerObj_tit2"},{"translation":[0.0,0.0,0.0],"rotation":[0.0,0.0,0.0,1.0],"scale":[1.0,1.0,1.0],"name":"Default light"}],"meshes":[{"primitives":[{"attributes":{"POSITION":1,"NORMAL":2,"TEXCOORD_0":3},"indices":0,"mode":4,"material":0}],"name":"070_Полка_L9964"},{"primitives":[{"attributes":{"POSITION":5,"NORMAL":6,"TEXCOORD_0":7},"indices":4}],"name":"markerObj_tit2"}],"accessors":[{"bufferView":0,"componentType":5123,"count":10104,"type":"SCALAR","name":"accessorIndices"},{"bufferView":1,"componentType":5126,"count":10104,"max":[406.196442,301.499939,7.516606],"min":[-1.99951913E-07,-301.5001,-7.516608],"type":"VEC3","name":"accessorPositions"},{"bufferView":1,"byteOffset":121248,"componentType":5126,"count":10104,"type":"VEC3","name":"accessorNormals"},{"bufferView":2,"componentType":5126,"count":10104,"type":"VEC2","name":"accessorUVs"},{"bufferView":0,"byteOffset":20208,"componentType":5123,"count":96,"type":"SCALAR","name":"accessorIndices"},{"bufferView":1,"byteOffset":242496,"componentType":5126,"count":96,"max":[3.73376083,4.22078,3.409091],"min":[-3.73376846,-1.49011612E-08,-3.409091],"type":"VEC3","name":"accessorPositions"},{"bufferView":1,"byteOffset":243648,"componentType":5126,"count":96,"type":"VEC3","name":"accessorNormals"},{"bufferView":2,"byteOffset":80832,"componentType":5126,"count":96,"type":"VEC2","name":"accessorUVs"}],"bufferViews":[{"buffer":0,"byteLength":20400,"name":"bufferViewScalar"},{"buffer":0,"byteOffset":20400,"byteLength":244800,"byteStride":12,"name":"bufferViewFloatVec3"},{"buffer":0,"byteOffset":265200,"byteLength":81600,"byteStride":8,"name":"bufferViewFloatVec2"}],"buffers":[{"uri":"L9964WH.bin","byteLength":346800}],"materials":[{"pbrMetallicRoughness":{"baseColorFactor":[0.6125001,0.6125001,0.6125001,1.0],"metallicFactor":0.0,"roughnessFactor":0.9},"emissiveFactor":[0.0,0.0,0.0],"alphaMode":"OPAQUE","name":"m_base0"}]}