{"asset":{"version":"2.0","generator":"babylon.js glTF exporter for 3ds max 2018 v20190712.1"},"scene":0,"scenes":[{"nodes":[0,1],"extensions":{}}],"nodes":[{"mesh":0,"translation":[0.0,0.0,0.0],"rotation":[0.0,0.0,0.0,1.0],"scale":[1.0,1.0,1.0],"name":"80324942"},{"translation":[0.0,0.0,0.0],"rotation":[0.0,0.0,0.0,1.0],"scale":[1.0,1.0,1.0],"name":"Default light"}],"meshes":[{"primitives":[{"attributes":{"POSITION":1,"NORMAL":2,"TEXCOORD_0":3,"TEXCOORD_1":4},"indices":0,"mode":4,"material":0},{"attributes":{"POSITION":6,"NORMAL":7,"TEXCOORD_0":8,"TEXCOORD_1":9},"indices":5,"mode":4,"material":1}],"name":"80324942"}],"accessors":[{"bufferView":0,"componentType":5123,"count":14721,"type":"SCALAR","name":"accessorIndices"},{"bufferView":1,"componentType":5126,"count":14721,"max":[1.163188,0.968164742,0.5118585],"min":[-1.1631881,0.122204661,-0.5144756],"type":"VEC3","name":"accessorPositions"},{"bufferView":1,"byteOffset":176652,"componentType":5126,"count":14721,"type":"VEC3","name":"accessorNormals"},{"bufferView":2,"componentType":5126,"count":14721,"type":"VEC2","name":"accessorUVs"},{"bufferView":2,"byteOffset":117768,"componentType":5126,"count":14721,"type":"VEC2","name":"accessorUV2s"},{"bufferView":0,"byteOffset":29444,"componentType":5123,"count":339,"type":"SCALAR","name":"accessorIndices"},{"bufferView":1,"byteOffset":353304,"componentType":5126,"count":339,"max":[0.9665678,0.130991921,0.421412051],"min":[-0.9726229,0.0003164777,-0.302990168],"type":"VEC3","name":"accessorPositions"},{"bufferView":1,"byteOffset":357372,"componentType":5126,"count":339,"type":"VEC3","name":"accessorNormals"},{"bufferView":2,"byteOffset":235536,"componentType":5126,"count":339,"type":"VEC2","name":"accessorUVs"},{"bufferView":2,"byteOffset":238248,"componentType":5126,"count":339,"type":"VEC2","name":"accessorUV2s"}],"bufferViews":[{"buffer":0,"byteLength":30124,"name":"bufferViewScalar"},{"buffer":0,"byteOffset":30124,"byteLength":361440,"byteStride":12,"name":"bufferViewFloatVec3"},{"buffer":0,"byteOffset":391564,"byteLength":240960,"byteStride":8,"name":"bufferViewFloatVec2"}],"buffers":[{"uri":"straight_sofa.bin","byteLength":632524}],"materials":[{"pbrMetallicRoughness":{"baseColorFactor":[0.5,0.5,0.5,1.0],"baseColorTexture":{"index":0,"texCoord":0},"metallicFactor":0.0,"roughnessFactor":0.2581639},"emissiveFactor":[0.0,0.0,0.0],"alphaMode":"OPAQUE","name":"80324942"},{"pbrMetallicRoughness":{"baseColorFactor":[0.06666667,0.0372549035,0.01764706,1.0],"metallicFactor":0.0,"roughnessFactor":0.2581639},"emissiveFactor":[0.0,0.0,0.0],"alphaMode":"OPAQUE","name":"80324942_legs_Inst"}],"textures":[{"sampler":0,"source":0,"name":"Lounge_21_Diffuse.jpg"}],"images":[{"uri":".%2F%2FLounge_21_Diffuse.jpg"}],"samplers":[{"magFilter":9729,"minFilter":9987,"wrapS":10497,"wrapT":10497}]}