{"asset":{"version":"2.0","generator":"babylon.js glTF exporter for 3ds max 2015 v1.3.33"},"scene":0,"scenes":[{"nodes":[0,3],"extensions":{}}],"nodes":[{"children":[1,2],"translation":[0.0,0.0,0.0],"rotation":[1.15202333E-07,-0.7071068,0.7071067,-1.15202305E-07],"scale":[0.09999999,0.09999999,0.104999982],"name":"Group40937"},{"mesh":0,"translation":[0.751236558,41.6421967,-267.937653],"rotation":[-7.237131E-15,-1.44742616E-14,-8.47033E-22,1.0],"scale":[0.981801748,0.99999994,0.9818017],"name":"Rectangle059"},{"mesh":1,"translation":[0.405442,-14.876235,-266.062653],"rotation":[-6.209646E-07,-0.7071067,0.7071068,-6.209645E-07],"scale":[1.00053561,1.00053561,1.00053561],"name":"385_Basket_L9529.a3d.bak051"},{"translation":[0.0,0.0,0.0],"rotation":[0.0,0.0,0.0,1.0],"scale":[1.0,1.0,1.0],"name":"Default light"}],"meshes":[{"primitives":[{"attributes":{"POSITION":1,"NORMAL":2,"TEXCOORD_0":3},"indices":0,"mode":4,"material":0}],"name":"Rectangle059"},{"primitives":[{"attributes":{"POSITION":5,"NORMAL":6,"TEXCOORD_0":7},"indices":4,"mode":4,"material":0}],"name":"385_Basket_L9529.a3d.bak051"}],"accessors":[{"bufferView":0,"componentType":5123,"count":2850,"type":"SCALAR","name":"accessorIndices"},{"bufferView":1,"componentType":5126,"count":2850,"max":[207.431961,1.04438782,273.301361],"min":[-208.962463,-1.04439163,-268.576935],"type":"VEC3","name":"accessorPositions"},{"bufferView":1,"byteOffset":34200,"componentType":5126,"count":2850,"type":"VEC3","name":"accessorNormals"},{"bufferView":2,"componentType":5126,"count":2850,"type":"VEC2","name":"accessorUVs"},{"bufferView":0,"byteOffset":5700,"componentType":5123,"count":14682,"type":"SCALAR","name":"accessorIndices"},{"bufferView":1,"byteOffset":68400,"componentType":5126,"count":14682,"max":[195.700272,256.4113,27.7953339],"min":[-194.942017,-257.533051,-57.1984825],"type":"VEC3","name":"accessorPositions"},{"bufferView":1,"byteOffset":244584,"componentType":5126,"count":14682,"type":"VEC3","name":"accessorNormals"},{"bufferView":2,"byteOffset":22800,"componentType":5126,"count":14682,"type":"VEC2","name":"accessorUVs"}],"bufferViews":[{"buffer":0,"byteLength":35064,"name":"bufferViewScalar"},{"buffer":0,"byteOffset":35064,"byteLength":420768,"byteStride":12,"name":"bufferViewFloatVec3"},{"buffer":0,"byteOffset":455832,"byteLength":140256,"byteStride":8,"name":"bufferViewFloatVec2"}],"buffers":[{"uri":"L9529WH_vert.bin","byteLength":596088}],"materials":[{"pbrMetallicRoughness":{"baseColorFactor":[1.0,1.0,1.0,1.0],"metallicFactor":0.0,"roughnessFactor":0.9},"emissiveFactor":[0.0,0.0,0.0],"alphaMode":"OPAQUE","name":"m_base0"}]}