{"asset":{"version":"2.0","generator":"babylon.js glTF exporter for 3ds max 2015 v1.3.33"},"scene":0,"scenes":[{"nodes":[0,1],"extensions":{}}],"nodes":[{"mesh":0,"translation":[0.0,0.0,-0.001033783],"rotation":[-0.707107067,-2.72520151E-06,0.7071065,-2.73141222E-06],"scale":[0.08533277,0.09117848,0.0911784843],"name":"pants_black"},{"translation":[0.0,0.0,0.0],"rotation":[0.0,0.0,0.0,1.0],"scale":[1.0,1.0,1.0],"name":"Default light"}],"meshes":[{"primitives":[{"attributes":{"POSITION":1,"NORMAL":2,"TEXCOORD_0":3},"indices":0,"mode":4,"material":0}],"name":"pants_black"}],"accessors":[{"bufferView":0,"componentType":5123,"count":34422,"type":"SCALAR","name":"accessorIndices"},{"bufferView":1,"componentType":5126,"count":34422,"max":[136.804733,1.0345428,66.08977],"min":[-136.804733,-589.2771,-62.386322],"type":"VEC3","name":"accessorPositions"},{"bufferView":1,"byteOffset":413064,"componentType":5126,"count":34422,"type":"VEC3","name":"accessorNormals"},{"bufferView":2,"componentType":5126,"count":34422,"type":"VEC2","name":"accessorUVs"}],"bufferViews":[{"buffer":0,"byteLength":68844,"name":"bufferViewScalar"},{"buffer":0,"byteOffset":68844,"byteLength":826128,"byteStride":12,"name":"bufferViewFloatVec3"},{"buffer":0,"byteOffset":894972,"byteLength":275376,"byteStride":8,"name":"bufferViewFloatVec2"}],"buffers":[{"uri":"shtanci_4.bin","byteLength":1170348}],"materials":[{"pbrMetallicRoughness":{"baseColorFactor":[0.6125001,0.6125001,0.6125001,1.0],"metallicFactor":0.0,"roughnessFactor":0.9},"emissiveFactor":[0.0,0.0,0.0],"alphaMode":"OPAQUE","name":"m_33"}]}