{"asset":{"version":"2.0","generator":"babylon.js glTF exporter for 3ds max 2015 v1.3.33"},"scene":0,"scenes":[{"nodes":[0,1],"extensions":{}}],"nodes":[{"mesh":0,"translation":[0.0,0.0,0.0],"rotation":[-0.707106948,-2.22254425E-06,0.7071066,-2.22254562E-06],"scale":[0.08533276,0.09117848,0.09117848],"name":"Plane637"},{"translation":[0.0,0.0,0.0],"rotation":[0.0,0.0,0.0,1.0],"scale":[1.0,1.0,1.0],"name":"Default light"}],"meshes":[{"primitives":[{"attributes":{"POSITION":1,"NORMAL":2,"TEXCOORD_0":3},"indices":0,"mode":4,"material":0}],"name":"Plane637"}],"accessors":[{"bufferView":0,"componentType":5123,"count":12528,"type":"SCALAR","name":"accessorIndices"},{"bufferView":1,"componentType":5126,"count":12528,"max":[124.201363,7.81228065,58.1745567],"min":[-127.204422,-580.2659,-80.64745],"type":"VEC3","name":"accessorPositions"},{"bufferView":1,"byteOffset":150336,"componentType":5126,"count":12528,"type":"VEC3","name":"accessorNormals"},{"bufferView":2,"componentType":5126,"count":12528,"type":"VEC2","name":"accessorUVs"}],"bufferViews":[{"buffer":0,"byteLength":25056,"name":"bufferViewScalar"},{"buffer":0,"byteOffset":25056,"byteLength":300672,"byteStride":12,"name":"bufferViewFloatVec3"},{"buffer":0,"byteOffset":325728,"byteLength":100224,"byteStride":8,"name":"bufferViewFloatVec2"}],"buffers":[{"uri":"shtanci_2.bin","byteLength":425952}],"materials":[{"pbrMetallicRoughness":{"baseColorFactor":[0.6125001,0.6125001,0.6125001,1.0],"metallicFactor":0.0,"roughnessFactor":0.9},"emissiveFactor":[0.0,0.0,0.0],"alphaMode":"OPAQUE","name":"m_33"}]}