{"asset":{"version":"2.0","generator":"babylon.js glTF exporter for 3ds max 2015 v1.3.33"},"scene":0,"scenes":[{"nodes":[0,3],"extensions":{}}],"nodes":[{"children":[1,2],"translation":[0.0,0.0,0.0],"rotation":[-2.39720279E-08,-0.9482519,0.317519158,-7.159103E-08],"scale":[0.498603046,0.4986031,0.4986031],"name":"Group007"},{"mesh":0,"translation":[-17.75277,-1.53985977,-38.2764168],"rotation":[2.61731E-08,-3.12007657E-15,-1.56003828E-15,1.0],"scale":[0.0711663961,0.0711663961,0.0711663961],"name":"Object013"},{"mesh":1,"translation":[18.3214531,-1.53986168,-38.27642],"rotation":[1.3997527E-07,-5.234619E-08,1.0,5.66273641E-08],"scale":[0.07116639,-0.0711664,0.0711664],"name":"Object014"},{"translation":[0.0,0.0,0.0],"rotation":[0.0,0.0,0.0,1.0],"scale":[1.0,1.0,1.0],"name":"Default light"}],"meshes":[{"primitives":[{"attributes":{"POSITION":1,"NORMAL":2,"COLOR_0":3,"TEXCOORD_0":4},"indices":0,"mode":4,"material":0}],"name":"Object013"},{"primitives":[{"attributes":{"POSITION":6,"NORMAL":7,"COLOR_0":8,"TEXCOORD_0":9},"indices":5,"mode":4,"material":0}],"name":"Object014"}],"accessors":[{"bufferView":0,"componentType":5123,"count":1230,"type":"SCALAR","name":"accessorIndices"},{"bufferView":1,"componentType":5126,"count":1230,"max":[546.5066,327.622437,536.9388],"min":[259.9555,-16.29361,-195.113953],"type":"VEC3","name":"accessorPositions"},{"bufferView":1,"byteOffset":14760,"componentType":5126,"count":1230,"type":"VEC3","name":"accessorNormals"},{"bufferView":2,"componentType":5126,"count":1230,"type":"VEC4","name":"accessorColors"},{"bufferView":3,"componentType":5126,"count":1230,"type":"VEC2","name":"accessorUVs"},{"bufferView":0,"byteOffset":2460,"componentType":5123,"count":1230,"type":"SCALAR","name":"accessorIndices"},{"bufferView":1,"byteOffset":29520,"componentType":5126,"count":1230,"max":[546.5067,327.622437,536.9388],"min":[259.955536,-16.2935944,-195.113953],"type":"VEC3","name":"accessorPositions"},{"bufferView":1,"byteOffset":44280,"componentType":5126,"count":1230,"type":"VEC3","name":"accessorNormals"},{"bufferView":2,"byteOffset":19680,"componentType":5126,"count":1230,"type":"VEC4","name":"accessorColors"},{"bufferView":3,"byteOffset":9840,"componentType":5126,"count":1230,"type":"VEC2","name":"accessorUVs"}],"bufferViews":[{"buffer":0,"byteLength":4920,"name":"bufferViewScalar"},{"buffer":0,"byteOffset":4920,"byteLength":59040,"byteStride":12,"name":"bufferViewFloatVec3"},{"buffer":0,"byteOffset":63960,"byteLength":39360,"byteStride":16,"name":"bufferViewFloatVec4"},{"buffer":0,"byteOffset":103320,"byteLength":19680,"byteStride":8,"name":"bufferViewFloatVec2"}],"buffers":[{"uri":"bot_8_7.bin","byteLength":123000}],"materials":[{"pbrMetallicRoughness":{"baseColorFactor":[0.6125001,0.6125001,0.6125001,1.0],"metallicFactor":0.0,"roughnessFactor":0.9},"emissiveFactor":[0.0,0.0,0.0],"alphaMode":"OPAQUE","name":"m_10"}]}