{"asset":{"version":"2.0","generator":"babylon.js glTF exporter for 3ds max 2015 v1.3.33"},"scene":0,"scenes":[{"nodes":[0,1,2,3,4,5,6,7],"extensions":{}}],"nodes":[{"mesh":0,"translation":[-0.08516216,1.078702,3.71957827],"rotation":[0.0,-0.7071068,0.0,0.7071067],"scale":[0.350947827,0.630207658,0.385708],"name":"markerObj_tit6"},{"mesh":1,"translation":[-27.0512619,1.078702,3.71957827],"rotation":[0.0,-0.7071068,0.0,0.7071067],"scale":[0.350947827,0.630207658,0.385708],"name":"markerObj_tit6 (1)"},{"mesh":2,"translation":[-27.0512619,15.6170416,3.3366785],"rotation":[0.0,-0.7071068,0.0,0.7071067],"scale":[0.350947827,0.630207658,0.385708],"name":"markerObj_tit7"},{"mesh":3,"translation":[-0.08516216,15.6170416,3.3366785],"rotation":[0.0,-0.7071068,0.0,0.7071067],"scale":[0.350947827,0.630207658,0.385708],"name":"markerObj_tit7 (1)"},{"mesh":4,"translation":[0.0,0.0,0.0],"rotation":[0.0,0.0,0.0,1.0],"scale":[0.099999994,0.099999994,0.099999994],"name":"Обувница 900"},{"mesh":5,"translation":[27.45856,15.6170416,3.3366785],"rotation":[0.0,-0.7071068,0.0,0.7071067],"scale":[0.350947827,0.630207658,0.385708],"name":"markerObj_tit7 (2)"},{"mesh":6,"translation":[27.45856,1.078702,3.71957827],"rotation":[0.0,-0.7071068,0.0,0.7071067],"scale":[0.350947827,0.630207658,0.385708],"name":"markerObj_tit6 (2)"},{"translation":[0.0,0.0,0.0],"rotation":[0.0,0.0,0.0,1.0],"scale":[1.0,1.0,1.0],"name":"Default light"}],"meshes":[{"primitives":[{"attributes":{"POSITION":1,"NORMAL":2,"TEXCOORD_0":3},"indices":0}],"name":"markerObj_tit6"},{"primitives":[{"attributes":{"POSITION":5,"NORMAL":6,"TEXCOORD_0":7},"indices":4}],"name":"markerObj_tit6"},{"primitives":[{"attributes":{"POSITION":9,"NORMAL":10,"TEXCOORD_0":11},"indices":8}],"name":"markerObj_tit7"},{"primitives":[{"attributes":{"POSITION":13,"NORMAL":14,"TEXCOORD_0":15},"indices":12}],"name":"markerObj_tit7"},{"primitives":[{"attributes":{"POSITION":17,"NORMAL":18,"TEXCOORD_0":19},"indices":16,"mode":4,"material":0}],"name":"Обувница 900"},{"primitives":[{"attributes":{"POSITION":21,"NORMAL":22,"TEXCOORD_0":23},"indices":20}],"name":"markerObj_tit7"},{"primitives":[{"attributes":{"POSITION":25,"NORMAL":26,"TEXCOORD_0":27},"indices":24}],"name":"markerObj_tit6"}],"accessors":[{"bufferView":0,"componentType":5123,"count":96,"type":"SCALAR","name":"accessorIndices"},{"bufferView":1,"componentType":5126,"count":96,"max":[3.7337656,4.22077942,3.409091],"min":[-3.733766,0.0,-3.409091],"type":"VEC3","name":"accessorPositions"},{"bufferView":1,"byteOffset":1152,"componentType":5126,"count":96,"type":"VEC3","name":"accessorNormals"},{"bufferView":2,"componentType":5126,"count":96,"type":"VEC2","name":"accessorUVs"},{"bufferView":0,"byteOffset":192,"componentType":5123,"count":96,"type":"SCALAR","name":"accessorIndices"},{"bufferView":1,"byteOffset":2304,"componentType":5126,"count":96,"max":[3.7337656,4.22077942,3.40908813],"min":[-3.7337656,0.0,-3.40909576],"type":"VEC3","name":"accessorPositions"},{"bufferView":1,"byteOffset":3456,"componentType":5126,"count":96,"type":"VEC3","name":"accessorNormals"},{"bufferView":2,"byteOffset":768,"componentType":5126,"count":96,"type":"VEC2","name":"accessorUVs"},{"bufferView":0,"byteOffset":384,"componentType":5123,"count":96,"type":"SCALAR","name":"accessorIndices"},{"bufferView":1,"byteOffset":4608,"componentType":5126,"count":96,"max":[3.73376656,4.22077751,3.40908813],"min":[-3.73376513,0.0,-3.40909576],"type":"VEC3","name":"accessorPositions"},{"bufferView":1,"byteOffset":5760,"componentType":5126,"count":96,"type":"VEC3","name":"accessorNormals"},{"bufferView":2,"byteOffset":1536,"componentType":5126,"count":96,"type":"VEC2","name":"accessorUVs"},{"bufferView":0,"byteOffset":576,"componentType":5123,"count":96,"type":"SCALAR","name":"accessorIndices"},{"bufferView":1,"byteOffset":6912,"componentType":5126,"count":96,"max":[3.73376656,4.22077751,3.409091],"min":[-3.7337656,0.0,-3.40909123],"type":"VEC3","name":"accessorPositions"},{"bufferView":1,"byteOffset":8064,"componentType":5126,"count":96,"type":"VEC3","name":"accessorNormals"},{"bufferView":2,"byteOffset":2304,"componentType":5126,"count":96,"type":"VEC2","name":"accessorUVs"},{"bufferView":0,"byteOffset":768,"componentType":5123,"count":59892,"type":"SCALAR","name":"accessorIndices"},{"bufferView":1,"byteOffset":9216,"componentType":5126,"count":59892,"max":[452.983673,405.934448,47.333313],"min":[-452.983582,9.536744E-06,-47.3333359],"type":"VEC3","name":"accessorPositions"},{"bufferView":1,"byteOffset":727920,"componentType":5126,"count":59892,"type":"VEC3","name":"accessorNormals"},{"bufferView":2,"byteOffset":3072,"componentType":5126,"count":59892,"type":"VEC2","name":"accessorUVs"},{"bufferView":0,"byteOffset":120552,"componentType":5123,"count":96,"type":"SCALAR","name":"accessorIndices"},{"bufferView":1,"byteOffset":1446624,"componentType":5126,"count":96,"max":[3.7337656,4.22077751,3.40909576],"min":[-3.7337656,0.0,-3.40909576],"type":"VEC3","name":"accessorPositions"},{"bufferView":1,"byteOffset":1447776,"componentType":5126,"count":96,"type":"VEC3","name":"accessorNormals"},{"bufferView":2,"byteOffset":482208,"componentType":5126,"count":96,"type":"VEC2","name":"accessorUVs"},{"bufferView":0,"byteOffset":120744,"componentType":5123,"count":96,"type":"SCALAR","name":"accessorIndices"},{"bufferView":1,"byteOffset":1448928,"componentType":5126,"count":96,"max":[3.73376465,4.22077942,3.40909576],"min":[-3.733766,0.0,-3.40909576],"type":"VEC3","name":"accessorPositions"},{"bufferView":1,"byteOffset":1450080,"componentType":5126,"count":96,"type":"VEC3","name":"accessorNormals"},{"bufferView":2,"byteOffset":482976,"componentType":5126,"count":96,"type":"VEC2","name":"accessorUVs"}],"bufferViews":[{"buffer":0,"byteLength":120936,"name":"bufferViewScalar"},{"buffer":0,"byteOffset":120936,"byteLength":1451232,"byteStride":12,"name":"bufferViewFloatVec3"},{"buffer":0,"byteOffset":1572168,"byteLength":483744,"byteStride":8,"name":"bufferViewFloatVec2"}],"buffers":[{"uri":"L9443WH_m.bin","byteLength":2055912}],"materials":[{"pbrMetallicRoughness":{"baseColorFactor":[0.6125001,0.6125001,0.6125001,1.0],"metallicFactor":0.0,"roughnessFactor":0.9},"emissiveFactor":[0.0,0.0,0.0],"alphaMode":"OPAQUE","name":"m_base0"}]}