{"asset":{"version":"2.0","generator":"babylon.js glTF exporter for 3ds max 2015 v1.3.33"},"scene":0,"scenes":[{"nodes":[0,1],"extensions":{}}],"nodes":[{"mesh":0,"translation":[0.0,0.0,0.0],"rotation":[-0.7071068,0.0,0.0,0.7071067],"scale":[0.9787403,0.9281604,0.9570625],"name":"Rectangle001"},{"translation":[0.0,0.0,0.0],"rotation":[0.0,0.0,0.0,1.0],"scale":[1.0,1.0,1.0],"name":"Default light"}],"meshes":[{"primitives":[{"attributes":{"POSITION":1,"NORMAL":2,"TEXCOORD_0":3},"indices":0}],"name":"Rectangle001"}],"accessors":[{"bufferView":0,"componentType":5123,"count":7380,"type":"SCALAR","name":"accessorIndices"},{"bufferView":1,"componentType":5126,"count":7380,"max":[21.04892,9.464325,55.706646],"min":[-20.8950844,-9.46435452,-0.135150373],"type":"VEC3","name":"accessorPositions"},{"bufferView":1,"byteOffset":88560,"componentType":5126,"count":7380,"type":"VEC3","name":"accessorNormals"},{"bufferView":2,"componentType":5126,"count":7380,"type":"VEC2","name":"accessorUVs"}],"bufferViews":[{"buffer":0,"byteLength":14760,"name":"bufferViewScalar"},{"buffer":0,"byteOffset":14760,"byteLength":177120,"byteStride":12,"name":"bufferViewFloatVec3"},{"buffer":0,"byteOffset":191880,"byteLength":59040,"byteStride":8,"name":"bufferViewFloatVec2"}],"buffers":[{"uri":"L9560WH.bin","byteLength":250920}]}