{"asset":{"version":"2.0","generator":"babylon.js glTF exporter for 3ds max 2015 v1.3.33"},"scene":0,"scenes":[{"nodes":[0,1],"extensions":{}}],"nodes":[{"mesh":0,"translation":[0.0,0.0,0.0],"rotation":[0.0,0.0,0.7071068,0.7071068],"scale":[0.099999994,0.099999994,0.099999994],"name":"050K_Кронштейн_L9240_(437х73х12)_б"},{"translation":[0.0,0.0,0.0],"rotation":[0.0,0.0,0.0,1.0],"scale":[1.0,1.0,1.0],"name":"Default light"}],"meshes":[{"primitives":[{"attributes":{"POSITION":1,"NORMAL":2,"TEXCOORD_0":3},"indices":0,"mode":4,"material":0}],"name":"050K_Кронштейн_L9240_(437х73х12)_б"}],"accessors":[{"bufferView":0,"componentType":5123,"count":2388,"type":"SCALAR","name":"accessorIndices"},{"bufferView":1,"componentType":5126,"count":2388,"max":[433.999969,5.999983,36.5000076],"min":[-1.93357573E-05,-6.000019,-36.49999],"type":"VEC3","name":"accessorPositions"},{"bufferView":1,"byteOffset":28656,"componentType":5126,"count":2388,"type":"VEC3","name":"accessorNormals"},{"bufferView":2,"componentType":5126,"count":2388,"type":"VEC2","name":"accessorUVs"}],"bufferViews":[{"buffer":0,"byteLength":4776,"name":"bufferViewScalar"},{"buffer":0,"byteOffset":4776,"byteLength":57312,"byteStride":12,"name":"bufferViewFloatVec3"},{"buffer":0,"byteOffset":62088,"byteLength":19104,"byteStride":8,"name":"bufferViewFloatVec2"}],"buffers":[{"uri":"L9240WH.bin","byteLength":81192}],"materials":[{"pbrMetallicRoughness":{"baseColorFactor":[0.6125001,0.6125001,0.6125001,1.0],"metallicFactor":0.0,"roughnessFactor":0.9},"emissiveFactor":[0.0,0.0,0.0],"alphaMode":"OPAQUE","name":"m_base0"}]}