{"asset":{"version":"2.0","generator":"babylon.js glTF exporter for 3ds max 2015 v1.3.33"},"scene":0,"scenes":[{"nodes":[0,1,2],"extensions":{}}],"nodes":[{"mesh":0,"translation":[0.0,0.0,0.0],"rotation":[0.0,0.0,-0.7071068,0.7071068],"scale":[0.099999994,0.099999994,0.099999994],"name":""},{"mesh":1,"translation":[-0.01703763,0.7851486,-0.115005076],"rotation":[0.0,0.0,0.0,1.0],"scale":[0.926481664,0.9271603,1.40484214],"name":"marker_4"},{"translation":[0.0,0.0,0.0],"rotation":[0.0,0.0,0.0,1.0],"scale":[1.0,1.0,1.0],"name":"Default light"}],"meshes":[{"primitives":[{"attributes":{"POSITION":1,"NORMAL":2,"TEXCOORD_0":3},"indices":0,"mode":4,"material":0}],"name":""},{"primitives":[{"attributes":{"POSITION":5,"NORMAL":6,"TEXCOORD_0":7},"indices":4,"mode":4,"material":1}],"name":"marker_4"}],"accessors":[{"bufferView":0,"componentType":5123,"count":1680,"type":"SCALAR","name":"accessorIndices"},{"bufferView":1,"componentType":5126,"count":1680,"max":[-8.614266,6.30000067,50.0968933],"min":[-18.16814,-6.30000162,-52.2955132],"type":"VEC3","name":"accessorPositions"},{"bufferView":1,"byteOffset":20160,"componentType":5126,"count":1680,"type":"VEC3","name":"accessorNormals"},{"bufferView":2,"componentType":5126,"count":1680,"type":"VEC2","name":"accessorUVs"},{"bufferView":0,"byteOffset":3360,"componentType":5123,"count":42,"type":"SCALAR","name":"accessorIndices"},{"bufferView":1,"byteOffset":40320,"componentType":5126,"count":42,"max":[1.50506258,0.806605339,0.18255654],"min":[-1.4499501,-1.76002431,-0.182556808],"type":"VEC3","name":"accessorPositions"},{"bufferView":1,"byteOffset":40824,"componentType":5126,"count":42,"type":"VEC3","name":"accessorNormals"},{"bufferView":2,"byteOffset":13440,"componentType":5126,"count":42,"type":"VEC2","name":"accessorUVs"}],"bufferViews":[{"buffer":0,"byteLength":3444,"name":"bufferViewScalar"},{"buffer":0,"byteOffset":3444,"byteLength":41328,"byteStride":12,"name":"bufferViewFloatVec3"},{"buffer":0,"byteOffset":44772,"byteLength":13776,"byteStride":8,"name":"bufferViewFloatVec2"}],"buffers":[{"uri":"L9711WH.bin","byteLength":58548}],"materials":[{"pbrMetallicRoughness":{"baseColorFactor":[0.6125001,0.6125001,0.6125001,1.0],"metallicFactor":0.0,"roughnessFactor":0.9},"emissiveFactor":[0.0,0.0,0.0],"alphaMode":"OPAQUE","name":"m_base0"},{"pbrMetallicRoughness":{"baseColorFactor":[0.03676471,0.03676471,0.03676471,1.0],"metallicFactor":0.0,"roughnessFactor":0.9},"emissiveFactor":[0.0,0.0,0.0],"alphaMode":"OPAQUE","name":"m_37"}]}