{"asset":{"version":"2.0","generator":"babylon.js glTF exporter for 3ds max 2015 v1.3.33"},"scene":0,"scenes":[{"nodes":[0,1],"extensions":{}}],"nodes":[{"mesh":0,"translation":[0.0,0.0,0.0],"rotation":[0.0,0.0,0.0,1.0],"scale":[0.099999994,0.099999994,0.099999994],"name":"V5_mm"},{"translation":[0.0,0.0,0.0],"rotation":[0.0,0.0,0.0,1.0],"scale":[1.0,1.0,1.0],"name":"Default light"}],"meshes":[{"primitives":[{"attributes":{"POSITION":1,"NORMAL":2,"TEXCOORD_0":3},"indices":0,"mode":4,"material":0}],"name":"V5_mm"}],"accessors":[{"bufferView":0,"componentType":5123,"count":9888,"type":"SCALAR","name":"accessorIndices"},{"bufferView":1,"componentType":5126,"count":9888,"max":[13.000001,18.5000057,10.0000048],"min":[-13.0,1.192093E-06,-10.0000048],"type":"VEC3","name":"accessorPositions"},{"bufferView":1,"byteOffset":118656,"componentType":5126,"count":9888,"type":"VEC3","name":"accessorNormals"},{"bufferView":2,"componentType":5126,"count":9888,"type":"VEC2","name":"accessorUVs"}],"bufferViews":[{"buffer":0,"byteLength":19776,"name":"bufferViewScalar"},{"buffer":0,"byteOffset":19776,"byteLength":237312,"byteStride":12,"name":"bufferViewFloatVec3"},{"buffer":0,"byteOffset":257088,"byteLength":79104,"byteStride":8,"name":"bufferViewFloatVec2"}],"buffers":[{"uri":"akesyar_tel.bin","byteLength":336192}],"materials":[{"pbrMetallicRoughness":{"baseColorFactor":[0.6125001,0.6125001,0.6125001,1.0],"metallicFactor":0.0,"roughnessFactor":0.9},"emissiveFactor":[0.0,0.0,0.0],"alphaMode":"OPAQUE","name":"m_base0"}]}