{"asset":{"version":"2.0","generator":"babylon.js glTF exporter for 3ds max 2015 v1.3.33"},"scene":0,"scenes":[{"nodes":[0,1],"extensions":{}}],"nodes":[{"mesh":0,"translation":[0.0,0.0,0.0],"rotation":[-5.76011558E-08,-0.7071068,-5.760116E-08,0.7071067],"scale":[23.0127659,2.6066587,23.0127659],"name":"Cube"},{"translation":[0.0,0.0,0.0],"rotation":[0.0,0.0,0.0,1.0],"scale":[1.0,1.0,1.0],"name":"Default light"}],"meshes":[{"primitives":[{"attributes":{"POSITION":1,"NORMAL":2,"TEXCOORD_0":3},"indices":0,"mode":4,"material":0}],"name":"Cube"}],"accessors":[{"bufferView":0,"componentType":5123,"count":12474,"type":"SCALAR","name":"accessorIndices"},{"bufferView":1,"componentType":5126,"count":12474,"max":[0.9811256,5.791645,0.977501869],"min":[-0.9811255,-0.00413285056,-0.977501869],"type":"VEC3","name":"accessorPositions"},{"bufferView":1,"byteOffset":149688,"componentType":5126,"count":12474,"type":"VEC3","name":"accessorNormals"},{"bufferView":2,"componentType":5126,"count":12474,"type":"VEC2","name":"accessorUVs"}],"bufferViews":[{"buffer":0,"byteLength":24948,"name":"bufferViewScalar"},{"buffer":0,"byteOffset":24948,"byteLength":299376,"byteStride":12,"name":"bufferViewFloatVec3"},{"buffer":0,"byteOffset":324324,"byteLength":99792,"byteStride":8,"name":"bufferViewFloatVec2"}],"buffers":[{"uri":"pill1.bin","byteLength":424116}],"materials":[{"pbrMetallicRoughness":{"baseColorFactor":[0.6125001,0.6125001,0.6125001,1.0],"metallicFactor":0.0,"roughnessFactor":0.9},"emissiveFactor":[0.0,0.0,0.0],"alphaMode":"OPAQUE","name":"m_10"}]}