{"asset":{"version":"2.0","generator":"babylon.js glTF exporter for 3ds max 2015 v1.3.33"},"scene":0,"scenes":[{"nodes":[0,1],"extensions":{}}],"nodes":[{"mesh":0,"translation":[0.0,0.0,0.0],"rotation":[0.0110688722,0.0,0.9999387,0.0],"scale":[0.0780899152,-0.0780899152,0.0780899152],"name":"Jeans_004"},{"translation":[0.0,0.0,0.0],"rotation":[0.0,0.0,0.0,1.0],"scale":[1.0,1.0,1.0],"name":"Default light"}],"meshes":[{"primitives":[{"attributes":{"POSITION":1,"NORMAL":2,"TEXCOORD_0":3},"indices":0,"mode":4,"material":0}],"name":"Jeans_004"}],"accessors":[{"bufferView":0,"componentType":5123,"count":49971,"type":"SCALAR","name":"accessorIndices"},{"bufferView":1,"componentType":5126,"count":49971,"max":[153.46637,110.67131,212.44812],"min":[-148.845139,-1.07456,-186.611008],"type":"VEC3","name":"accessorPositions"},{"bufferView":1,"byteOffset":599652,"componentType":5126,"count":49971,"type":"VEC3","name":"accessorNormals"},{"bufferView":2,"componentType":5126,"count":49971,"type":"VEC2","name":"accessorUVs"}],"bufferViews":[{"buffer":0,"byteLength":99944,"name":"bufferViewScalar"},{"buffer":0,"byteOffset":99944,"byteLength":1199304,"byteStride":12,"name":"bufferViewFloatVec3"},{"buffer":0,"byteOffset":1299248,"byteLength":399768,"byteStride":8,"name":"bufferViewFloatVec2"}],"buffers":[{"uri":"jins_2.bin","byteLength":1699016}],"materials":[{"pbrMetallicRoughness":{"baseColorFactor":[0.612745166,0.05718955,0.05718955,1.0],"metallicFactor":0.0,"roughnessFactor":0.9},"emissiveFactor":[0.0,0.0,0.0],"alphaMode":"OPAQUE","name":"m_33"}]}