{"asset":{"version":"2.0","generator":"babylon.js glTF exporter for 3ds max 2015 v1.3.33"},"scene":0,"scenes":[{"nodes":[0,1,2,3,4,5,6,7,8,9,10,11,12],"extensions":{}}],"nodes":[{"mesh":0,"translation":[86.9295654,0.499992371,-45.5613861],"rotation":[-0.7071068,0.0,0.0,0.7071067],"scale":[0.0009321629,0.0009321629,0.0009321629],"name":"md11_"},{"mesh":1,"translation":[5.0,-1.90734863E-06,-9.363407],"rotation":[-0.7071068,0.0,0.0,0.7071067],"scale":[0.001081843,0.001081843,0.001081843],"name":"md7_"},{"mesh":1,"translation":[5.0,0.0,-84.8576355],"rotation":[-0.7071068,0.0,0.0,0.7071067],"scale":[0.0158391558,0.0158391558,0.0158391558],"name":"md6_"},{"mesh":2,"translation":[95.0,-0.06655979,-94.99999],"rotation":[-0.7071068,0.0,0.0,0.7071067],"scale":[0.5462668,1.0,0.195799664],"name":"md5_"},{"mesh":3,"translation":[0.0,-0.06655866,-95.01197],"rotation":[-0.7071068,0.0,0.0,0.7071067],"scale":[0.532380939,1.0,0.195799664],"name":"md1_"},{"mesh":4,"translation":[95.0,-0.0665591955,-100.0],"rotation":[-0.7071068,0.0,0.0,0.7071067],"scale":[1.0,1.0,0.195799664],"name":"md4_"},{"mesh":5,"translation":[5.0,-0.0665591359,-100.011971],"rotation":[-0.7071068,0.0,0.0,0.7071067],"scale":[1.0,0.4293524,0.195799664],"name":"md3_"},{"mesh":6,"translation":[0.0,-0.0665591955,-100.011971],"rotation":[-0.7071068,0.0,0.0,0.7071067],"scale":[1.0,1.0,0.195799664],"name":"md2_"},{"mesh":7,"translation":[0.0,0.0,-100.0],"rotation":[0.0,0.0,0.0,1.0],"scale":[1.0,1.0,1.0],"name":"md12_"},{"mesh":8,"translation":[5.0,-0.0665591955,3.31380973E-15],"rotation":[-0.7071068,0.0,0.0,0.7071067],"scale":[1.0,0.463820428,0.195799664],"name":"md9_"},{"mesh":9,"translation":[95.00096,-0.06603496,2.15810724E-05],"rotation":[-0.7071068,0.0,0.0,0.7071067],"scale":[1.0,1.0,0.195799664],"name":"md10_"},{"mesh":10,"translation":[0.0,-0.0665591955,3.31380973E-15],"rotation":[-0.7071068,0.0,0.0,0.7071067],"scale":[1.0,1.0,0.195799664],"name":"md8_"},{"translation":[0.0,0.0,0.0],"rotation":[0.0,0.0,0.0,1.0],"scale":[1.0,1.0,1.0],"name":"Default light"}],"meshes":[{"primitives":[{"attributes":{"POSITION":1,"NORMAL":2},"indices":0,"mode":4,"material":0}],"name":"md11_"},{"primitives":[{"attributes":{"POSITION":4,"NORMAL":5,"TEXCOORD_0":6},"indices":3,"mode":4,"material":0}],"name":"md7_"},{"primitives":[{"attributes":{"POSITION":8,"NORMAL":9,"TEXCOORD_0":10},"indices":7,"mode":4,"material":0}],"name":"md5_"},{"primitives":[{"attributes":{"POSITION":12,"NORMAL":13,"TEXCOORD_0":14},"indices":11,"mode":4,"material":0}],"name":"md1_"},{"primitives":[{"attributes":{"POSITION":16,"NORMAL":17,"TEXCOORD_0":18},"indices":15,"mode":4,"material":0}],"name":"md4_"},{"primitives":[{"attributes":{"POSITION":20,"NORMAL":21,"TEXCOORD_0":22},"indices":19,"mode":4,"material":0}],"name":"md3_"},{"primitives":[{"attributes":{"POSITION":24,"NORMAL":25,"TEXCOORD_0":26},"indices":23,"mode":4,"material":0}],"name":"md2_"},{"primitives":[{"attributes":{"POSITION":28,"NORMAL":29,"TEXCOORD_0":30},"indices":27,"mode":4,"material":1}],"name":"md12_"},{"primitives":[{"attributes":{"POSITION":32,"NORMAL":33,"TEXCOORD_0":34},"indices":31,"mode":4,"material":0}],"name":"md9_"},{"primitives":[{"attributes":{"POSITION":36,"NORMAL":37,"TEXCOORD_0":38},"indices":35,"mode":4,"material":0}],"name":"md10_"},{"primitives":[{"attributes":{"POSITION":40,"NORMAL":41,"TEXCOORD_0":42},"indices":39,"mode":4,"material":0}],"name":"md8_"}],"accessors":[{"bufferView":0,"componentType":5123,"count":30666,"type":"SCALAR","name":"accessorIndices"},{"bufferView":1,"componentType":5126,"count":30666,"max":[4.9296875,9.183594,5.866577],"min":[-14.046875,0.0,-8.864624],"type":"VEC3","name":"accessorPositions"},{"bufferView":1,"byteOffset":367992,"componentType":5126,"count":30666,"type":"VEC3","name":"accessorNormals"},{"bufferView":0,"byteOffset":61332,"componentType":5123,"count":36,"type":"SCALAR","name":"accessorIndices"},{"bufferView":1,"byteOffset":735984,"componentType":5126,"count":36,"max":[2.11669922,4.669922,4.43648148],"min":[-2.116211,0.0,-4.436482],"type":"VEC3","name":"accessorPositions"},{"bufferView":1,"byteOffset":736416,"componentType":5126,"count":36,"type":"VEC3","name":"accessorNormals"},{"bufferView":2,"componentType":5126,"count":36,"type":"VEC2","name":"accessorUVs"},{"bufferView":0,"byteOffset":61404,"componentType":5123,"count":36,"type":"SCALAR","name":"accessorIndices"},{"bufferView":1,"byteOffset":736848,"componentType":5126,"count":36,"max":[9.159973,0.0,5.33989763],"min":[6.54660034,-50.0,-5.0],"type":"VEC3","name":"accessorPositions"},{"bufferView":1,"byteOffset":737280,"componentType":5126,"count":36,"type":"VEC3","name":"accessorNormals"},{"bufferView":2,"byteOffset":288,"componentType":5126,"count":36,"type":"VEC2","name":"accessorUVs"},{"bufferView":0,"byteOffset":61476,"componentType":5123,"count":36,"type":"SCALAR","name":"accessorIndices"},{"bufferView":1,"byteOffset":737712,"componentType":5126,"count":36,"max":[2.68153286,0.0,5.00000143],"min":[0.0,-50.0000076,-5.00000048],"type":"VEC3","name":"accessorPositions"},{"bufferView":1,"byteOffset":738144,"componentType":5126,"count":36,"type":"VEC3","name":"accessorNormals"},{"bufferView":2,"byteOffset":576,"componentType":5126,"count":36,"type":"VEC2","name":"accessorUVs"},{"bufferView":0,"byteOffset":61548,"componentType":5123,"count":84,"type":"SCALAR","name":"accessorIndices"},{"bufferView":1,"byteOffset":738576,"componentType":5126,"count":84,"max":[5.0,-7.62939453E-06,5.00518],"min":[0.0009613037,-5.00000763,-5.00000048],"type":"VEC3","name":"accessorPositions"},{"bufferView":1,"byteOffset":739584,"componentType":5126,"count":84,"type":"VEC3","name":"accessorNormals"},{"bufferView":2,"byteOffset":864,"componentType":5126,"count":84,"type":"VEC2","name":"accessorUVs"},{"bufferView":0,"byteOffset":61716,"componentType":5123,"count":36,"type":"SCALAR","name":"accessorIndices"},{"bufferView":1,"byteOffset":740592,"componentType":5126,"count":36,"max":[50.0,0.0,5.000002],"min":[0.0,-3.32501221,-5.000001],"type":"VEC3","name":"accessorPositions"},{"bufferView":1,"byteOffset":741024,"componentType":5126,"count":36,"type":"VEC3","name":"accessorNormals"},{"bufferView":2,"byteOffset":1536,"componentType":5126,"count":36,"type":"VEC2","name":"accessorUVs"},{"bufferView":0,"byteOffset":61788,"componentType":5123,"count":84,"type":"SCALAR","name":"accessorIndices"},{"bufferView":1,"byteOffset":741456,"componentType":5126,"count":84,"max":[5.0,-7.62939453E-06,5.000001],"min":[0.0,-5.00000763,-5.00000048],"type":"VEC3","name":"accessorPositions"},{"bufferView":1,"byteOffset":742464,"componentType":5126,"count":84,"type":"VEC3","name":"accessorNormals"},{"bufferView":2,"byteOffset":1824,"componentType":5126,"count":84,"type":"VEC2","name":"accessorUVs"},{"bufferView":0,"byteOffset":61956,"componentType":5123,"count":96,"type":"SCALAR","name":"accessorIndices"},{"bufferView":1,"byteOffset":743472,"componentType":5126,"count":96,"max":[100.0,0.0,100.0],"min":[0.0,0.0,0.0],"type":"VEC3","name":"accessorPositions"},{"bufferView":1,"byteOffset":744624,"componentType":5126,"count":96,"type":"VEC3","name":"accessorNormals"},{"bufferView":2,"byteOffset":2496,"componentType":5126,"count":96,"type":"VEC2","name":"accessorUVs"},{"bufferView":0,"byteOffset":62148,"componentType":5123,"count":36,"type":"SCALAR","name":"accessorIndices"},{"bufferView":1,"byteOffset":745776,"componentType":5126,"count":36,"max":[50.0,3.07790947,5.00000238],"min":[0.0,-1.001358E-05,-4.99999952],"type":"VEC3","name":"accessorPositions"},{"bufferView":1,"byteOffset":746208,"componentType":5126,"count":36,"type":"VEC3","name":"accessorNormals"},{"bufferView":2,"byteOffset":3264,"componentType":5126,"count":36,"type":"VEC2","name":"accessorUVs"},{"bufferView":0,"byteOffset":62220,"componentType":5123,"count":84,"type":"SCALAR","name":"accessorIndices"},{"bufferView":1,"byteOffset":746640,"componentType":5126,"count":84,"max":[4.9990387,5.00001764,5.002502],"min":[0.0,1.37728657E-05,-5.00267744],"type":"VEC3","name":"accessorPositions"},{"bufferView":1,"byteOffset":747648,"componentType":5126,"count":84,"type":"VEC3","name":"accessorNormals"},{"bufferView":2,"byteOffset":3552,"componentType":5126,"count":84,"type":"VEC2","name":"accessorUVs"},{"bufferView":0,"byteOffset":62388,"componentType":5123,"count":84,"type":"SCALAR","name":"accessorIndices"},{"bufferView":1,"byteOffset":748656,"componentType":5126,"count":84,"max":[5.0,4.999995,5.00000429],"min":[0.0,-0.00041258338,-5.0],"type":"VEC3","name":"accessorPositions"},{"bufferView":1,"byteOffset":749664,"componentType":5126,"count":84,"type":"VEC3","name":"accessorNormals"},{"bufferView":2,"byteOffset":4224,"componentType":5126,"count":84,"type":"VEC2","name":"accessorUVs"}],"bufferViews":[{"buffer":0,"byteLength":62556,"name":"bufferViewScalar"},{"buffer":0,"byteOffset":62556,"byteLength":750672,"byteStride":12,"name":"bufferViewFloatVec3"},{"buffer":0,"byteOffset":813228,"byteLength":4896,"byteStride":8,"name":"bufferViewFloatVec2"}],"buffers":[{"uri":"winj.bin","byteLength":818124}],"materials":[{"pbrMetallicRoughness":{"baseColorFactor":[0.1143791,0.1143791,0.461601377,1.0],"metallicFactor":0.0,"roughnessFactor":0.9},"emissiveFactor":[0.0,0.0,0.0],"alphaMode":"OPAQUE","name":"m_d0_"},{"pbrMetallicRoughness":{"baseColorFactor":[0.400326878,0.6740197,0.392156929,1.0],"metallicFactor":0.0,"roughnessFactor":0.9},"emissiveFactor":[0.0,0.0,0.0],"alphaMode":"OPAQUE","name":"m_d5_"}]}