{"asset":{"version":"2.0","generator":"babylon.js glTF exporter for 3ds max 2015 v1.3.33"},"scene":0,"scenes":[{"nodes":[0,1],"extensions":{}}],"nodes":[{"mesh":0,"translation":[0.0,0.0,0.0],"rotation":[0.0,-8.742278E-08,0.0,1.0],"scale":[0.099999994,0.099999994,0.099999994],"name":"pants_023"},{"translation":[0.0,0.0,0.0],"rotation":[0.0,0.0,0.0,1.0],"scale":[1.0,1.0,1.0],"name":"Default light"}],"meshes":[{"primitives":[{"attributes":{"POSITION":1,"NORMAL":2,"TEXCOORD_0":3},"indices":0,"mode":4,"material":0}],"name":"pants_023"}],"accessors":[{"bufferView":0,"componentType":5123,"count":26742,"type":"SCALAR","name":"accessorIndices"},{"bufferView":1,"componentType":5126,"count":26742,"max":[87.1007462,527.6984,134.721054],"min":[-39.75973,-5.30815172,-134.720932],"type":"VEC3","name":"accessorPositions"},{"bufferView":1,"byteOffset":320904,"componentType":5126,"count":26742,"type":"VEC3","name":"accessorNormals"},{"bufferView":2,"componentType":5126,"count":26742,"type":"VEC2","name":"accessorUVs"}],"bufferViews":[{"buffer":0,"byteLength":53484,"name":"bufferViewScalar"},{"buffer":0,"byteOffset":53484,"byteLength":641808,"byteStride":12,"name":"bufferViewFloatVec3"},{"buffer":0,"byteOffset":695292,"byteLength":213936,"byteStride":8,"name":"bufferViewFloatVec2"}],"buffers":[{"uri":"shtanci_3.bin","byteLength":909228}],"materials":[{"pbrMetallicRoughness":{"baseColorFactor":[0.6125001,0.6125001,0.6125001,1.0],"metallicFactor":0.0,"roughnessFactor":0.9},"emissiveFactor":[0.0,0.0,0.0],"alphaMode":"OPAQUE","name":"m_33"}]}