{"asset":{"version":"2.0","generator":"babylon.js glTF exporter for 3ds max 2018 v1.4.0"},"scene":0,"scenes":[{"nodes":[0,3],"extensions":{}}],"nodes":[{"children":[1,2],"translation":[-24.8991451,-4468.21533,13.2372694],"rotation":[0.0,0.0,0.0,1.0],"scale":[6111.67334,6111.67334,6111.67334],"name":"Group001"},{"mesh":0,"translation":[0.0,0.0004883423,-0.00649876427],"rotation":[8.74227837E-08,-7.76470235E-23,-8.881785E-16,1.0],"scale":[1.145125,1.145125,1.145125],"name":"dress"},{"mesh":1,"translation":[0.0122240912,0.000244201685,0.0],"rotation":[0.49999994,0.50000006,-0.499999881,0.5000001],"scale":[27.6628246,-29.8408947,29.8408947],"name":"Hangers"},{"translation":[0.0,0.0,0.0],"rotation":[0.0,0.0,0.0,1.0],"scale":[1.0,1.0,1.0],"name":"Default light"}],"meshes":[{"primitives":[{"attributes":{"POSITION":1,"NORMAL":2,"TEXCOORD_0":3},"indices":0}],"name":"dress"},{"primitives":[{"attributes":{"POSITION":5,"NORMAL":6,"TEXCOORD_0":7},"indices":4}],"name":"Hangers"}],"accessors":[{"bufferView":0,"componentType":5123,"count":5526,"type":"SCALAR","name":"accessorIndices"},{"bufferView":1,"componentType":5126,"count":5526,"max":[0.0425758623,0.891894162,0.14450793],"min":[-0.0425758623,-0.00246893312,-0.144508138],"type":"VEC3","name":"accessorPositions"},{"bufferView":1,"byteOffset":66312,"componentType":5126,"count":5526,"type":"VEC3","name":"accessorNormals"},{"bufferView":2,"componentType":5126,"count":5526,"type":"VEC2","name":"accessorUVs"},{"bufferView":0,"byteOffset":11052,"componentType":5123,"count":2286,"type":"SCALAR","name":"accessorIndices"},{"bufferView":1,"byteOffset":132624,"componentType":5126,"count":2286,"max":[0.007899928,0.000369291723,-0.0323985033],"min":[-0.00789993,-0.000369314541,-0.04025708],"type":"VEC3","name":"accessorPositions"},{"bufferView":1,"byteOffset":160056,"componentType":5126,"count":2286,"type":"VEC3","name":"accessorNormals"},{"bufferView":2,"byteOffset":44208,"componentType":5126,"count":2286,"type":"VEC2","name":"accessorUVs"}],"bufferViews":[{"buffer":0,"byteLength":15624,"name":"bufferViewScalar"},{"buffer":0,"byteOffset":15624,"byteLength":187488,"byteStride":12,"name":"bufferViewFloatVec3"},{"buffer":0,"byteOffset":203112,"byteLength":62496,"byteStride":8,"name":"bufferViewFloatVec2"}],"buffers":[{"uri":"xz1.bin","byteLength":265608}]}