{"asset":{"version":"2.0","generator":"babylon.js glTF exporter for 3ds max 2015 v1.3.33"},"scene":0,"scenes":[{"nodes":[0,3],"extensions":{}}],"nodes":[{"children":[1,2],"translation":[0.0,0.0,0.0],"rotation":[-0.5,-0.5,0.5,0.5],"scale":[0.09999999,0.09999999,0.104999982],"name":"Group001"},{"mesh":0,"translation":[204.221436,90.84904,-1.78608072],"rotation":[2.038251E-24,0.0,0.0,1.0],"scale":[0.981801867,1.0,0.9818018],"name":"Rectangle061"},{"mesh":1,"translation":[203.557053,-32.09151,0.3362338],"rotation":[-6.2096467E-07,-0.7071068,0.7071068,-6.209646E-07],"scale":[0.991386652,0.9913866,0.991386652],"name":"386_Basket_L019"},{"translation":[0.0,0.0,0.0],"rotation":[0.0,0.0,0.0,1.0],"scale":[1.0,1.0,1.0],"name":"Default light"}],"meshes":[{"primitives":[{"attributes":{"POSITION":1,"NORMAL":2},"indices":0,"mode":4,"material":0}],"name":"Rectangle061"},{"primitives":[{"attributes":{"POSITION":4,"NORMAL":5},"indices":3,"mode":4,"material":0}],"name":"386_Basket_L019"}],"accessors":[{"bufferView":0,"componentType":5123,"count":3168,"type":"SCALAR","name":"accessorIndices"},{"bufferView":1,"componentType":5126,"count":3168,"max":[207.461487,1.04438019,273.301331],"min":[-208.217682,-1.04438782,-269.663],"type":"VEC3","name":"accessorPositions"},{"bufferView":1,"byteOffset":38016,"componentType":5126,"count":3168,"type":"VEC3","name":"accessorNormals"},{"bufferView":0,"byteOffset":6336,"componentType":5123,"count":17376,"type":"SCALAR","name":"accessorIndices"},{"bufferView":1,"byteOffset":76032,"componentType":5126,"count":17376,"max":[195.611572,258.1142,60.321476],"min":[-195.590942,-258.112457,-124.678528],"type":"VEC3","name":"accessorPositions"},{"bufferView":1,"byteOffset":284544,"componentType":5126,"count":17376,"type":"VEC3","name":"accessorNormals"}],"bufferViews":[{"buffer":0,"byteLength":41088,"name":"bufferViewScalar"},{"buffer":0,"byteOffset":41088,"byteLength":493056,"byteStride":12,"name":"bufferViewFloatVec3"}],"buffers":[{"uri":"L9530WH.bin","byteLength":534144}],"materials":[{"pbrMetallicRoughness":{"baseColorFactor":[0.6125001,0.6125001,0.6125001,1.0],"metallicFactor":0.0,"roughnessFactor":0.9},"emissiveFactor":[0.0,0.0,0.0],"alphaMode":"OPAQUE","name":"m_base0"}]}