{"asset":{"version":"2.0","generator":"babylon.js glTF exporter for 3ds max 2015 v1.3.33"},"scene":0,"scenes":[{"nodes":[0,1],"extensions":{}}],"nodes":[{"mesh":0,"translation":[0.0,0.0,0.0],"rotation":[0.0,0.0,0.0,1.0],"scale":[2.54,2.54,2.54],"name":"51"},{"translation":[0.0,0.0,0.0],"rotation":[0.0,0.0,0.0,1.0],"scale":[1.0,1.0,1.0],"name":"Default light"}],"meshes":[{"primitives":[{"attributes":{"POSITION":1,"NORMAL":2,"TEXCOORD_0":3},"indices":0,"mode":4,"material":0}],"name":"51"}],"accessors":[{"bufferView":0,"componentType":5123,"count":1806,"type":"SCALAR","name":"accessorIndices"},{"bufferView":1,"componentType":5126,"count":1806,"max":[0.2952756,0.7027163,0.718504],"min":[-0.2952756,-2.34663968E-08,-0.718503952],"type":"VEC3","name":"accessorPositions"},{"bufferView":1,"byteOffset":21672,"componentType":5126,"count":1806,"type":"VEC3","name":"accessorNormals"},{"bufferView":2,"componentType":5126,"count":1806,"type":"VEC2","name":"accessorUVs"}],"bufferViews":[{"buffer":0,"byteLength":3612,"name":"bufferViewScalar"},{"buffer":0,"byteOffset":3612,"byteLength":43344,"byteStride":12,"name":"bufferViewFloatVec3"},{"buffer":0,"byteOffset":46956,"byteLength":14448,"byteStride":8,"name":"bufferViewFloatVec2"}],"buffers":[{"uri":"LWHK004.bin","byteLength":61404}],"materials":[{"pbrMetallicRoughness":{"baseColorFactor":[0.612745166,0.612745166,0.612745166,1.0],"metallicFactor":0.0,"roughnessFactor":0.9},"emissiveFactor":[0.0,0.0,0.0],"alphaMode":"OPAQUE","name":"m_Metal"}]}