{"asset":{"version":"2.0","generator":"babylon.js glTF exporter for 3ds max 2015 v1.3.33"},"scene":0,"scenes":[{"nodes":[0,1,2,3,4,5,6,7,8,9,10,11,12,13,14],"extensions":{}}],"nodes":[{"mesh":0,"translation":[95.5393,-0.178579688,-96.17879],"rotation":[-0.7071068,0.0,0.0,0.7071067],"scale":[1.0,1.0,0.6875476],"name":"md8_"},{"mesh":1,"translation":[5.0,-2.16355261E-06,-30.572567],"rotation":[-0.7071068,0.0,0.0,0.7071067],"scale":[0.00330473017,0.00330473017,0.00330473017],"name":"md12_"},{"mesh":2,"translation":[8.501059,-1.113558,-160.5717],"rotation":[-0.7071068,0.0,0.0,0.7071067],"scale":[0.0038629754,0.0038629754,0.0038629754],"name":"md13_"},{"mesh":3,"translation":[5.0,0.5,0.333435059],"rotation":[-0.7071068,0.0,0.0,0.7071067],"scale":[1.0,1.0,1.0],"name":"md9_"},{"mesh":4,"translation":[80.86837,-0.650267,-99.0],"rotation":[-0.7071068,0.0,0.0,0.7071067],"scale":[2.28406239,2.28406239,0.5975564],"name":"md11_"},{"mesh":5,"translation":[93.83344,0.0884952545,-99.0],"rotation":[-0.7071068,0.0,0.0,0.7071067],"scale":[0.0447390266,0.00585956825,0.004355841],"name":"md10_"},{"mesh":6,"translation":[5.0,-2.16355261E-06,-30.572567],"rotation":[-0.7071068,0.0,0.0,0.7071067],"scale":[0.00330473017,0.00330473017,0.00330473017],"name":"md7_"},{"mesh":6,"translation":[8.501059,-1.113558,-160.5717],"rotation":[-0.7071068,0.0,0.0,0.7071067],"scale":[0.0038629754,0.0038629754,0.0038629754],"name":"md6_"},{"mesh":7,"translation":[73.3164,-1.00001526,-188.552948],"rotation":[-0.7071068,0.0,0.0,0.7071067],"scale":[0.0009665508,0.009149864,0.0182288121],"name":"md5_"},{"mesh":8,"translation":[11.6389093,-1.00001359,-187.349213],"rotation":[-0.7071068,0.0,0.0,0.7071067],"scale":[0.00237922114,0.00237922114,0.00237922114],"name":"md1_"},{"mesh":9,"translation":[90.1644058,-1.00001526,-190.530823],"rotation":[-0.7071068,0.0,0.0,0.7071067],"scale":[0.0005975717,0.0005975717,0.0005975717],"name":"md4_"},{"mesh":9,"translation":[11.6389093,-1.00001359,-187.361115],"rotation":[-0.7071068,0.0,0.0,0.7071067],"scale":[0.00237922114,0.00237922114,0.00237922114],"name":"md2_"},{"mesh":10,"translation":[11.6508055,-1.00001359,-187.361115],"rotation":[-0.7071068,0.0,0.0,0.7071067],"scale":[0.00237922114,0.00237922114,0.00237922114],"name":"md3_"},{"mesh":11,"translation":[0.0,0.0,0.0],"rotation":[0.0,0.0,0.0,1.0],"scale":[1.0,1.0,1.0],"name":"md14_"},{"translation":[0.0,0.0,0.0],"rotation":[0.0,0.0,0.0,1.0],"scale":[1.0,1.0,1.0],"name":"Default light"}],"meshes":[{"primitives":[{"attributes":{"POSITION":1,"NORMAL":2,"TEXCOORD_0":3},"indices":0,"mode":4,"material":0}],"name":"md8_"},{"primitives":[{"attributes":{"POSITION":5,"NORMAL":6,"TEXCOORD_0":7},"indices":4,"mode":4,"material":0}],"name":"md12_"},{"primitives":[{"attributes":{"POSITION":9,"NORMAL":10,"TEXCOORD_0":11},"indices":8,"mode":4,"material":0}],"name":"md13_"},{"primitives":[{"attributes":{"POSITION":13,"NORMAL":14,"TEXCOORD_0":15},"indices":12,"mode":4,"material":1},{"attributes":{"POSITION":17,"NORMAL":18,"TEXCOORD_0":19},"indices":16,"mode":4,"material":2}],"name":"md9_"},{"primitives":[{"attributes":{"POSITION":21,"NORMAL":22,"TEXCOORD_0":23},"indices":20,"mode":4,"material":0}],"name":"md11_"},{"primitives":[{"attributes":{"POSITION":25,"NORMAL":26,"TEXCOORD_0":27},"indices":24,"mode":4,"material":0}],"name":"md10_"},{"primitives":[{"attributes":{"POSITION":29,"NORMAL":30,"TEXCOORD_0":31},"indices":28,"mode":4,"material":0}],"name":"md7_"},{"primitives":[{"attributes":{"POSITION":33,"NORMAL":34,"TEXCOORD_0":35},"indices":32,"mode":4,"material":2}],"name":"md5_"},{"primitives":[{"attributes":{"POSITION":37,"NORMAL":38,"TEXCOORD_0":39},"indices":36,"mode":4,"material":2}],"name":"md1_"},{"primitives":[{"attributes":{"POSITION":41,"NORMAL":42,"TEXCOORD_0":43},"indices":40,"mode":4,"material":2}],"name":"md4_"},{"primitives":[{"attributes":{"POSITION":45,"NORMAL":46,"TEXCOORD_0":47},"indices":44,"mode":4,"material":2}],"name":"md3_"},{"primitives":[{"attributes":{"POSITION":49,"NORMAL":50,"TEXCOORD_0":51},"indices":48,"mode":4,"material":3}],"name":"md14_"}],"accessors":[{"bufferView":0,"componentType":5123,"count":30444,"type":"SCALAR","name":"accessorIndices"},{"bufferView":1,"componentType":5126,"count":30444,"max":[-0.07292938,6.507004,0.517468452],"min":[-10.1598434,-10.6507645,-7.289729],"type":"VEC3","name":"accessorPositions"},{"bufferView":1,"byteOffset":365328,"componentType":5126,"count":30444,"type":"VEC3","name":"accessorNormals"},{"bufferView":2,"componentType":5126,"count":30444,"type":"VEC2","name":"accessorUVs"},{"bufferView":0,"byteOffset":60888,"componentType":5123,"count":36,"type":"SCALAR","name":"accessorIndices"},{"bufferView":1,"byteOffset":730656,"componentType":5126,"count":36,"max":[0.5625,1.64160156,12.3274794],"min":[-0.5625,0.0,-12.3274794],"type":"VEC3","name":"accessorPositions"},{"bufferView":1,"byteOffset":731088,"componentType":5126,"count":36,"type":"VEC3","name":"accessorNormals"},{"bufferView":2,"byteOffset":243552,"componentType":5126,"count":36,"type":"VEC2","name":"accessorUVs"},{"bufferView":0,"byteOffset":60960,"componentType":5123,"count":36,"type":"SCALAR","name":"accessorIndices"},{"bufferView":1,"byteOffset":731520,"componentType":5126,"count":36,"max":[0.562255859,1.64453125,12.3274841],"min":[-0.5625,0.0,-12.3274841],"type":"VEC3","name":"accessorPositions"},{"bufferView":1,"byteOffset":731952,"componentType":5126,"count":36,"type":"VEC3","name":"accessorNormals"},{"bufferView":2,"byteOffset":243840,"componentType":5126,"count":36,"type":"VEC2","name":"accessorUVs"},{"bufferView":0,"byteOffset":61032,"componentType":5123,"count":36,"type":"SCALAR","name":"accessorIndices"},{"bufferView":1,"byteOffset":732384,"componentType":5126,"count":36,"max":[89.6935,194.774612,0.0655998],"min":[0.205314636,2.06580329,-2.99999976],"type":"VEC3","name":"accessorPositions"},{"bufferView":1,"byteOffset":732816,"componentType":5126,"count":36,"type":"VEC3","name":"accessorNormals"},{"bufferView":2,"byteOffset":244128,"componentType":5126,"count":36,"type":"VEC2","name":"accessorUVs"},{"bufferView":0,"byteOffset":61104,"componentType":5123,"count":138,"type":"SCALAR","name":"accessorIndices"},{"bufferView":1,"byteOffset":733248,"componentType":5126,"count":138,"max":[90.43352,195.529861,0.0655998],"min":[-0.6026573,2.06580329,-2.99999976],"type":"VEC3","name":"accessorPositions"},{"bufferView":1,"byteOffset":734904,"componentType":5126,"count":138,"type":"VEC3","name":"accessorNormals"},{"bufferView":2,"byteOffset":244416,"componentType":5126,"count":138,"type":"VEC2","name":"accessorUVs"},{"bufferView":0,"byteOffset":61380,"componentType":5123,"count":18153,"type":"SCALAR","name":"accessorIndices"},{"bufferView":1,"byteOffset":736560,"componentType":5126,"count":18153,"max":[2.63731384,6.26829147,8.306311],"min":[-4.009924,3.05175781E-05,-11.0968666],"type":"VEC3","name":"accessorPositions"},{"bufferView":1,"byteOffset":954396,"componentType":5126,"count":18153,"type":"VEC3","name":"accessorNormals"},{"bufferView":2,"byteOffset":245520,"componentType":5126,"count":18153,"type":"VEC2","name":"accessorUVs"},{"bufferView":0,"byteOffset":97688,"componentType":5123,"count":36,"type":"SCALAR","name":"accessorIndices"},{"bufferView":1,"byteOffset":1172232,"componentType":5126,"count":36,"max":[-2.116455,4.669922,-0.08264923],"min":[-2.225586,0.0,-2.92876053],"type":"VEC3","name":"accessorPositions"},{"bufferView":1,"byteOffset":1172664,"componentType":5126,"count":36,"type":"VEC3","name":"accessorNormals"},{"bufferView":2,"byteOffset":390744,"componentType":5126,"count":36,"type":"VEC2","name":"accessorUVs"},{"bufferView":0,"byteOffset":97760,"componentType":5123,"count":36,"type":"SCALAR","name":"accessorIndices"},{"bufferView":1,"byteOffset":1173096,"componentType":5126,"count":36,"max":[2.11669922,4.66894531,4.43648148],"min":[-2.11669922,0.0,-4.436482],"type":"VEC3","name":"accessorPositions"},{"bufferView":1,"byteOffset":1173528,"componentType":5126,"count":36,"type":"VEC3","name":"accessorNormals"},{"bufferView":2,"byteOffset":391032,"componentType":5126,"count":36,"type":"VEC2","name":"accessorUVs"},{"bufferView":0,"byteOffset":97832,"componentType":5123,"count":36,"type":"SCALAR","name":"accessorIndices"},{"bufferView":1,"byteOffset":1173960,"componentType":5126,"count":36,"max":[5.0,-44.22461,0.519825],"min":[0.0,-49.9980469,-0.6063843],"type":"VEC3","name":"accessorPositions"},{"bufferView":1,"byteOffset":1174392,"componentType":5126,"count":36,"type":"VEC3","name":"accessorNormals"},{"bufferView":2,"byteOffset":391320,"componentType":5126,"count":36,"type":"VEC2","name":"accessorUVs"},{"bufferView":0,"byteOffset":97904,"componentType":5123,"count":36,"type":"SCALAR","name":"accessorIndices"},{"bufferView":1,"byteOffset":1174824,"componentType":5126,"count":36,"max":[5.0,0.0,5.0],"min":[0.0,-50.0,-5.00003052],"type":"VEC3","name":"accessorPositions"},{"bufferView":1,"byteOffset":1175256,"componentType":5126,"count":36,"type":"VEC3","name":"accessorNormals"},{"bufferView":2,"byteOffset":391608,"componentType":5126,"count":36,"type":"VEC2","name":"accessorUVs"},{"bufferView":0,"byteOffset":97976,"componentType":5123,"count":36,"type":"SCALAR","name":"accessorIndices"},{"bufferView":1,"byteOffset":1175688,"componentType":5126,"count":36,"max":[5.015625,0.0,5.0],"min":[0.0,-5.0,-5.0],"type":"VEC3","name":"accessorPositions"},{"bufferView":1,"byteOffset":1176120,"componentType":5126,"count":36,"type":"VEC3","name":"accessorNormals"},{"bufferView":2,"byteOffset":391896,"componentType":5126,"count":36,"type":"VEC2","name":"accessorUVs"},{"bufferView":0,"byteOffset":98048,"componentType":5123,"count":36,"type":"SCALAR","name":"accessorIndices"},{"bufferView":1,"byteOffset":1176552,"componentType":5126,"count":36,"max":[50.0,0.0,5.0],"min":[0.0,-5.0078125,-5.00003052],"type":"VEC3","name":"accessorPositions"},{"bufferView":1,"byteOffset":1176984,"componentType":5126,"count":36,"type":"VEC3","name":"accessorNormals"},{"bufferView":2,"byteOffset":392184,"componentType":5126,"count":36,"type":"VEC2","name":"accessorUVs"},{"bufferView":0,"byteOffset":98120,"componentType":5123,"count":96,"type":"SCALAR","name":"accessorIndices"},{"bufferView":1,"byteOffset":1177416,"componentType":5126,"count":96,"max":[100.0,0.0,100.0],"min":[0.0,0.0,0.0],"type":"VEC3","name":"accessorPositions"},{"bufferView":1,"byteOffset":1178568,"componentType":5126,"count":96,"type":"VEC3","name":"accessorNormals"},{"bufferView":2,"byteOffset":392472,"componentType":5126,"count":96,"type":"VEC2","name":"accessorUVs"}],"bufferViews":[{"buffer":0,"byteLength":98312,"name":"bufferViewScalar"},{"buffer":0,"byteOffset":98312,"byteLength":1179720,"byteStride":12,"name":"bufferViewFloatVec3"},{"buffer":0,"byteOffset":1278032,"byteLength":393240,"byteStride":8,"name":"bufferViewFloatVec2"}],"buffers":[{"uri":"door_7.bin","byteLength":1671272}],"materials":[{"pbrMetallicRoughness":{"baseColorFactor":[0.539215744,0.539215744,0.539215744,1.0],"metallicFactor":0.0,"roughnessFactor":0.9},"emissiveFactor":[0.0,0.0,0.0],"alphaMode":"OPAQUE","name":"m_d2_"},{"pbrMetallicRoughness":{"baseColorFactor":[0.9885622,0.9681374,0.9722224,1.0],"metallicFactor":0.0,"roughnessFactor":0.9},"emissiveFactor":[0.0,0.0,0.0],"alphaMode":"OPAQUE","name":"m_d1_"},{"pbrMetallicRoughness":{"baseColorFactor":[0.236928135,0.236928135,0.236928135,1.0],"metallicFactor":0.0,"roughnessFactor":0.9},"emissiveFactor":[0.0,0.0,0.0],"alphaMode":"OPAQUE","name":"m_d0_"},{"pbrMetallicRoughness":{"baseColorFactor":[1.0,1.0,0.9926472,1.0],"metallicFactor":0.0,"roughnessFactor":0.9},"emissiveFactor":[0.0,0.0,0.0],"alphaMode":"OPAQUE","name":"m_d4_"}]}