{"asset":{"version":"2.0","generator":"babylon.js glTF exporter for 3ds max 2015 v1.3.33"},"scene":0,"scenes":[{"nodes":[0,7],"extensions":{}}],"nodes":[{"children":[1,4],"translation":[0.0,0.0,0.0],"rotation":[0.0,0.0,0.0,1.0],"scale":[1.0,1.0,1.0],"name":"Group017"},{"children":[2,3],"translation":[3.627716,35.2882347,1.1920929E-06],"rotation":[0.0,0.7071068,0.0,0.7071067],"scale":[0.17353,0.17353,0.17353],"name":"Group015"},{"mesh":0,"translation":[1.18391764,-698.133667,-1049.847],"rotation":[0.7071068,0.0,0.0,0.7071067],"scale":[22.9985638,22.9985638,22.9985638],"name":"mesh030"},{"mesh":1,"translation":[1.18391764,-698.133667,-1051.00818],"rotation":[0.7071068,0.0,0.0,0.7071067],"scale":[22.9985638,22.9985638,22.9985638],"name":"mesh029"},{"children":[5,6],"translation":[-1.59352112,67.20831,-0.469154358],"rotation":[0.0,0.0,0.0,1.0],"scale":[1.0,1.0,1.0],"name":"Group016"},{"mesh":2,"translation":[-7.62939453E-06,-0.0819778442,-8.34465E-07],"rotation":[-0.499999881,-0.5000001,-0.49999997,0.50000006],"scale":[0.099999994,0.099999994,0.099999994],"name":"Object020"},{"mesh":3,"translation":[-7.62939453E-06,0.0819778442,-8.34465E-07],"rotation":[-0.499999881,-0.5000001,-0.49999997,0.50000006],"scale":[0.099999994,0.099999994,0.099999994],"name":"Object021"},{"translation":[0.0,0.0,0.0],"rotation":[0.0,0.0,0.0,1.0],"scale":[1.0,1.0,1.0],"name":"Default light"}],"meshes":[{"primitives":[{"attributes":{"POSITION":1,"NORMAL":2,"TEXCOORD_0":3},"indices":0,"mode":4,"material":0}],"name":"mesh030"},{"primitives":[{"attributes":{"POSITION":5,"NORMAL":6,"TEXCOORD_0":7},"indices":4,"mode":4,"material":0}],"name":"mesh029"},{"primitives":[{"attributes":{"POSITION":9,"NORMAL":10,"TEXCOORD_0":11},"indices":8,"mode":4,"material":1}],"name":"Object020"},{"primitives":[{"attributes":{"POSITION":13,"NORMAL":14,"TEXCOORD_0":15},"indices":12,"mode":4,"material":2}],"name":"Object021"}],"accessors":[{"bufferView":0,"componentType":5123,"count":3162,"type":"SCALAR","name":"accessorIndices"},{"bufferView":1,"componentType":5126,"count":3162,"max":[5.551536,45.8848572,-21.5134525],"min":[-5.5889,43.7479019,-36.36989],"type":"VEC3","name":"accessorPositions"},{"bufferView":1,"byteOffset":37944,"componentType":5126,"count":3162,"type":"VEC3","name":"accessorNormals"},{"bufferView":2,"componentType":5126,"count":3162,"type":"VEC2","name":"accessorUVs"},{"bufferView":0,"byteOffset":6324,"componentType":5123,"count":7812,"type":"SCALAR","name":"accessorIndices"},{"bufferView":1,"byteOffset":75888,"componentType":5126,"count":7812,"max":[5.565002,46.0487328,-23.8410187],"min":[-5.66795635,43.5310059,-39.1976242],"type":"VEC3","name":"accessorPositions"},{"bufferView":1,"byteOffset":169632,"componentType":5126,"count":7812,"type":"VEC3","name":"accessorNormals"},{"bufferView":2,"byteOffset":25296,"componentType":5126,"count":7812,"type":"VEC2","name":"accessorUVs"},{"bufferView":0,"byteOffset":21948,"componentType":5123,"count":1260,"type":"SCALAR","name":"accessorIndices"},{"bufferView":1,"byteOffset":263376,"componentType":5126,"count":1260,"max":[189.598267,8.863314,18.3955078],"min":[-189.598267,-8.863312,-94.30298],"type":"VEC3","name":"accessorPositions"},{"bufferView":1,"byteOffset":278496,"componentType":5126,"count":1260,"type":"VEC3","name":"accessorNormals"},{"bufferView":2,"byteOffset":87792,"componentType":5126,"count":1260,"type":"VEC2","name":"accessorUVs"},{"bufferView":0,"byteOffset":24468,"componentType":5123,"count":1026,"type":"SCALAR","name":"accessorIndices"},{"bufferView":1,"byteOffset":293616,"componentType":5126,"count":1026,"max":[32.8378143,7.040489,94.30298],"min":[-32.15166,3.65871048,12.7817993],"type":"VEC3","name":"accessorPositions"},{"bufferView":1,"byteOffset":305928,"componentType":5126,"count":1026,"type":"VEC3","name":"accessorNormals"},{"bufferView":2,"byteOffset":97872,"componentType":5126,"count":1026,"type":"VEC2","name":"accessorUVs"}],"bufferViews":[{"buffer":0,"byteLength":26520,"name":"bufferViewScalar"},{"buffer":0,"byteOffset":26520,"byteLength":318240,"byteStride":12,"name":"bufferViewFloatVec3"},{"buffer":0,"byteOffset":344760,"byteLength":106080,"byteStride":8,"name":"bufferViewFloatVec2"}],"buffers":[{"uri":"TS_7.bin","byteLength":450840}],"materials":[{"pbrMetallicRoughness":{"baseColorFactor":[0.7148694,0.612745166,0.8700982,1.0],"metallicFactor":0.0,"roughnessFactor":0.9},"emissiveFactor":[0.0,0.0,0.0],"alphaMode":"OPAQUE","name":"m_10"},{"pbrMetallicRoughness":{"baseColorFactor":[0.06535949,0.06535949,0.06535949,1.0],"metallicFactor":0.0,"roughnessFactor":0.9},"emissiveFactor":[0.0,0.0,0.0],"alphaMode":"OPAQUE","name":"m_31"},{"pbrMetallicRoughness":{"baseColorFactor":[0.212418333,0.416666746,0.6740197,1.0],"metallicFactor":0.0,"roughnessFactor":0.9},"emissiveFactor":[0.0,0.0,0.0],"alphaMode":"OPAQUE","name":"m_32"}]}