{"asset":{"version":"2.0","generator":"babylon.js glTF exporter for 3ds max 2015 v1.3.33"},"scene":0,"scenes":[{"nodes":[0,5],"extensions":{}}],"nodes":[{"children":[1,2],"translation":[0.0,0.0,0.0],"rotation":[0.0,0.0,0.0,1.0],"scale":[1.0,1.0,1.0],"name":"Group022"},{"mesh":0,"translation":[-1.36682558,33.43748,-0.839468],"rotation":[0.5,-0.50000006,0.5,0.4999999],"scale":[0.099999994,0.099999994,0.099999994],"name":"maika"},{"children":[3,4],"translation":[-0.678288,71.85904,0.0],"rotation":[0.0,0.0,0.0,1.0],"scale":[1.0,1.0,1.0],"name":"Group021"},{"mesh":1,"translation":[0.0,0.0,-8.34465E-07],"rotation":[-0.499999881,-0.5000001,-0.49999997,0.50000006],"scale":[0.099999994,0.099999994,0.099999994],"name":"Object026"},{"mesh":2,"translation":[0.0,0.0,-8.34465E-07],"rotation":[-0.499999881,-0.5000001,-0.49999997,0.50000006],"scale":[0.099999994,0.099999994,0.099999994],"name":"Object027"},{"translation":[0.0,0.0,0.0],"rotation":[0.0,0.0,0.0,1.0],"scale":[1.0,1.0,1.0],"name":"Default light"}],"meshes":[{"primitives":[{"attributes":{"POSITION":1,"NORMAL":2,"TEXCOORD_0":3},"indices":0,"mode":4,"material":0}],"name":"maika"},{"primitives":[{"attributes":{"POSITION":5,"NORMAL":6,"TEXCOORD_0":7},"indices":4,"mode":4,"material":1}],"name":"Object026"},{"primitives":[{"attributes":{"POSITION":9,"NORMAL":10,"TEXCOORD_0":11},"indices":8,"mode":4,"material":2}],"name":"Object027"}],"accessors":[{"bufferView":0,"componentType":5123,"count":3930,"type":"SCALAR","name":"accessorIndices"},{"bufferView":1,"componentType":5126,"count":3930,"max":[139.9798,44.265,334.9998],"min":[-139.533463,-71.60149,-345.275177],"type":"VEC3","name":"accessorPositions"},{"bufferView":1,"byteOffset":47160,"componentType":5126,"count":3930,"type":"VEC3","name":"accessorNormals"},{"bufferView":2,"componentType":5126,"count":3930,"type":"VEC2","name":"accessorUVs"},{"bufferView":0,"byteOffset":7860,"componentType":5123,"count":1260,"type":"SCALAR","name":"accessorIndices"},{"bufferView":1,"byteOffset":94320,"componentType":5126,"count":1260,"max":[189.598267,8.863314,18.3955688],"min":[-189.598267,-8.863314,-94.30298],"type":"VEC3","name":"accessorPositions"},{"bufferView":1,"byteOffset":109440,"componentType":5126,"count":1260,"type":"VEC3","name":"accessorNormals"},{"bufferView":2,"byteOffset":31440,"componentType":5126,"count":1260,"type":"VEC2","name":"accessorUVs"},{"bufferView":0,"byteOffset":10380,"componentType":5123,"count":1026,"type":"SCALAR","name":"accessorIndices"},{"bufferView":1,"byteOffset":124560,"componentType":5126,"count":1026,"max":[32.8378143,7.04048824,94.30298],"min":[-32.15166,3.65870929,12.7817383],"type":"VEC3","name":"accessorPositions"},{"bufferView":1,"byteOffset":136872,"componentType":5126,"count":1026,"type":"VEC3","name":"accessorNormals"},{"bufferView":2,"byteOffset":41520,"componentType":5126,"count":1026,"type":"VEC2","name":"accessorUVs"}],"bufferViews":[{"buffer":0,"byteLength":12432,"name":"bufferViewScalar"},{"buffer":0,"byteOffset":12432,"byteLength":149184,"byteStride":12,"name":"bufferViewFloatVec3"},{"buffer":0,"byteOffset":161616,"byteLength":49728,"byteStride":8,"name":"bufferViewFloatVec2"}],"buffers":[{"uri":"TS_9.bin","byteLength":211344}],"materials":[{"pbrMetallicRoughness":{"baseColorFactor":[0.7148694,0.612745166,0.8700982,1.0],"metallicFactor":0.0,"roughnessFactor":0.9},"emissiveFactor":[0.0,0.0,0.0],"alphaMode":"OPAQUE","name":"m_10"},{"pbrMetallicRoughness":{"baseColorFactor":[0.06535949,0.06535949,0.06535949,1.0],"metallicFactor":0.0,"roughnessFactor":0.9},"emissiveFactor":[0.0,0.0,0.0],"alphaMode":"OPAQUE","name":"m_31"},{"pbrMetallicRoughness":{"baseColorFactor":[0.212418333,0.416666746,0.6740197,1.0],"metallicFactor":0.0,"roughnessFactor":0.9},"emissiveFactor":[0.0,0.0,0.0],"alphaMode":"OPAQUE","name":"m_32"}]}