{"asset":{"version":"2.0","generator":"babylon.js glTF exporter for 3ds max 2015 v1.3.33"},"scene":0,"scenes":[{"nodes":[0,1,2],"extensions":{}}],"nodes":[{"mesh":0,"translation":[0.0,0.0,0.0],"rotation":[0.0,0.0,0.0,1.0],"scale":[0.099999994,0.099999994,0.099999994],"name":"Box001"},{"mesh":1,"translation":[0.154324532,13.5007839,-0.121497154],"rotation":[0.5,-0.50000006,-0.49999994,0.5],"scale":[0.350947827,0.630207658,0.385708],"name":"markerObj_tit11"},{"translation":[0.0,0.0,0.0],"rotation":[0.0,0.0,0.0,1.0],"scale":[1.0,1.0,1.0],"name":"Default light"}],"meshes":[{"primitives":[{"attributes":{"POSITION":1,"NORMAL":2,"TEXCOORD_0":3},"indices":0,"mode":4,"material":0}],"name":"Box001"},{"primitives":[{"attributes":{"POSITION":5,"NORMAL":6,"TEXCOORD_0":7},"indices":4}],"name":"markerObj_tit11"}],"accessors":[{"bufferView":0,"componentType":5123,"count":36,"type":"SCALAR","name":"accessorIndices"},{"bufferView":1,"componentType":5126,"count":36,"max":[292.5,409.289825,8.0],"min":[-292.5,0.0,-8.0],"type":"VEC3","name":"accessorPositions"},{"bufferView":1,"byteOffset":432,"componentType":5126,"count":36,"type":"VEC3","name":"accessorNormals"},{"bufferView":2,"componentType":5126,"count":36,"type":"VEC2","name":"accessorUVs"},{"bufferView":0,"byteOffset":72,"componentType":5123,"count":96,"type":"SCALAR","name":"accessorIndices"},{"bufferView":1,"byteOffset":864,"componentType":5126,"count":96,"max":[3.73376465,4.22078,3.40909123],"min":[-3.73376846,0.0,-3.409091],"type":"VEC3","name":"accessorPositions"},{"bufferView":1,"byteOffset":2016,"componentType":5126,"count":96,"type":"VEC3","name":"accessorNormals"},{"bufferView":2,"byteOffset":288,"componentType":5126,"count":96,"type":"VEC2","name":"accessorUVs"}],"bufferViews":[{"buffer":0,"byteLength":264,"name":"bufferViewScalar"},{"buffer":0,"byteOffset":264,"byteLength":3168,"byteStride":12,"name":"bufferViewFloatVec3"},{"buffer":0,"byteOffset":3432,"byteLength":1056,"byteStride":8,"name":"bufferViewFloatVec2"}],"buffers":[{"uri":"LWWH3067_ mmmm.bin","byteLength":4488}],"materials":[{"pbrMetallicRoughness":{"baseColorFactor":[0.9436276,0.9436276,0.9436276,1.0],"metallicFactor":0.0,"roughnessFactor":0.9},"emissiveFactor":[0.0,0.0,0.0],"alphaMode":"OPAQUE","name":"m_base0"}]}