{"asset":{"version":"2.0","generator":"babylon.js glTF exporter for 3ds max 2015 v1.3.33"},"scene":0,"scenes":[{"nodes":[0,1],"extensions":{}}],"nodes":[{"mesh":0,"translation":[0.0,0.0,0.0],"rotation":[0.0,0.0,0.0,1.0],"scale":[0.099999994,0.099999994,0.099999994],"name":"Телескопический_рельс_точный_ЗАКРЫТЫЙ_ (1)"},{"translation":[0.0,0.0,0.0],"rotation":[0.0,0.0,0.0,1.0],"scale":[1.0,1.0,1.0],"name":"Default light"}],"meshes":[{"primitives":[{"attributes":{"POSITION":1,"NORMAL":2},"indices":0,"mode":4,"material":0}],"name":"Телескопический_рельс_точный_ЗАКРЫТЫЙ_ (1)"}],"accessors":[{"bufferView":0,"componentType":5123,"count":25758,"type":"SCALAR","name":"accessorIndices"},{"bufferView":1,"componentType":5126,"count":25758,"max":[17.5000038,377.75,9.658496],"min":[-17.44835,0.0,-9.658496],"type":"VEC3","name":"accessorPositions"},{"bufferView":1,"byteOffset":309096,"componentType":5126,"count":25758,"type":"VEC3","name":"accessorNormals"}],"bufferViews":[{"buffer":0,"byteLength":51516,"name":"bufferViewScalar"},{"buffer":0,"byteOffset":51516,"byteLength":618192,"byteStride":12,"name":"bufferViewFloatVec3"}],"buffers":[{"uri":"teleskopik.bin","byteLength":669708}],"materials":[{"pbrMetallicRoughness":{"baseColorFactor":[0.6125001,0.6125001,0.6125001,1.0],"metallicFactor":0.0,"roughnessFactor":0.9},"emissiveFactor":[0.0,0.0,0.0],"alphaMode":"OPAQUE","name":"m_Metal"}]}