{"asset":{"version":"2.0","generator":"babylon.js glTF exporter for 3ds max 2015 v1.3.33"},"scene":0,"scenes":[{"nodes":[0,1],"extensions":{}}],"nodes":[{"mesh":0,"translation":[0.0,0.0,0.0],"rotation":[0.0,0.0,-0.7071068,0.7071068],"scale":[1.0,1.01437414,0.9716007],"name":"Box101"},{"translation":[0.0,0.0,0.0],"rotation":[0.0,0.0,0.0,1.0],"scale":[1.0,1.0,1.0],"name":"Default light"}],"meshes":[{"primitives":[{"attributes":{"POSITION":1,"NORMAL":2,"TEXCOORD_0":3},"indices":0,"mode":4,"material":0}],"name":"Box101"}],"accessors":[{"bufferView":0,"componentType":5123,"count":24570,"type":"SCALAR","name":"accessorIndices"},{"bufferView":1,"componentType":5126,"count":24570,"max":[0.173714817,27.70147,9.889671],"min":[-40.8725128,-27.68733,-8.76875],"type":"VEC3","name":"accessorPositions"},{"bufferView":1,"byteOffset":294840,"componentType":5126,"count":24570,"type":"VEC3","name":"accessorNormals"},{"bufferView":2,"componentType":5126,"count":24570,"type":"VEC2","name":"accessorUVs"}],"bufferViews":[{"buffer":0,"byteLength":49140,"name":"bufferViewScalar"},{"buffer":0,"byteOffset":49140,"byteLength":589680,"byteStride":12,"name":"bufferViewFloatVec3"},{"buffer":0,"byteOffset":638820,"byteLength":196560,"byteStride":8,"name":"bufferViewFloatVec2"}],"buffers":[{"uri":"testsetka4.bin","byteLength":835380}],"materials":[{"pbrMetallicRoughness":{"baseColorFactor":[0.6125001,0.6125001,0.6125001,1.0],"metallicFactor":0.0,"roughnessFactor":0.9},"emissiveFactor":[0.0,0.0,0.0],"alphaMode":"OPAQUE","name":"m_base0"}]}