{"asset":{"version":"2.0","generator":"babylon.js glTF exporter for 3ds max 2015 v1.3.33"},"scene":0,"scenes":[{"nodes":[0,1],"extensions":{}}],"nodes":[{"mesh":0,"translation":[0.0,0.0,0.0],"rotation":[0.0,0.675590158,0.0,0.7372774],"scale":[0.5663494,0.5663494,0.5663494],"name":"17344_Hobo_bag_womens001"},{"translation":[0.0,0.0,0.0],"rotation":[0.0,0.0,0.0,1.0],"scale":[1.0,1.0,1.0],"name":"Default light"}],"meshes":[{"primitives":[{"attributes":{"POSITION":1,"NORMAL":2,"TEXCOORD_0":3},"indices":0,"mode":4,"material":0}],"name":"17344_Hobo_bag_womens001"}],"accessors":[{"bufferView":0,"componentType":5123,"count":5424,"type":"SCALAR","name":"accessorIndices"},{"bufferView":1,"componentType":5126,"count":5424,"max":[26.4620476,44.9575844,12.2652159],"min":[-26.4896221,0.3892107,-12.3085194],"type":"VEC3","name":"accessorPositions"},{"bufferView":1,"byteOffset":65088,"componentType":5126,"count":5424,"type":"VEC3","name":"accessorNormals"},{"bufferView":2,"componentType":5126,"count":5424,"type":"VEC2","name":"accessorUVs"}],"bufferViews":[{"buffer":0,"byteLength":10848,"name":"bufferViewScalar"},{"buffer":0,"byteOffset":10848,"byteLength":130176,"byteStride":12,"name":"bufferViewFloatVec3"},{"buffer":0,"byteOffset":141024,"byteLength":43392,"byteStride":8,"name":"bufferViewFloatVec2"}],"buffers":[{"uri":"sumka_4.bin","byteLength":184416}],"materials":[{"pbrMetallicRoughness":{"baseColorFactor":[0.6125001,0.6125001,0.6125001,1.0],"metallicFactor":0.0,"roughnessFactor":0.9},"emissiveFactor":[0.0,0.0,0.0],"alphaMode":"OPAQUE","name":"m_10"}]}