{"asset":{"version":"2.0","generator":"babylon.js glTF exporter for 3ds max 2015 v1.3.33"},"scene":0,"scenes":[{"nodes":[0,1],"extensions":{}}],"nodes":[{"mesh":0,"translation":[0.0,0.0,0.0],"rotation":[1.2665987E-07,5.96046448E-08,-7.54951657E-15,1.0],"scale":[1.0,0.95900023,1.0],"name":"L9540WH003"},{"translation":[0.0,0.0,0.0],"rotation":[0.0,0.0,0.0,1.0],"scale":[1.0,1.0,1.0],"name":"Default light"}],"meshes":[{"primitives":[{"attributes":{"POSITION":1,"NORMAL":2,"TEXCOORD_0":3},"indices":0,"mode":4,"material":0}],"name":"L9540WH003"}],"accessors":[{"bufferView":0,"componentType":5123,"count":12510,"type":"SCALAR","name":"accessorIndices"},{"bufferView":1,"componentType":5126,"count":12510,"max":[29.4,42.3999977,5.24672174],"min":[-29.4000015,-1.34630056E-06,-5.24673271],"type":"VEC3","name":"accessorPositions"},{"bufferView":1,"byteOffset":150120,"componentType":5126,"count":12510,"type":"VEC3","name":"accessorNormals"},{"bufferView":2,"componentType":5126,"count":12510,"type":"VEC2","name":"accessorUVs"}],"bufferViews":[{"buffer":0,"byteLength":25020,"name":"bufferViewScalar"},{"buffer":0,"byteOffset":25020,"byteLength":300240,"byteStride":12,"name":"bufferViewFloatVec3"},{"buffer":0,"byteOffset":325260,"byteLength":100080,"byteStride":8,"name":"bufferViewFloatVec2"}],"buffers":[{"uri":"L9539WH.bin","byteLength":425340}],"materials":[{"pbrMetallicRoughness":{"baseColorFactor":[0.6125001,0.6125001,0.6125001,1.0],"metallicFactor":0.0,"roughnessFactor":0.9},"emissiveFactor":[0.0,0.0,0.0],"alphaMode":"OPAQUE","name":"m_base0"}]}