{"asset":{"version":"2.0","generator":"babylon.js glTF exporter for 3ds max 2015 v1.3.33"},"scene":0,"scenes":[{"nodes":[0,1],"extensions":{}}],"nodes":[{"mesh":0,"translation":[0.0,0.0,0.0],"rotation":[-3.13916473E-07,1.62920685E-07,1.0,5.11434868E-14],"scale":[2.54,2.54,2.54],"name":"stitch_result_stitch all"},{"translation":[0.0,0.0,0.0],"rotation":[0.0,0.0,0.0,1.0],"scale":[1.0,1.0,1.0],"name":"Default light"}],"meshes":[{"primitives":[{"attributes":{"POSITION":1,"NORMAL":2,"TEXCOORD_0":3},"indices":0,"mode":4,"material":0}],"name":"stitch_result_stitch all"}],"accessors":[{"bufferView":0,"componentType":5123,"count":16464,"type":"SCALAR","name":"accessorIndices"},{"bufferView":1,"componentType":5126,"count":16464,"max":[1.10236228,-4.3147017E-07,0.748030841],"min":[-1.10236228,-4.19480944,-0.7480297],"type":"VEC3","name":"accessorPositions"},{"bufferView":1,"byteOffset":197568,"componentType":5126,"count":16464,"type":"VEC3","name":"accessorNormals"},{"bufferView":2,"componentType":5126,"count":16464,"type":"VEC2","name":"accessorUVs"}],"bufferViews":[{"buffer":0,"byteLength":32928,"name":"bufferViewScalar"},{"buffer":0,"byteOffset":32928,"byteLength":395136,"byteStride":12,"name":"bufferViewFloatVec3"},{"buffer":0,"byteOffset":428064,"byteLength":131712,"byteStride":8,"name":"bufferViewFloatVec2"}],"buffers":[{"uri":"L9715.bin","byteLength":559776}],"materials":[{"pbrMetallicRoughness":{"baseColorFactor":[0.612745166,0.612745166,0.612745166,1.0],"metallicFactor":0.0,"roughnessFactor":0.9},"emissiveFactor":[0.0,0.0,0.0],"alphaMode":"OPAQUE","name":"m_Metal"}]}