{"asset":{"version":"2.0","generator":"babylon.js glTF exporter for 3ds max 2015 v1.3.33"},"scene":0,"scenes":[{"nodes":[0,1],"extensions":{}}],"nodes":[{"mesh":0,"translation":[0.0,0.0,0.0],"rotation":[-0.7071068,0.0,0.0,0.7071067],"scale":[0.9787403,0.928160369,0.96],"name":"Rectangle001"},{"translation":[0.0,0.0,0.0],"rotation":[0.0,0.0,0.0,1.0],"scale":[1.0,1.0,1.0],"name":"Default light"}],"meshes":[{"primitives":[{"attributes":{"POSITION":1,"NORMAL":2,"TEXCOORD_0":3},"indices":0,"mode":4,"material":0}],"name":"Rectangle001"}],"accessors":[{"bufferView":0,"componentType":5123,"count":3492,"type":"SCALAR","name":"accessorIndices"},{"bufferView":1,"componentType":5126,"count":3492,"max":[19.9010811,9.454425,52.8949],"min":[-19.90108,-9.454433,-0.12513651],"type":"VEC3","name":"accessorPositions"},{"bufferView":1,"byteOffset":41904,"componentType":5126,"count":3492,"type":"VEC3","name":"accessorNormals"},{"bufferView":2,"componentType":5126,"count":3492,"type":"VEC2","name":"accessorUVs"}],"bufferViews":[{"buffer":0,"byteLength":6984,"name":"bufferViewScalar"},{"buffer":0,"byteOffset":6984,"byteLength":83808,"byteStride":12,"name":"bufferViewFloatVec3"},{"buffer":0,"byteOffset":90792,"byteLength":27936,"byteStride":8,"name":"bufferViewFloatVec2"}],"buffers":[{"uri":"L9560WH.bin","byteLength":118728}],"materials":[{"pbrMetallicRoughness":{"baseColorFactor":[0.6125001,0.6125001,0.6125001,1.0],"metallicFactor":0.0,"roughnessFactor":0.9},"emissiveFactor":[0.0,0.0,0.0],"alphaMode":"OPAQUE","name":"m_base0"}]}