{"asset":{"version":"2.0","generator":"babylon.js glTF exporter for 3ds max 2015 v1.3.33"},"scene":0,"scenes":[{"nodes":[0,3,4,5,6,7],"extensions":{}}],"nodes":[{"children":[1,2],"translation":[0.000292654149,0.0,0.0],"rotation":[-0.7071068,0.0,0.0,0.7071067],"scale":[1.04114544,1.0,1.0],"name":"Group001"},{"mesh":0,"translation":[-0.03790283,3.00130125E-07,0.0664444],"rotation":[-1.41894887E-07,-2.6692538E-08,0.7071068,0.7071068],"scale":[1.0,0.9603457,1.01063359],"name":"Cylinder002"},{"mesh":1,"translation":[0.178610623,6.419752,20.4428482],"rotation":[1.90638928E-22,-0.7071068,0.0,0.7071067],"scale":[0.0981801748,0.099999994,0.0981801748],"name":"Rectangle059"},{"mesh":2,"translation":[12.4136086,2.07694721,6.244128],"rotation":[0.0,-0.7071068,0.0,0.7071067],"scale":[0.350947827,0.630207658,0.385708],"name":"markerObj_tit5"},{"mesh":3,"translation":[-12.33013,2.07694721,6.244128],"rotation":[0.0,-0.7071068,0.0,0.7071067],"scale":[0.350947827,0.630207658,0.385708],"name":"markerObj_tit5 (1)"},{"mesh":4,"translation":[-12.33013,21.76978,6.24774837],"rotation":[0.0,-0.7071068,0.0,0.7071067],"scale":[0.350947827,0.630207658,0.385708],"name":"markerObj_tit5 (2)"},{"mesh":5,"translation":[12.4136086,21.76978,6.24774837],"rotation":[0.0,-0.7071068,0.0,0.7071067],"scale":[0.350947827,0.630207658,0.385708],"name":"markerObj_tit5 (3)"},{"translation":[0.0,0.0,0.0],"rotation":[0.0,0.0,0.0,1.0],"scale":[1.0,1.0,1.0],"name":"Default light"}],"meshes":[{"primitives":[{"attributes":{"POSITION":1,"NORMAL":2,"TEXCOORD_0":3},"indices":0,"mode":4,"material":0}],"name":"Cylinder002"},{"primitives":[{"attributes":{"POSITION":5,"NORMAL":6,"TEXCOORD_0":7},"indices":4,"mode":4,"material":0}],"name":"Rectangle059"},{"primitives":[{"attributes":{"POSITION":9,"NORMAL":10,"TEXCOORD_0":11},"indices":8}],"name":"markerObj_tit5"},{"primitives":[{"attributes":{"POSITION":13,"NORMAL":14,"TEXCOORD_0":15},"indices":12}],"name":"markerObj_tit5"},{"primitives":[{"attributes":{"POSITION":17,"NORMAL":18,"TEXCOORD_0":19},"indices":16}],"name":"markerObj_tit5"},{"primitives":[{"attributes":{"POSITION":21,"NORMAL":22,"TEXCOORD_0":23},"indices":20}],"name":"markerObj_tit5"}],"accessors":[{"bufferView":0,"componentType":5123,"count":47292,"type":"SCALAR","name":"accessorIndices"},{"bufferView":1,"componentType":5126,"count":47292,"max":[6.652,26.4823627,39.2918],"min":[-6.65200329,-26.5168686,1.0561285],"type":"VEC3","name":"accessorPositions"},{"bufferView":1,"byteOffset":567504,"componentType":5126,"count":47292,"type":"VEC3","name":"accessorNormals"},{"bufferView":2,"componentType":5126,"count":47292,"type":"VEC2","name":"accessorUVs"},{"bufferView":0,"byteOffset":94584,"componentType":5123,"count":3168,"type":"SCALAR","name":"accessorIndices"},{"bufferView":1,"byteOffset":1135008,"componentType":5126,"count":3168,"max":[207.461472,1.04438019,273.3014],"min":[-208.217667,-1.04438782,-269.663],"type":"VEC3","name":"accessorPositions"},{"bufferView":1,"byteOffset":1173024,"componentType":5126,"count":3168,"type":"VEC3","name":"accessorNormals"},{"bufferView":2,"byteOffset":378336,"componentType":5126,"count":3168,"type":"VEC2","name":"accessorUVs"},{"bufferView":0,"byteOffset":100920,"componentType":5123,"count":96,"type":"SCALAR","name":"accessorIndices"},{"bufferView":1,"byteOffset":1211040,"componentType":5126,"count":96,"max":[3.73376656,4.22077942,3.409092],"min":[-3.73376656,0.0,-3.409092],"type":"VEC3","name":"accessorPositions"},{"bufferView":1,"byteOffset":1212192,"componentType":5126,"count":96,"type":"VEC3","name":"accessorNormals"},{"bufferView":2,"byteOffset":403680,"componentType":5126,"count":96,"type":"VEC2","name":"accessorUVs"},{"bufferView":0,"byteOffset":101112,"componentType":5123,"count":96,"type":"SCALAR","name":"accessorIndices"},{"bufferView":1,"byteOffset":1213344,"componentType":5126,"count":96,"max":[3.73376656,4.22077942,3.409092],"min":[-3.73376751,0.0,-3.409092],"type":"VEC3","name":"accessorPositions"},{"bufferView":1,"byteOffset":1214496,"componentType":5126,"count":96,"type":"VEC3","name":"accessorNormals"},{"bufferView":2,"byteOffset":404448,"componentType":5126,"count":96,"type":"VEC2","name":"accessorUVs"},{"bufferView":0,"byteOffset":101304,"componentType":5123,"count":96,"type":"SCALAR","name":"accessorIndices"},{"bufferView":1,"byteOffset":1215648,"componentType":5126,"count":96,"max":[3.73376656,4.22077942,3.409092],"min":[-3.73376751,0.0,-3.409092],"type":"VEC3","name":"accessorPositions"},{"bufferView":1,"byteOffset":1216800,"componentType":5126,"count":96,"type":"VEC3","name":"accessorNormals"},{"bufferView":2,"byteOffset":405216,"componentType":5126,"count":96,"type":"VEC2","name":"accessorUVs"},{"bufferView":0,"byteOffset":101496,"componentType":5123,"count":96,"type":"SCALAR","name":"accessorIndices"},{"bufferView":1,"byteOffset":1217952,"componentType":5126,"count":96,"max":[3.73376656,4.22077942,3.409092],"min":[-3.73376656,0.0,-3.409092],"type":"VEC3","name":"accessorPositions"},{"bufferView":1,"byteOffset":1219104,"componentType":5126,"count":96,"type":"VEC3","name":"accessorNormals"},{"bufferView":2,"byteOffset":405984,"componentType":5126,"count":96,"type":"VEC2","name":"accessorUVs"}],"bufferViews":[{"buffer":0,"byteLength":101688,"name":"bufferViewScalar"},{"buffer":0,"byteOffset":101688,"byteLength":1220256,"byteStride":12,"name":"bufferViewFloatVec3"},{"buffer":0,"byteOffset":1321944,"byteLength":406752,"byteStride":8,"name":"bufferViewFloatVec2"}],"buffers":[{"uri":"L9444WH.bin","byteLength":1728696}],"materials":[{"pbrMetallicRoughness":{"baseColorFactor":[0.6125001,0.6125001,0.6125001,1.0],"metallicFactor":0.0,"roughnessFactor":0.9},"emissiveFactor":[0.0,0.0,0.0],"alphaMode":"OPAQUE","name":"m_base0"}]}