{"asset":{"version":"2.0","generator":"babylon.js glTF exporter for 3ds max 2015 v1.3.33"},"scene":0,"scenes":[{"nodes":[0,4],"extensions":{}}],"nodes":[{"children":[1,2,3],"translation":[0.0,0.0,0.0],"rotation":[0.0,0.0,0.0,1.0],"scale":[1.0,1.0,1.0],"name":"Group009"},{"mesh":0,"translation":[0.244013786,59.2130051,-8.34465E-07],"rotation":[-0.499999881,-0.5000001,-0.49999997,0.50000006],"scale":[0.099999994,0.099999994,0.099999994],"name":"Object011"},{"mesh":1,"translation":[-2.76565552E-05,27.96949,-0.637578964],"rotation":[3.37174844E-09,-0.7071068,-3.37174777E-09,0.7071067],"scale":[18.8042488,18.8042488,5.429721],"name":"Object014"},{"mesh":2,"translation":[0.244013786,59.37696,-8.34465E-07],"rotation":[-0.499999881,-0.5000001,-0.49999997,0.50000006],"scale":[0.099999994,0.099999994,0.099999994],"name":"Object012"},{"translation":[0.0,0.0,0.0],"rotation":[0.0,0.0,0.0,1.0],"scale":[1.0,1.0,1.0],"name":"Default light"}],"meshes":[{"primitives":[{"attributes":{"POSITION":1,"NORMAL":2,"TEXCOORD_0":3},"indices":0,"mode":4,"material":0}],"name":"Object011"},{"primitives":[{"attributes":{"POSITION":5,"NORMAL":6,"COLOR_0":7,"TEXCOORD_0":8},"indices":4,"mode":4,"material":1}],"name":"Object014"},{"primitives":[{"attributes":{"POSITION":10,"NORMAL":11,"TEXCOORD_0":12},"indices":9,"mode":4,"material":2}],"name":"Object012"}],"accessors":[{"bufferView":0,"componentType":5123,"count":1260,"type":"SCALAR","name":"accessorIndices"},{"bufferView":1,"componentType":5126,"count":1260,"max":[189.598282,8.863313,18.3955078],"min":[-189.598251,-8.863314,-94.30301],"type":"VEC3","name":"accessorPositions"},{"bufferView":1,"byteOffset":15120,"componentType":5126,"count":1260,"type":"VEC3","name":"accessorNormals"},{"bufferView":2,"componentType":5126,"count":1260,"type":"VEC2","name":"accessorUVs"},{"bufferView":0,"byteOffset":2520,"componentType":5123,"count":5670,"type":"SCALAR","name":"accessorIndices"},{"bufferView":1,"byteOffset":30240,"componentType":5126,"count":5670,"max":[0.831927538,1.5209353,0.6260922],"min":[-0.831927657,-1.48740268,-0.626103044],"type":"VEC3","name":"accessorPositions"},{"bufferView":1,"byteOffset":98280,"componentType":5126,"count":5670,"type":"VEC3","name":"accessorNormals"},{"bufferView":3,"componentType":5126,"count":5670,"type":"VEC4","name":"accessorColors"},{"bufferView":2,"byteOffset":10080,"componentType":5126,"count":5670,"type":"VEC2","name":"accessorUVs"},{"bufferView":0,"byteOffset":13860,"componentType":5123,"count":1026,"type":"SCALAR","name":"accessorIndices"},{"bufferView":1,"byteOffset":166320,"componentType":5126,"count":1026,"max":[32.8378143,7.04048824,94.30298],"min":[-32.15166,3.65870881,12.7817993],"type":"VEC3","name":"accessorPositions"},{"bufferView":1,"byteOffset":178632,"componentType":5126,"count":1026,"type":"VEC3","name":"accessorNormals"},{"bufferView":2,"byteOffset":55440,"componentType":5126,"count":1026,"type":"VEC2","name":"accessorUVs"}],"bufferViews":[{"buffer":0,"byteLength":15912,"name":"bufferViewScalar"},{"buffer":0,"byteOffset":15912,"byteLength":190944,"byteStride":12,"name":"bufferViewFloatVec3"},{"buffer":0,"byteOffset":206856,"byteLength":63648,"byteStride":8,"name":"bufferViewFloatVec2"},{"buffer":0,"byteOffset":270504,"byteLength":90720,"byteStride":16,"name":"bufferViewFloatVec4"}],"buffers":[{"uri":"TS_4.bin","byteLength":361224}],"materials":[{"pbrMetallicRoughness":{"baseColorFactor":[0.06535949,0.06535949,0.06535949,1.0],"metallicFactor":0.0,"roughnessFactor":0.9},"emissiveFactor":[0.0,0.0,0.0],"alphaMode":"OPAQUE","name":"m_31"},{"pbrMetallicRoughness":{"baseColorFactor":[0.7148694,0.612745166,0.8700982,1.0],"metallicFactor":0.0,"roughnessFactor":0.9},"emissiveFactor":[0.0,0.0,0.0],"alphaMode":"OPAQUE","name":"m_10"},{"pbrMetallicRoughness":{"baseColorFactor":[0.212418333,0.416666746,0.6740197,1.0],"metallicFactor":0.0,"roughnessFactor":0.9},"emissiveFactor":[0.0,0.0,0.0],"alphaMode":"OPAQUE","name":"m_32"}]}