{"asset":{"version":"2.0","generator":"babylon.js glTF exporter for 3ds max 2015 v1.3.33"},"scene":0,"scenes":[{"nodes":[0,1],"extensions":{}}],"nodes":[{"mesh":0,"translation":[0.0,0.0,0.0],"rotation":[-0.9063078,3.19067865E-08,-0.42261824,-6.842434E-08],"scale":[0.43895945,0.205497235,0.43895945],"name":"Cylinder002"},{"translation":[0.0,0.0,0.0],"rotation":[0.0,0.0,0.0,1.0],"scale":[1.0,1.0,1.0],"name":"Default light"}],"meshes":[{"primitives":[{"attributes":{"POSITION":1,"NORMAL":2,"TEXCOORD_0":3},"indices":0,"mode":4,"material":0}],"name":"Cylinder002"}],"accessors":[{"bufferView":0,"componentType":5123,"count":456,"type":"SCALAR","name":"accessorIndices"},{"bufferView":1,"componentType":5126,"count":456,"max":[27.5608177,4.640813E-06,27.37799],"min":[-27.4562435,-63.17356,-27.378],"type":"VEC3","name":"accessorPositions"},{"bufferView":1,"byteOffset":5472,"componentType":5126,"count":456,"type":"VEC3","name":"accessorNormals"},{"bufferView":2,"componentType":5126,"count":456,"type":"VEC2","name":"accessorUVs"}],"bufferViews":[{"buffer":0,"byteLength":912,"name":"bufferViewScalar"},{"buffer":0,"byteOffset":912,"byteLength":10944,"byteStride":12,"name":"bufferViewFloatVec3"},{"buffer":0,"byteOffset":11856,"byteLength":3648,"byteStride":8,"name":"bufferViewFloatVec2"}],"buffers":[{"uri":"box_1.bin","byteLength":15504}],"materials":[{"pbrMetallicRoughness":{"baseColorFactor":[0.6125001,0.6125001,0.6125001,1.0],"metallicFactor":0.0,"roughnessFactor":0.9},"emissiveFactor":[0.0,0.0,0.0],"alphaMode":"OPAQUE","name":"m_10"}]}