{"asset":{"version":"2.0","generator":"babylon.js glTF exporter for 3ds max 2015 v1.3.33"},"scene":0,"scenes":[{"nodes":[0,1],"extensions":{}}],"nodes":[{"mesh":0,"translation":[0.0,0.0,0.0],"rotation":[0.0616283752,-0.0616285428,0.704416037,0.704416037],"scale":[0.9717937,0.9717937,0.9717937],"name":"Cylinder30052"},{"translation":[0.0,0.0,0.0],"rotation":[0.0,0.0,0.0,1.0],"scale":[1.0,1.0,1.0],"name":"Default light"}],"meshes":[{"primitives":[{"attributes":{"POSITION":1,"NORMAL":2,"TEXCOORD_0":3},"indices":0,"mode":4,"material":0}],"name":"Cylinder30052"}],"accessors":[{"bufferView":0,"componentType":5123,"count":636,"type":"SCALAR","name":"accessorIndices"},{"bufferView":1,"componentType":5126,"count":636,"max":[2.46971345,0.3457665,1.02030647],"min":[-0.0378055647,0.000879153551,-1.44911778],"type":"VEC3","name":"accessorPositions"},{"bufferView":1,"byteOffset":7632,"componentType":5126,"count":636,"type":"VEC3","name":"accessorNormals"},{"bufferView":2,"componentType":5126,"count":636,"type":"VEC2","name":"accessorUVs"}],"bufferViews":[{"buffer":0,"byteLength":1272,"name":"bufferViewScalar"},{"buffer":0,"byteOffset":1272,"byteLength":15264,"byteStride":12,"name":"bufferViewFloatVec3"},{"buffer":0,"byteOffset":16536,"byteLength":5088,"byteStride":8,"name":"bufferViewFloatVec2"}],"buffers":[{"uri":"L9702CH.bin","byteLength":21624}],"materials":[{"pbrMetallicRoughness":{"baseColorFactor":[0.6125001,0.6125001,0.6125001,1.0],"metallicFactor":0.0,"roughnessFactor":0.9},"emissiveFactor":[0.0,0.0,0.0],"alphaMode":"OPAQUE","name":"m_Metal"}]}