{"asset":{"version":"2.0","generator":"babylon.js glTF exporter for 3ds max 2015 v1.3.33"},"scene":0,"scenes":[{"nodes":[0,1,2,3,4],"extensions":{}}],"nodes":[{"mesh":0,"translation":[0.0,0.0,0.0],"rotation":[1.53133087E-07,-2.06518166E-07,-0.7071068,0.7071068],"scale":[1.31313086,-1.0,1.31313086],"name":"Cylinder30113"},{"mesh":1,"translation":[-0.0107041672,15.37983,-0.6511252],"rotation":[-0.49999997,0.499999881,-0.5000001,0.50000006],"scale":[0.350947827,0.630207658,0.385708],"name":"markerObj_tit2"},{"mesh":2,"translation":[-26.4863243,15.37983,-0.651129],"rotation":[-0.49999997,0.499999881,-0.5000001,0.50000006],"scale":[0.350947827,0.630207658,0.385708],"name":"markerObj_tit2 (1)"},{"mesh":3,"translation":[26.4863243,15.37983,-0.6511209],"rotation":[-0.49999997,0.499999881,-0.5000001,0.50000006],"scale":[0.350947827,0.630207658,0.385708],"name":"markerObj_tit2 (2)"},{"translation":[0.0,0.0,0.0],"rotation":[0.0,0.0,0.0,1.0],"scale":[1.0,1.0,1.0],"name":"Default light"}],"meshes":[{"primitives":[{"attributes":{"POSITION":1,"NORMAL":2,"TEXCOORD_0":3},"indices":0,"mode":4,"material":0}],"name":"Cylinder30113"},{"primitives":[{"attributes":{"POSITION":5,"NORMAL":6,"TEXCOORD_0":7},"indices":4}],"name":"markerObj_tit2"},{"primitives":[{"attributes":{"POSITION":9,"NORMAL":10,"TEXCOORD_0":11},"indices":8}],"name":"markerObj_tit2"},{"primitives":[{"attributes":{"POSITION":13,"NORMAL":14,"TEXCOORD_0":15},"indices":12}],"name":"markerObj_tit2"}],"accessors":[{"bufferView":0,"componentType":5123,"count":9984,"type":"SCALAR","name":"accessorIndices"},{"bufferView":1,"componentType":5126,"count":9984,"max":[1.45511494E-05,45.2868729,0.565086],"min":[-23.28381,-45.2868729,-0.5650878],"type":"VEC3","name":"accessorPositions"},{"bufferView":1,"byteOffset":119808,"componentType":5126,"count":9984,"type":"VEC3","name":"accessorNormals"},{"bufferView":2,"componentType":5126,"count":9984,"type":"VEC2","name":"accessorUVs"},{"bufferView":0,"byteOffset":19968,"componentType":5123,"count":96,"type":"SCALAR","name":"accessorIndices"},{"bufferView":1,"byteOffset":239616,"componentType":5126,"count":96,"max":[3.73376465,4.22077942,3.40909123],"min":[-3.73376465,0.0,-3.40909076],"type":"VEC3","name":"accessorPositions"},{"bufferView":1,"byteOffset":240768,"componentType":5126,"count":96,"type":"VEC3","name":"accessorNormals"},{"bufferView":2,"byteOffset":79872,"componentType":5126,"count":96,"type":"VEC2","name":"accessorUVs"},{"bufferView":0,"byteOffset":20160,"componentType":5123,"count":96,"type":"SCALAR","name":"accessorIndices"},{"bufferView":1,"byteOffset":241920,"componentType":5126,"count":96,"max":[3.73376465,4.22077942,3.40909576],"min":[-3.73376465,0.0,-3.40908813],"type":"VEC3","name":"accessorPositions"},{"bufferView":1,"byteOffset":243072,"componentType":5126,"count":96,"type":"VEC3","name":"accessorNormals"},{"bufferView":2,"byteOffset":80640,"componentType":5126,"count":96,"type":"VEC2","name":"accessorUVs"},{"bufferView":0,"byteOffset":20352,"componentType":5123,"count":96,"type":"SCALAR","name":"accessorIndices"},{"bufferView":1,"byteOffset":244224,"componentType":5126,"count":96,"max":[3.73376465,4.22077942,3.40908813],"min":[-3.73376465,-1.1920929E-07,-3.40909576],"type":"VEC3","name":"accessorPositions"},{"bufferView":1,"byteOffset":245376,"componentType":5126,"count":96,"type":"VEC3","name":"accessorNormals"},{"bufferView":2,"byteOffset":81408,"componentType":5126,"count":96,"type":"VEC2","name":"accessorUVs"}],"bufferViews":[{"buffer":0,"byteLength":20544,"name":"bufferViewScalar"},{"buffer":0,"byteOffset":20544,"byteLength":246528,"byteStride":12,"name":"bufferViewFloatVec3"},{"buffer":0,"byteOffset":267072,"byteLength":82176,"byteStride":8,"name":"bufferViewFloatVec2"}],"buffers":[{"uri":"L9993WH_m.bin","byteLength":349248}],"materials":[{"pbrMetallicRoughness":{"baseColorFactor":[0.6125001,0.6125001,0.6125001,1.0],"metallicFactor":0.0,"roughnessFactor":0.9},"emissiveFactor":[0.0,0.0,0.0],"alphaMode":"OPAQUE","name":"m_base0"}]}