{"asset":{"version":"2.0","generator":"babylon.js glTF exporter for 3ds max 2015 v1.3.33"},"scene":0,"scenes":[{"nodes":[0,1],"extensions":{}}],"nodes":[{"mesh":0,"translation":[0.0,0.0,0.0],"rotation":[2.38418579E-07,-2.38418579E-07,-1.49011044E-08,1.0],"scale":[0.099999994,0.099999994,0.099999994],"name":"perf_910"},{"translation":[0.0,0.0,0.0],"rotation":[0.0,0.0,0.0,1.0],"scale":[1.0,1.0,1.0],"name":"Default light"}],"meshes":[{"primitives":[{"attributes":{"POSITION":1,"NORMAL":2},"indices":0,"mode":4,"material":0}],"name":"perf_910"}],"accessors":[{"bufferView":0,"componentType":5123,"count":63882,"type":"SCALAR","name":"accessorIndices"},{"bufferView":1,"componentType":5126,"count":63882,"max":[446.219666,18.4999943,77.50004],"min":[-446.219635,-7.638195E-06,-77.5000458],"type":"VEC3","name":"accessorPositions"},{"bufferView":1,"byteOffset":766584,"componentType":5126,"count":63882,"type":"VEC3","name":"accessorNormals"}],"bufferViews":[{"buffer":0,"byteLength":127764,"name":"bufferViewScalar"},{"buffer":0,"byteOffset":127764,"byteLength":1533168,"byteStride":12,"name":"bufferViewFloatVec3"}],"buffers":[{"uri":"L99G94WH.bin","byteLength":1660932}],"materials":[{"pbrMetallicRoughness":{"baseColorFactor":[0.6125001,0.6125001,0.6125001,1.0],"metallicFactor":0.0,"roughnessFactor":0.9},"emissiveFactor":[0.0,0.0,0.0],"alphaMode":"OPAQUE","name":"m_base0"}]}