{"asset":{"version":"2.0","generator":"babylon.js glTF exporter for 3ds max 2015 v1.3.33"},"scene":0,"scenes":[{"nodes":[0,1],"extensions":{}}],"nodes":[{"mesh":0,"translation":[0.00187468529,-7.15255737E-07,-9.536743E-07],"rotation":[1.35560569E-07,5.41002372E-08,0.7071067,0.7071068],"scale":[2.54,-2.54,2.54],"name":"stitch_result_stitch all"},{"translation":[0.0,0.0,0.0],"rotation":[0.0,0.0,0.0,1.0],"scale":[1.0,1.0,1.0],"name":"Default light"}],"meshes":[{"primitives":[{"attributes":{"POSITION":1,"NORMAL":2,"TEXCOORD_0":3},"indices":0,"mode":4,"material":0}],"name":"stitch_result_stitch all"}],"accessors":[{"bufferView":0,"componentType":5123,"count":1494,"type":"SCALAR","name":"accessorIndices"},{"bufferView":1,"componentType":5126,"count":1494,"max":[12.2533569,-0.00444135768,0.334646016],"min":[1.71075521E-06,-0.319402337,-0.334646165],"type":"VEC3","name":"accessorPositions"},{"bufferView":1,"byteOffset":17928,"componentType":5126,"count":1494,"type":"VEC3","name":"accessorNormals"},{"bufferView":2,"componentType":5126,"count":1494,"type":"VEC2","name":"accessorUVs"}],"bufferViews":[{"buffer":0,"byteLength":2988,"name":"bufferViewScalar"},{"buffer":0,"byteOffset":2988,"byteLength":35856,"byteStride":12,"name":"bufferViewFloatVec3"},{"buffer":0,"byteOffset":38844,"byteLength":11952,"byteStride":8,"name":"bufferViewFloatVec2"}],"buffers":[{"uri":"L6176WH.bin","byteLength":50796}],"materials":[{"pbrMetallicRoughness":{"baseColorFactor":[0.6125001,0.6125001,0.6125001,1.0],"metallicFactor":0.0,"roughnessFactor":0.9},"emissiveFactor":[0.0,0.0,0.0],"alphaMode":"OPAQUE","name":"m_base0"}]}