{"asset":{"version":"2.0","generator":"babylon.js glTF exporter for 3ds max 2015 v1.3.33"},"scene":0,"scenes":[{"nodes":[0,1],"extensions":{}}],"nodes":[{"mesh":0,"translation":[0.0,0.0,0.0],"rotation":[0.0,0.0,0.0,1.0],"scale":[0.099999994,0.099999994,0.099999994],"name":"Обувница 300x80"},{"translation":[0.0,0.0,0.0],"rotation":[0.0,0.0,0.0,1.0],"scale":[1.0,1.0,1.0],"name":"Default light"}],"meshes":[{"primitives":[{"attributes":{"POSITION":1,"NORMAL":2,"TEXCOORD_0":3},"indices":0,"mode":4,"material":0}],"name":"Обувница 300x80"}],"accessors":[{"bufferView":0,"componentType":5123,"count":21066,"type":"SCALAR","name":"accessorIndices"},{"bufferView":1,"componentType":5126,"count":21066,"max":[301.500031,306.0,39.48819],"min":[-301.5,9.536744E-06,-39.4881935],"type":"VEC3","name":"accessorPositions"},{"bufferView":1,"byteOffset":252792,"componentType":5126,"count":21066,"type":"VEC3","name":"accessorNormals"},{"bufferView":2,"componentType":5126,"count":21066,"type":"VEC2","name":"accessorUVs"}],"bufferViews":[{"buffer":0,"byteLength":42132,"name":"bufferViewScalar"},{"buffer":0,"byteOffset":42132,"byteLength":505584,"byteStride":12,"name":"bufferViewFloatVec3"},{"buffer":0,"byteOffset":547716,"byteLength":168528,"byteStride":8,"name":"bufferViewFloatVec2"}],"buffers":[{"uri":"L9438WH.bin","byteLength":716244}],"materials":[{"pbrMetallicRoughness":{"baseColorFactor":[0.6125001,0.6125001,0.6125001,1.0],"metallicFactor":0.0,"roughnessFactor":0.9},"emissiveFactor":[0.0,0.0,0.0],"alphaMode":"OPAQUE","name":"m_base0"}]}