{"asset":{"version":"2.0","generator":"babylon.js glTF exporter for 3ds max 2018 v1.3.33"},"scene":0,"scenes":[{"nodes":[0,1,2,3,4,5,6,7,8,9,10,11,12,13,14,15,16,17,18,19,20],"extensions":{}}],"nodes":[{"mesh":0,"translation":[0.0,0.0,-410.209473],"rotation":[-0.04361905,5.20053163E-07,0.999048233,2.27058354E-08],"scale":[0.99999994,-1.0,0.99999994],"name":"boots"},{"mesh":1,"translation":[-2483.09375,295.588257,-493.224365],"rotation":[1.06770138E-07,-0.7071069,0.70710665,1.06770173E-07],"scale":[1.0,-1.0,1.0],"name":"sumka"},{"mesh":2,"translation":[-3173.22729,103.889282,-437.685181],"rotation":[4.952079E-08,0.0432273336,-4.77627822E-08,0.9990653],"scale":[1.23487079,2.19677448,1.08100545],"name":"futbolka_slogena"},{"mesh":3,"translation":[-832.8638,83.49951,-395.983643],"rotation":[0.0,0.0,0.0,1.0],"scale":[1.0,1.0,1.0],"name":"Box_1"},{"mesh":4,"translation":[-1684.55371,3.61157227,-401.967072],"rotation":[0.0,0.0,0.0,1.0],"scale":[1.0,1.0,1.0],"name":"Hat"},{"mesh":5,"translation":[-1258.714,79.43853,-446.350616],"rotation":[0.0,0.0,0.0,1.0],"scale":[1.252301,1.16354311,1.05193055],"name":"Box_2"},{"mesh":6,"translation":[-390.347656,0.0,-410.209473],"rotation":[0.043619398,4.32713534E-07,0.999048233,-1.88926865E-08],"scale":[0.6382739,-0.638273954,0.6382739],"name":"tufli_woman"},{"mesh":7,"translation":[-1089.27832,-128.189819,272.2492],"rotation":[-1.0,-2.17428E-12,-1.47422281E-06,1.47422281E-06],"scale":[1.0,-1.0,1.0],"name":"Hangers"},{"mesh":8,"translation":[-1068.21265,-499.13562,248.417175],"rotation":[-1.0,-1.3017919E-12,-8.781764E-07,1.47422281E-06],"scale":[1.0,-1.0,1.0],"name":"jacket"},{"mesh":9,"translation":[-1467.646,-560.0552,271.014221],"rotation":[8.742278E-08,-7.764702E-23,-8.881785E-16,1.0],"scale":[1.0,1.0,1.0],"name":"dress"},{"mesh":10,"translation":[-1458.30957,-63.8878479,269.909363],"rotation":[-0.499999881,-0.5000001,-0.49999997,0.50000006],"scale":[1.0,1.0,1.0],"name":"Hangers (1)"},{"mesh":10,"translation":[-120.790405,-65.00525,239.832428],"rotation":[-0.499999881,-0.5000001,-0.49999997,0.50000006],"scale":[1.0,1.0,1.0],"name":"Hangers001"},{"mesh":11,"translation":[-443.65155,-459.628784,266.663635],"rotation":[-7.15255737E-07,6.27832947E-07,4.49060954E-13,1.0],"scale":[1.0,1.0,1.0],"name":"bluza"},{"mesh":12,"translation":[-712.1568,-63.2402344,269.909363],"rotation":[-0.499999881,-0.5000001,-0.49999997,0.50000006],"scale":[1.0,1.0,1.0],"name":"Hangers (2)"},{"mesh":12,"translation":[-444.894043,-81.57234,269.909363],"rotation":[-0.499999881,-0.5000001,-0.49999997,0.50000006],"scale":[1.0,1.0,1.0],"name":"Hangers002"},{"mesh":13,"translation":[-717.3426,-443.0171,270.759827],"rotation":[0.5,-0.50000006,0.5,0.4999999],"scale":[1.0,0.7476854,1.0],"name":"maika"},{"mesh":14,"translation":[360.761963,1.36436844,-408.860535],"rotation":[0.0,0.66974926,0.0,0.7425873],"scale":[1.0,1.0,1.0],"name":"tufli_man"},{"mesh":15,"translation":[-2850.81152,144.107986,-446.350616],"rotation":[6.181724E-08,-0.70710665,-1.25607371E-14,0.7071069],"scale":[1.25066125,1.25066125,1.23316431],"name":"polotence"},{"mesh":16,"translation":[-3689.249,175.339966,-446.3506],"rotation":[0.0,2.07026937E-06,1.0,0.0],"scale":[1.087075,-1.58951831,1.087075],"name":"polotence_1"},{"mesh":17,"translation":[-137.927612,-431.115356,231.438568],"rotation":[-1.0,-1.8759793E-13,-4.33125763E-07,4.33125763E-07],"scale":[1.0,-1.0,1.0],"name":"rubashka"},{"translation":[0.0,0.0,0.0],"rotation":[0.0,0.0,0.0,1.0],"scale":[1.0,1.0,1.0],"name":"Default light"}],"meshes":[{"primitives":[{"attributes":{"POSITION":1,"NORMAL":2,"TEXCOORD_0":3},"indices":0,"mode":4,"material":0}],"name":"boots"},{"primitives":[{"attributes":{"POSITION":5,"NORMAL":6,"TEXCOORD_0":7},"indices":4,"mode":4,"material":0}],"name":"sumka"},{"primitives":[{"attributes":{"POSITION":9,"NORMAL":10,"TEXCOORD_0":11},"indices":8,"mode":4,"material":0}],"name":"futbolka_slogena"},{"primitives":[{"attributes":{"POSITION":13,"NORMAL":14,"TEXCOORD_0":15},"indices":12,"mode":4,"material":0}],"name":"Box_1"},{"primitives":[{"attributes":{"POSITION":17,"NORMAL":18,"TEXCOORD_0":19},"indices":16,"mode":4,"material":0}],"name":"Hat"},{"primitives":[{"attributes":{"POSITION":21,"NORMAL":22,"TEXCOORD_0":23},"indices":20,"mode":4,"material":0}],"name":"Box_2"},{"primitives":[{"attributes":{"POSITION":25,"NORMAL":26,"TEXCOORD_0":27},"indices":24,"mode":4,"material":0}],"name":"tufli_woman"},{"primitives":[{"attributes":{"POSITION":29,"NORMAL":30,"TEXCOORD_0":31},"indices":28,"mode":4,"material":0}],"name":"Hangers"},{"primitives":[{"attributes":{"POSITION":33,"NORMAL":34,"TEXCOORD_0":35},"indices":32,"mode":4,"material":0}],"name":"jacket"},{"primitives":[{"attributes":{"POSITION":37,"NORMAL":38,"TEXCOORD_0":39},"indices":36,"mode":4,"material":0}],"name":"dress"},{"primitives":[{"attributes":{"POSITION":41,"NORMAL":42,"TEXCOORD_0":43},"indices":40,"mode":4,"material":0}],"name":"Hangers"},{"primitives":[{"attributes":{"POSITION":45,"NORMAL":46,"TEXCOORD_0":47},"indices":44,"mode":4,"material":0}],"name":"bluza"},{"primitives":[{"attributes":{"POSITION":49,"NORMAL":50,"TEXCOORD_0":51},"indices":48,"mode":4,"material":0}],"name":"Hangers"},{"primitives":[{"attributes":{"POSITION":53,"NORMAL":54,"TEXCOORD_0":55},"indices":52,"mode":4,"material":0}],"name":"maika"},{"primitives":[{"attributes":{"POSITION":57,"NORMAL":58,"TEXCOORD_0":59},"indices":56,"mode":4,"material":0}],"name":"tufli_man"},{"primitives":[{"attributes":{"POSITION":61,"NORMAL":62,"TEXCOORD_0":63},"indices":60,"mode":4,"material":0}],"name":"polotence"},{"primitives":[{"attributes":{"POSITION":65,"NORMAL":66,"TEXCOORD_0":67},"indices":64,"mode":4,"material":0}],"name":"polotence_1"},{"primitives":[{"attributes":{"POSITION":69,"NORMAL":70,"TEXCOORD_0":71},"indices":68,"mode":4,"material":0}],"name":"rubashka"}],"accessors":[{"bufferView":0,"componentType":5123,"count":7872,"type":"SCALAR","name":"accessorIndices"},{"bufferView":1,"componentType":5126,"count":7872,"max":[125.345711,112.885483,152.018066],"min":[-125.345833,0.000134459551,-152.018],"type":"VEC3","name":"accessorPositions"},{"bufferView":1,"byteOffset":94464,"componentType":5126,"count":7872,"type":"VEC3","name":"accessorNormals"},{"bufferView":2,"componentType":5126,"count":7872,"type":"VEC2","name":"accessorUVs"},{"bufferView":0,"byteOffset":15744,"componentType":5123,"count":5196,"type":"SCALAR","name":"accessorIndices"},{"bufferView":1,"byteOffset":188928,"componentType":5126,"count":5196,"max":[179.633789,157.697113,198.8898],"min":[-263.261719,-23.5150146,-151.067963],"type":"VEC3","name":"accessorPositions"},{"bufferView":1,"byteOffset":251280,"componentType":5126,"count":5196,"type":"VEC3","name":"accessorNormals"},{"bufferView":2,"byteOffset":62976,"componentType":5126,"count":5196,"type":"VEC2","name":"accessorUVs"},{"bufferView":0,"byteOffset":26136,"componentType":5123,"count":4068,"type":"SCALAR","name":"accessorIndices"},{"bufferView":1,"byteOffset":313632,"componentType":5126,"count":4068,"max":[135.50293,35.68402,173.390015],"min":[-134.937256,-2.79103851,-174.456055],"type":"VEC3","name":"accessorPositions"},{"bufferView":1,"byteOffset":362448,"componentType":5126,"count":4068,"type":"VEC3","name":"accessorNormals"},{"bufferView":2,"byteOffset":104544,"componentType":5126,"count":4068,"type":"VEC2","name":"accessorUVs"},{"bufferView":0,"byteOffset":34272,"componentType":5123,"count":2124,"type":"SCALAR","name":"accessorIndices"},{"bufferView":1,"byteOffset":411264,"componentType":5126,"count":2124,"max":[147.471741,144.35968,128.494446],"min":[-147.4715,-0.222221375,-128.494446],"type":"VEC3","name":"accessorPositions"},{"bufferView":1,"byteOffset":436752,"componentType":5126,"count":2124,"type":"VEC3","name":"accessorNormals"},{"bufferView":2,"byteOffset":137088,"componentType":5126,"count":2124,"type":"VEC2","name":"accessorUVs"},{"bufferView":0,"byteOffset":38520,"componentType":5123,"count":1896,"type":"SCALAR","name":"accessorIndices"},{"bufferView":1,"byteOffset":462240,"componentType":5126,"count":1896,"max":[193.130371,167.344818,217.266479],"min":[-193.1305,-3.00904846,-217.266449],"type":"VEC3","name":"accessorPositions"},{"bufferView":1,"byteOffset":484992,"componentType":5126,"count":1896,"type":"VEC3","name":"accessorNormals"},{"bufferView":2,"byteOffset":154080,"componentType":5126,"count":1896,"type":"VEC2","name":"accessorUVs"},{"bufferView":0,"byteOffset":42312,"componentType":5123,"count":3684,"type":"SCALAR","name":"accessorIndices"},{"bufferView":1,"byteOffset":507744,"componentType":5126,"count":3684,"max":[127.0791,214.576447,178.5],"min":[-127.079041,-0.7642288,-178.500031],"type":"VEC3","name":"accessorPositions"},{"bufferView":1,"byteOffset":551952,"componentType":5126,"count":3684,"type":"VEC3","name":"accessorNormals"},{"bufferView":2,"byteOffset":169248,"componentType":5126,"count":3684,"type":"VEC2","name":"accessorUVs"},{"bufferView":0,"byteOffset":49680,"componentType":5123,"count":4398,"type":"SCALAR","name":"accessorIndices"},{"bufferView":1,"byteOffset":596160,"componentType":5126,"count":4398,"max":[149.342163,273.2315,171.825012],"min":[-149.341949,-0.041016262,-171.824829],"type":"VEC3","name":"accessorPositions"},{"bufferView":1,"byteOffset":648936,"componentType":5126,"count":4398,"type":"VEC3","name":"accessorNormals"},{"bufferView":2,"byteOffset":198720,"componentType":5126,"count":4398,"type":"VEC2","name":"accessorUVs"},{"bufferView":0,"byteOffset":58476,"componentType":5123,"count":2898,"type":"SCALAR","name":"accessorIndices"},{"bufferView":1,"byteOffset":701712,"componentType":5126,"count":2898,"max":[31.8428955,163.718918,234.09285],"min":[-31.857666,-65.21591,-234.0928],"type":"VEC3","name":"accessorPositions"},{"bufferView":1,"byteOffset":736488,"componentType":5126,"count":2898,"type":"VEC3","name":"accessorNormals"},{"bufferView":2,"byteOffset":233904,"componentType":5126,"count":2898,"type":"VEC2","name":"accessorUVs"},{"bufferView":0,"byteOffset":64272,"componentType":5123,"count":8289,"type":"SCALAR","name":"accessorIndices"},{"bufferView":1,"byteOffset":771264,"componentType":5126,"count":8289,"max":[41.17041,422.858276,244.6513],"min":[-92.08081,-360.990173,-287.636658],"type":"VEC3","name":"accessorPositions"},{"bufferView":1,"byteOffset":870732,"componentType":5126,"count":8289,"type":"VEC3","name":"accessorNormals"},{"bufferView":2,"byteOffset":257088,"componentType":5126,"count":8289,"type":"VEC2","name":"accessorUVs"},{"bufferView":0,"byteOffset":80852,"componentType":5123,"count":5526,"type":"SCALAR","name":"accessorIndices"},{"bufferView":1,"byteOffset":970200,"componentType":5126,"count":5526,"max":[42.5758057,447.325745,144.508026],"min":[-42.5759277,-447.3258,-144.508026],"type":"VEC3","name":"accessorPositions"},{"bufferView":1,"byteOffset":1036512,"componentType":5126,"count":5526,"type":"VEC3","name":"accessorNormals"},{"bufferView":2,"byteOffset":323400,"componentType":5126,"count":5526,"type":"VEC2","name":"accessorUVs"},{"bufferView":0,"byteOffset":91904,"componentType":5123,"count":2286,"type":"SCALAR","name":"accessorIndices"},{"bufferView":1,"byteOffset":1102824,"componentType":5126,"count":2286,"max":[189.598267,8.863281,94.30297],"min":[-189.598267,-8.863281,-94.30298],"type":"VEC3","name":"accessorPositions"},{"bufferView":1,"byteOffset":1130256,"componentType":5126,"count":2286,"type":"VEC3","name":"accessorNormals"},{"bufferView":2,"byteOffset":367608,"componentType":5126,"count":2286,"type":"VEC2","name":"accessorUVs"},{"bufferView":0,"byteOffset":96476,"componentType":5123,"count":3270,"type":"SCALAR","name":"accessorIndices"},{"bufferView":1,"byteOffset":1157688,"componentType":5126,"count":3270,"max":[59.52356,357.337738,252.781555],"min":[-30.7427673,-432.81,-246.289337],"type":"VEC3","name":"accessorPositions"},{"bufferView":1,"byteOffset":1196928,"componentType":5126,"count":3270,"type":"VEC3","name":"accessorNormals"},{"bufferView":2,"byteOffset":385896,"componentType":5126,"count":3270,"type":"VEC2","name":"accessorUVs"},{"bufferView":0,"byteOffset":103016,"componentType":5123,"count":2286,"type":"SCALAR","name":"accessorIndices"},{"bufferView":1,"byteOffset":1236168,"componentType":5126,"count":2286,"max":[189.598267,8.863281,94.30297],"min":[-189.598267,-8.863403,-94.30298],"type":"VEC3","name":"accessorPositions"},{"bufferView":1,"byteOffset":1263600,"componentType":5126,"count":2286,"type":"VEC3","name":"accessorNormals"},{"bufferView":2,"byteOffset":412056,"componentType":5126,"count":2286,"type":"VEC2","name":"accessorUVs"},{"bufferView":0,"byteOffset":107588,"componentType":5123,"count":3930,"type":"SCALAR","name":"accessorIndices"},{"bufferView":1,"byteOffset":1291032,"componentType":5126,"count":3930,"max":[139.979767,44.2650146,334.999756],"min":[-139.533463,-71.60144,-337.092865],"type":"VEC3","name":"accessorPositions"},{"bufferView":1,"byteOffset":1338192,"componentType":5126,"count":3930,"type":"VEC3","name":"accessorNormals"},{"bufferView":2,"byteOffset":430344,"componentType":5126,"count":3930,"type":"VEC2","name":"accessorUVs"},{"bufferView":0,"byteOffset":115448,"componentType":5123,"count":10872,"type":"SCALAR","name":"accessorIndices"},{"bufferView":1,"byteOffset":1385352,"componentType":5126,"count":10872,"max":[142.504852,93.32973,108.115936],"min":[-142.504974,-1.3294127,-108.116089],"type":"VEC3","name":"accessorPositions"},{"bufferView":1,"byteOffset":1515816,"componentType":5126,"count":10872,"type":"VEC3","name":"accessorNormals"},{"bufferView":2,"byteOffset":461784,"componentType":5126,"count":10872,"type":"VEC2","name":"accessorUVs"},{"bufferView":0,"byteOffset":137192,"componentType":5123,"count":4290,"type":"SCALAR","name":"accessorIndices"},{"bufferView":1,"byteOffset":1646280,"componentType":5126,"count":4290,"max":[191.4497,95.6716156,83.0527344],"min":[-191.449738,-0.169494629,-83.05249],"type":"VEC3","name":"accessorPositions"},{"bufferView":1,"byteOffset":1697760,"componentType":5126,"count":4290,"type":"VEC3","name":"accessorNormals"},{"bufferView":2,"byteOffset":548760,"componentType":5126,"count":4290,"type":"VEC2","name":"accessorUVs"},{"bufferView":0,"byteOffset":145772,"componentType":5123,"count":3012,"type":"SCALAR","name":"accessorIndices"},{"bufferView":1,"byteOffset":1749240,"componentType":5126,"count":3012,"max":[226.554688,37.1267624,173.377625],"min":[-226.554688,-1.28179932,-173.37735],"type":"VEC3","name":"accessorPositions"},{"bufferView":1,"byteOffset":1785384,"componentType":5126,"count":3012,"type":"VEC3","name":"accessorNormals"},{"bufferView":2,"byteOffset":583080,"componentType":5126,"count":3012,"type":"VEC2","name":"accessorUVs"},{"bufferView":0,"byteOffset":151796,"componentType":5123,"count":5013,"type":"SCALAR","name":"accessorIndices"},{"bufferView":1,"byteOffset":1821528,"componentType":5126,"count":5013,"max":[69.43063,376.502319,240.7008],"min":[-69.45236,-376.078278,-240.700653],"type":"VEC3","name":"accessorPositions"},{"bufferView":1,"byteOffset":1881684,"componentType":5126,"count":5013,"type":"VEC3","name":"accessorNormals"},{"bufferView":2,"byteOffset":607176,"componentType":5126,"count":5013,"type":"VEC2","name":"accessorUVs"}],"bufferViews":[{"buffer":0,"byteLength":161824,"name":"bufferViewScalar"},{"buffer":0,"byteOffset":161824,"byteLength":1941840,"byteStride":12,"name":"bufferViewFloatVec3"},{"buffer":0,"byteOffset":2103664,"byteLength":647280,"byteStride":8,"name":"bufferViewFloatVec2"}],"buffers":[{"uri":"all.bin","byteLength":2750944}],"materials":[{"pbrMetallicRoughness":{"baseColorFactor":[0.6125001,0.6125001,0.6125001,1.0],"metallicFactor":0.0,"roughnessFactor":0.9},"emissiveFactor":[0.0,0.0,0.0],"alphaMode":"OPAQUE","name":"m_xz"}]}