{"asset":{"version":"2.0","generator":"babylon.js glTF exporter for 3ds max 2015 v1.3.33"},"scene":0,"scenes":[{"nodes":[0,1],"extensions":{}}],"nodes":[{"mesh":0,"translation":[0.0,0.0,0.0],"rotation":[5.364418E-07,-2.38418579E-07,-1.490104E-08,1.0],"scale":[0.100960091,0.100960091,0.100960083],"name":"perf_panel008"},{"translation":[0.0,0.0,0.0],"rotation":[0.0,0.0,0.0,1.0],"scale":[1.0,1.0,1.0],"name":"Default light"}],"meshes":[{"primitives":[{"attributes":{"POSITION":1,"NORMAL":2,"TEXCOORD_0":3},"indices":0,"mode":4,"material":0}],"name":"perf_panel008"}],"accessors":[{"bufferView":0,"componentType":5123,"count":54240,"type":"SCALAR","name":"accessorIndices"},{"bufferView":1,"componentType":5126,"count":54240,"max":[294.250031,18.500042,77.5],"min":[-294.250031,3.71488932E-05,-77.50002],"type":"VEC3","name":"accessorPositions"},{"bufferView":1,"byteOffset":650880,"componentType":5126,"count":54240,"type":"VEC3","name":"accessorNormals"},{"bufferView":2,"componentType":5126,"count":54240,"type":"VEC2","name":"accessorUVs"}],"bufferViews":[{"buffer":0,"byteLength":108480,"name":"bufferViewScalar"},{"buffer":0,"byteOffset":108480,"byteLength":1301760,"byteStride":12,"name":"bufferViewFloatVec3"},{"buffer":0,"byteOffset":1410240,"byteLength":433920,"byteStride":8,"name":"bufferViewFloatVec2"}],"buffers":[{"uri":"L99G64WH.bin","byteLength":1844160}],"materials":[{"pbrMetallicRoughness":{"baseColorFactor":[0.9803923,0.9803923,0.9803923,1.0],"metallicFactor":0.0,"roughnessFactor":0.9},"emissiveFactor":[0.0,0.0,0.0],"alphaMode":"OPAQUE","name":"m_base0"}]}