{"asset":{"version":"2.0","generator":"babylon.js glTF exporter for 3ds max 2015 v1.3.33"},"scene":0,"scenes":[{"nodes":[0,12,13,14,15,16],"extensions":{}}],"nodes":[{"children":[1,2,3,4,5,6,7,8,9,10,11],"translation":[0.0,0.0,0.0],"rotation":[0.0,0.0,0.0,1.0],"scale":[1.0,1.0,1.0],"name":"Group001"},{"mesh":0,"translation":[0.0202264786,34.86279,-0.168462753],"rotation":[-2.38418579E-07,5.684342E-14,-2.38418579E-07,1.0],"scale":[1.0,1.0,1.0],"name":"Object2847"},{"mesh":1,"translation":[8.997822,22.44745,-0.201169968],"rotation":[-2.38418579E-07,5.684342E-14,-2.38418579E-07,1.0],"scale":[1.06779742,1.0,1.06779742],"name":"Cylinder2854"},{"mesh":2,"translation":[21.0014839,22.4474354,-0.201169968],"rotation":[-2.38418579E-07,5.684342E-14,-2.38418579E-07,1.0],"scale":[1.06779742,1.0,1.06779742],"name":"Cylinder2860"},{"mesh":3,"translation":[14.9995308,22.4474354,-0.201169968],"rotation":[-2.38418579E-07,5.684342E-14,-2.38418579E-07,1.0],"scale":[1.06779742,1.0,1.06779742],"name":"Cylinder2857"},{"mesh":4,"translation":[-9.007549,22.44745,-0.201169968],"rotation":[-2.38418579E-07,5.684342E-14,-2.38418579E-07,1.0],"scale":[1.06779742,1.0,1.06779742],"name":"Cylinder2855"},{"mesh":5,"translation":[2.996111,22.44745,-0.201169968],"rotation":[-2.38418579E-07,5.684342E-14,-2.38418579E-07,1.0],"scale":[1.06779742,1.0,1.06779742],"name":"Cylinder2859"},{"mesh":6,"translation":[-15.0095024,22.44745,-0.201169968],"rotation":[-2.38418579E-07,5.684342E-14,-2.38418579E-07,1.0],"scale":[1.06779742,1.0,1.06779742],"name":"Cylinder2861"},{"mesh":7,"translation":[-3.00584126,22.44745,-0.201169968],"rotation":[-2.38418579E-07,5.684342E-14,-2.38418579E-07,1.0],"scale":[1.06779742,1.0,1.06779742],"name":"Cylinder2858"},{"mesh":8,"translation":[-0.00510883331,21.9906635,-0.193220139],"rotation":[-0.5,-0.5000002,0.499999851,0.5],"scale":[1.0,1.0,1.0],"name":"Arc076"},{"mesh":9,"translation":[-21.0112743,22.44752,-0.201169968],"rotation":[-2.38418579E-07,5.684342E-14,-2.38418579E-07,1.0],"scale":[1.06779742,1.0,1.06779742],"name":"Cylinder2856"},{"mesh":10,"translation":[1.8119812E-05,21.29999,-1.335144E-05],"rotation":[-4.76837158E-07,1.13686838E-13,-2.38418579E-07,1.0],"scale":[1.0,1.0,1.0],"name":"Object2848"},{"mesh":11,"translation":[1.69081116,23.6889954,50.6857529],"rotation":[0.0,-0.7071068,0.0,0.7071067],"scale":[0.350947827,0.630207658,0.385708],"name":"markerObj_tit20"},{"mesh":12,"translation":[19.8188267,23.6889954,50.6857529],"rotation":[0.0,-0.7071068,0.0,0.7071067],"scale":[0.350947827,0.630207658,0.385708],"name":"markerObj_tit20 (1)"},{"mesh":13,"translation":[-22.3355885,23.6889954,50.6857529],"rotation":[0.0,-0.7071068,0.0,0.7071067],"scale":[0.350947827,0.630207658,0.385708],"name":"markerObj_tit20 (2)"},{"mesh":14,"translation":[-10.3761044,23.6889954,50.6857529],"rotation":[0.0,-0.7071068,0.0,0.7071067],"scale":[0.350947827,0.630207658,0.385708],"name":"markerObj_tit021"},{"translation":[0.0,0.0,0.0],"rotation":[0.0,0.0,0.0,1.0],"scale":[1.0,1.0,1.0],"name":"Default light"}],"meshes":[{"primitives":[{"attributes":{"POSITION":1,"NORMAL":2,"TEXCOORD_0":3},"indices":0,"mode":4,"material":0}],"name":"Object2847"},{"primitives":[{"attributes":{"POSITION":5,"NORMAL":6,"TEXCOORD_0":7},"indices":4,"mode":4,"material":0}],"name":"Cylinder2854"},{"primitives":[{"attributes":{"POSITION":9,"NORMAL":10,"TEXCOORD_0":11},"indices":8,"mode":4,"material":0}],"name":"Cylinder2860"},{"primitives":[{"attributes":{"POSITION":13,"NORMAL":14,"TEXCOORD_0":15},"indices":12,"mode":4,"material":0}],"name":"Cylinder2857"},{"primitives":[{"attributes":{"POSITION":17,"NORMAL":18,"TEXCOORD_0":19},"indices":16,"mode":4,"material":0}],"name":"Cylinder2855"},{"primitives":[{"attributes":{"POSITION":21,"NORMAL":22,"TEXCOORD_0":23},"indices":20,"mode":4,"material":0}],"name":"Cylinder2859"},{"primitives":[{"attributes":{"POSITION":25,"NORMAL":26,"TEXCOORD_0":27},"indices":24,"mode":4,"material":0}],"name":"Cylinder2861"},{"primitives":[{"attributes":{"POSITION":29,"NORMAL":30,"TEXCOORD_0":31},"indices":28,"mode":4,"material":0}],"name":"Cylinder2858"},{"primitives":[{"attributes":{"POSITION":33,"NORMAL":34,"TEXCOORD_0":35},"indices":32,"mode":4,"material":0}],"name":"Arc076"},{"primitives":[{"attributes":{"POSITION":37,"NORMAL":38,"TEXCOORD_0":39},"indices":36,"mode":4,"material":0}],"name":"Cylinder2856"},{"primitives":[{"attributes":{"POSITION":41,"NORMAL":42,"TEXCOORD_0":43},"indices":40,"mode":4,"material":0}],"name":"Object2848"},{"primitives":[{"attributes":{"POSITION":45,"NORMAL":46,"TEXCOORD_0":47},"indices":44}],"name":"markerObj_tit20"},{"primitives":[{"attributes":{"POSITION":49,"NORMAL":50,"TEXCOORD_0":51},"indices":48}],"name":"markerObj_tit20"},{"primitives":[{"attributes":{"POSITION":53,"NORMAL":54,"TEXCOORD_0":55},"indices":52}],"name":"markerObj_tit20"},{"primitives":[{"attributes":{"POSITION":57,"NORMAL":58,"TEXCOORD_0":59},"indices":56}],"name":"markerObj_tit021"}],"accessors":[{"bufferView":0,"componentType":5123,"count":20904,"type":"SCALAR","name":"accessorIndices"},{"bufferView":1,"componentType":5126,"count":20904,"max":[21.4751987,7.690399,0.4667079],"min":[-21.522974,7.19039536,-0.533180833],"type":"VEC3","name":"accessorPositions"},{"bufferView":1,"byteOffset":250848,"componentType":5126,"count":20904,"type":"VEC3","name":"accessorNormals"},{"bufferView":2,"componentType":5126,"count":20904,"type":"VEC2","name":"accessorUVs"},{"bufferView":0,"byteOffset":41808,"componentType":5123,"count":63,"type":"SCALAR","name":"accessorIndices"},{"bufferView":1,"byteOffset":501696,"componentType":5126,"count":63,"max":[0.46384716,20.0004063,0.456803322],"min":[-0.4358735,-19.9997272,-0.456803262],"type":"VEC3","name":"accessorPositions"},{"bufferView":1,"byteOffset":502452,"componentType":5126,"count":63,"type":"VEC3","name":"accessorNormals"},{"bufferView":2,"byteOffset":167232,"componentType":5126,"count":63,"type":"VEC2","name":"accessorUVs"},{"bufferView":0,"byteOffset":41936,"componentType":5123,"count":63,"type":"SCALAR","name":"accessorIndices"},{"bufferView":1,"byteOffset":503208,"componentType":5126,"count":63,"max":[0.4638462,20.0004082,0.456803322],"min":[-0.435876846,-19.9997272,-0.456803262],"type":"VEC3","name":"accessorPositions"},{"bufferView":1,"byteOffset":503964,"componentType":5126,"count":63,"type":"VEC3","name":"accessorNormals"},{"bufferView":2,"byteOffset":167736,"componentType":5126,"count":63,"type":"VEC2","name":"accessorUVs"},{"bufferView":0,"byteOffset":42064,"componentType":5123,"count":63,"type":"SCALAR","name":"accessorIndices"},{"bufferView":1,"byteOffset":504720,"componentType":5126,"count":63,"max":[0.4638481,20.0004063,0.456803322],"min":[-0.435873032,-19.9997272,-0.456803262],"type":"VEC3","name":"accessorPositions"},{"bufferView":1,"byteOffset":505476,"componentType":5126,"count":63,"type":"VEC3","name":"accessorNormals"},{"bufferView":2,"byteOffset":168240,"componentType":5126,"count":63,"type":"VEC2","name":"accessorUVs"},{"bufferView":0,"byteOffset":42192,"componentType":5123,"count":63,"type":"SCALAR","name":"accessorIndices"},{"bufferView":1,"byteOffset":506232,"componentType":5126,"count":63,"max":[0.463847637,20.0004063,0.456803322],"min":[-0.435873032,-19.9997272,-0.456803262],"type":"VEC3","name":"accessorPositions"},{"bufferView":1,"byteOffset":506988,"componentType":5126,"count":63,"type":"VEC3","name":"accessorNormals"},{"bufferView":2,"byteOffset":168744,"componentType":5126,"count":63,"type":"VEC2","name":"accessorUVs"},{"bufferView":0,"byteOffset":42320,"componentType":5123,"count":63,"type":"SCALAR","name":"accessorIndices"},{"bufferView":1,"byteOffset":507744,"componentType":5126,"count":63,"max":[0.46384716,20.0004044,0.456803322],"min":[-0.435874,-19.9997272,-0.456803262],"type":"VEC3","name":"accessorPositions"},{"bufferView":1,"byteOffset":508500,"componentType":5126,"count":63,"type":"VEC3","name":"accessorNormals"},{"bufferView":2,"byteOffset":169248,"componentType":5126,"count":63,"type":"VEC2","name":"accessorUVs"},{"bufferView":0,"byteOffset":42448,"componentType":5123,"count":63,"type":"SCALAR","name":"accessorIndices"},{"bufferView":1,"byteOffset":509256,"componentType":5126,"count":63,"max":[0.46384716,20.0004063,0.456803322],"min":[-0.435873032,-19.9997272,-0.456803262],"type":"VEC3","name":"accessorPositions"},{"bufferView":1,"byteOffset":510012,"componentType":5126,"count":63,"type":"VEC3","name":"accessorNormals"},{"bufferView":2,"byteOffset":169752,"componentType":5126,"count":63,"type":"VEC2","name":"accessorUVs"},{"bufferView":0,"byteOffset":42576,"componentType":5123,"count":63,"type":"SCALAR","name":"accessorIndices"},{"bufferView":1,"byteOffset":510768,"componentType":5126,"count":63,"max":[0.46384716,20.0004082,0.456803322],"min":[-0.435874,-19.9997272,-0.456803262],"type":"VEC3","name":"accessorPositions"},{"bufferView":1,"byteOffset":511524,"componentType":5126,"count":63,"type":"VEC3","name":"accessorNormals"},{"bufferView":2,"byteOffset":170256,"componentType":5126,"count":63,"type":"VEC2","name":"accessorUVs"},{"bufferView":0,"byteOffset":42704,"componentType":5123,"count":6714,"type":"SCALAR","name":"accessorIndices"},{"bufferView":1,"byteOffset":512280,"componentType":5126,"count":6714,"max":[20.42087,0.8411691,28.1041431],"min":[-20.4740715,-0.8411691,-28.1051979],"type":"VEC3","name":"accessorPositions"},{"bufferView":1,"byteOffset":592848,"componentType":5126,"count":6714,"type":"VEC3","name":"accessorNormals"},{"bufferView":2,"byteOffset":170760,"componentType":5126,"count":6714,"type":"VEC2","name":"accessorUVs"},{"bufferView":0,"byteOffset":56132,"componentType":5123,"count":63,"type":"SCALAR","name":"accessorIndices"},{"bufferView":1,"byteOffset":673416,"componentType":5126,"count":63,"max":[0.4638462,20.0004044,0.456803322],"min":[-0.435874939,-19.9997272,-0.456803262],"type":"VEC3","name":"accessorPositions"},{"bufferView":1,"byteOffset":674172,"componentType":5126,"count":63,"type":"VEC3","name":"accessorNormals"},{"bufferView":2,"byteOffset":224472,"componentType":5126,"count":63,"type":"VEC2","name":"accessorUVs"},{"bufferView":0,"byteOffset":56260,"componentType":5123,"count":30822,"type":"SCALAR","name":"accessorIndices"},{"bufferView":1,"byteOffset":674928,"componentType":5126,"count":30822,"max":[29.95137,21.3000011,1.20000088],"min":[-29.9513931,-21.3000011,-1.20000148],"type":"VEC3","name":"accessorPositions"},{"bufferView":1,"byteOffset":1044792,"componentType":5126,"count":30822,"type":"VEC3","name":"accessorNormals"},{"bufferView":2,"byteOffset":224976,"componentType":5126,"count":30822,"type":"VEC2","name":"accessorUVs"},{"bufferView":0,"byteOffset":117904,"componentType":5123,"count":96,"type":"SCALAR","name":"accessorIndices"},{"bufferView":1,"byteOffset":1414656,"componentType":5126,"count":96,"max":[3.73376465,4.22077942,3.409091],"min":[-3.73376465,0.0,-3.40909147],"type":"VEC3","name":"accessorPositions"},{"bufferView":1,"byteOffset":1415808,"componentType":5126,"count":96,"type":"VEC3","name":"accessorNormals"},{"bufferView":2,"byteOffset":471552,"componentType":5126,"count":96,"type":"VEC2","name":"accessorUVs"},{"bufferView":0,"byteOffset":118096,"componentType":5123,"count":96,"type":"SCALAR","name":"accessorIndices"},{"bufferView":1,"byteOffset":1416960,"componentType":5126,"count":96,"max":[3.73376465,4.22077942,3.409092],"min":[-3.73376465,0.0,-3.409092],"type":"VEC3","name":"accessorPositions"},{"bufferView":1,"byteOffset":1418112,"componentType":5126,"count":96,"type":"VEC3","name":"accessorNormals"},{"bufferView":2,"byteOffset":472320,"componentType":5126,"count":96,"type":"VEC2","name":"accessorUVs"},{"bufferView":0,"byteOffset":118288,"componentType":5123,"count":96,"type":"SCALAR","name":"accessorIndices"},{"bufferView":1,"byteOffset":1419264,"componentType":5126,"count":96,"max":[3.73376465,4.22077942,3.409092],"min":[-3.73376465,0.0,-3.409092],"type":"VEC3","name":"accessorPositions"},{"bufferView":1,"byteOffset":1420416,"componentType":5126,"count":96,"type":"VEC3","name":"accessorNormals"},{"bufferView":2,"byteOffset":473088,"componentType":5126,"count":96,"type":"VEC2","name":"accessorUVs"},{"bufferView":0,"byteOffset":118480,"componentType":5123,"count":96,"type":"SCALAR","name":"accessorIndices"},{"bufferView":1,"byteOffset":1421568,"componentType":5126,"count":96,"max":[3.73376465,4.22077942,3.40909],"min":[-3.73376465,0.0,-3.40909386],"type":"VEC3","name":"accessorPositions"},{"bufferView":1,"byteOffset":1422720,"componentType":5126,"count":96,"type":"VEC3","name":"accessorNormals"},{"bufferView":2,"byteOffset":473856,"componentType":5126,"count":96,"type":"VEC2","name":"accessorUVs"}],"bufferViews":[{"buffer":0,"byteLength":118672,"name":"bufferViewScalar"},{"buffer":0,"byteOffset":118672,"byteLength":1423872,"byteStride":12,"name":"bufferViewFloatVec3"},{"buffer":0,"byteOffset":1542544,"byteLength":474624,"byteStride":8,"name":"bufferViewFloatVec2"}],"buffers":[{"uri":"L9602WH.bin","byteLength":2017168}],"materials":[{"pbrMetallicRoughness":{"baseColorFactor":[0.6125001,0.6125001,0.6125001,1.0],"metallicFactor":0.0,"roughnessFactor":0.9},"emissiveFactor":[0.0,0.0,0.0],"alphaMode":"OPAQUE","name":"m_base0"}]}