{"asset":{"version":"2.0","generator":"babylon.js glTF exporter for 3ds max 2015 v1.3.33"},"scene":0,"scenes":[{"nodes":[0,1],"extensions":{}}],"nodes":[{"mesh":0,"translation":[0.0,0.0,0.0],"rotation":[-3.13916473E-07,4.371139E-08,1.0,1.37217245E-14],"scale":[2.54,2.54,2.54],"name":"stitch_result_stitch all"},{"translation":[0.0,0.0,0.0],"rotation":[0.0,0.0,0.0,1.0],"scale":[1.0,1.0,1.0],"name":"Default light"}],"meshes":[{"primitives":[{"attributes":{"POSITION":1,"NORMAL":2,"TEXCOORD_0":3},"indices":0,"mode":4,"material":0}],"name":"stitch_result_stitch all"}],"accessors":[{"bufferView":0,"componentType":5123,"count":10932,"type":"SCALAR","name":"accessorIndices"},{"bufferView":1,"componentType":5126,"count":10932,"max":[0.0787402242,3.44131621E-07,0.9856046],"min":[-0.07874011,-1.59496522,-0.9856046],"type":"VEC3","name":"accessorPositions"},{"bufferView":1,"byteOffset":131184,"componentType":5126,"count":10932,"type":"VEC3","name":"accessorNormals"},{"bufferView":2,"componentType":5126,"count":10932,"type":"VEC2","name":"accessorUVs"}],"bufferViews":[{"buffer":0,"byteLength":21864,"name":"bufferViewScalar"},{"buffer":0,"byteOffset":21864,"byteLength":262368,"byteStride":12,"name":"bufferViewFloatVec3"},{"buffer":0,"byteOffset":284232,"byteLength":87456,"byteStride":8,"name":"bufferViewFloatVec2"}],"buffers":[{"uri":"LWHK005.bin","byteLength":371688}],"materials":[{"pbrMetallicRoughness":{"baseColorFactor":[0.612745166,0.612745166,0.612745166,1.0],"metallicFactor":0.0,"roughnessFactor":0.9},"emissiveFactor":[0.0,0.0,0.0],"alphaMode":"OPAQUE","name":"m_Metal"}]}