{"asset":{"version":"2.0","generator":"babylon.js glTF exporter for 3ds max 2018 v1.4.0"},"scene":0,"scenes":[{"nodes":[0,1,2,3,4,5,6,7,8,9,10,11,12,13,14,15,16,17,18,19],"extensions":{}}],"nodes":[{"mesh":0,"translation":[0.0,0.0,0.0],"rotation":[0.0,0.0,0.0,1.0],"scale":[1.0,1.0,1.0],"name":"marker_4"},{"mesh":1,"translation":[0.000383012,-0.2613881,-8.255808],"rotation":[0.0,0.0,0.0,1.0],"scale":[1.0,1.0,1.0],"name":"marker_0"},{"mesh":2,"translation":[0.0,0.0,0.0],"rotation":[0.0,0.0,0.0,1.0],"scale":[1.0,1.0,1.0],"name":"Box001"},{"mesh":3,"translation":[1.63020658,-0.0157823563,-1.27520669],"rotation":[0.0,0.0,0.0,1.0],"scale":[1.0,1.0,1.0],"name":"Box002"},{"mesh":4,"translation":[1.88681674,0.471499443,1.24944556],"rotation":[0.0,0.0,0.0,1.0],"scale":[1.0,1.0,1.0],"name":"Box003"},{"mesh":5,"translation":[0.625,0.0,0.0],"rotation":[0.0,0.0,0.0,1.0],"scale":[1.0,1.0,1.0],"name":"Box004"},{"mesh":6,"translation":[-0.625,0.0,0.0],"rotation":[0.0,0.0,0.0,1.0],"scale":[1.0,1.0,1.0],"name":"Box005"},{"mesh":7,"translation":[1.61257982,-0.0157823563,8.698441],"rotation":[0.0,0.0,0.0,1.0],"scale":[1.0,1.0,1.0],"name":"Box007"},{"mesh":8,"translation":[0.625,0.0,10.040081],"rotation":[0.0,0.0,0.0,1.0],"scale":[1.0,1.0,1.0],"name":"Box009"},{"mesh":9,"translation":[-0.625,0.0,10.040081],"rotation":[0.0,0.0,0.0,1.0],"scale":[1.0,1.0,1.0],"name":"Box010"},{"mesh":10,"translation":[0.0,0.0,10.0],"rotation":[0.0,0.0,0.0,1.0],"scale":[1.0,1.0,1.0],"name":"marker_1"},{"mesh":11,"translation":[0.0,0.0,10.0],"rotation":[0.0,0.0,0.0,1.0],"scale":[1.0,1.0,1.0],"name":"Box011"},{"mesh":12,"translation":[1.61257982,-0.0157823563,11.3003416],"rotation":[0.0,0.0,0.0,1.0],"scale":[1.0,1.0,1.0],"name":"Box012"},{"mesh":13,"translation":[0.0,0.0,20.0],"rotation":[0.0,0.0,0.0,1.0],"scale":[1.0,1.0,1.0],"name":"Box013"},{"mesh":14,"translation":[1.63020658,-0.0157823563,21.2729416],"rotation":[0.0,0.0,0.0,1.0],"scale":[1.0,1.0,1.0],"name":"Box014"},{"mesh":15,"translation":[1.88681674,0.471499443,18.7501316],"rotation":[0.0,0.0,0.0,1.0],"scale":[1.0,1.0,1.0],"name":"Box015"},{"mesh":16,"translation":[0.625,0.0,19.7402973],"rotation":[0.0,0.0,0.0,1.0],"scale":[1.0,1.0,1.0],"name":"Box016"},{"mesh":17,"translation":[-0.625,0.0,19.7402973],"rotation":[0.0,0.0,0.0,1.0],"scale":[1.0,1.0,1.0],"name":"Box017"},{"mesh":18,"translation":[0.0,0.0,20.0],"rotation":[0.0,0.0,0.0,1.0],"scale":[1.0,1.0,1.0],"name":"marker_5"},{"translation":[0.0,0.0,0.0],"rotation":[0.0,0.0,0.0,1.0],"scale":[1.0,1.0,1.0],"name":"Default light"}],"meshes":[{"primitives":[{"attributes":{"POSITION":1,"NORMAL":2,"TEXCOORD_0":3},"indices":0,"mode":4,"material":0}],"name":"marker_4"},{"primitives":[{"attributes":{"POSITION":5,"NORMAL":6,"TEXCOORD_0":7},"indices":4,"mode":4,"material":0}],"name":"marker_0"},{"primitives":[{"attributes":{"POSITION":9,"NORMAL":10,"TEXCOORD_0":11},"indices":8}],"name":"Box001"},{"primitives":[{"attributes":{"POSITION":13,"NORMAL":14,"TEXCOORD_0":15},"indices":12}],"name":"Box002"},{"primitives":[{"attributes":{"POSITION":17,"NORMAL":18,"TEXCOORD_0":19},"indices":16}],"name":"Box003"},{"primitives":[{"attributes":{"POSITION":21,"NORMAL":22,"TEXCOORD_0":23},"indices":20}],"name":"Box004"},{"primitives":[{"attributes":{"POSITION":25,"NORMAL":26,"TEXCOORD_0":27},"indices":24}],"name":"Box005"},{"primitives":[{"attributes":{"POSITION":29,"NORMAL":30,"TEXCOORD_0":31},"indices":28}],"name":"Box007"},{"primitives":[{"attributes":{"POSITION":33,"NORMAL":34,"TEXCOORD_0":35},"indices":32}],"name":"Box009"},{"primitives":[{"attributes":{"POSITION":37,"NORMAL":38,"TEXCOORD_0":39},"indices":36}],"name":"Box010"},{"primitives":[{"attributes":{"POSITION":41,"NORMAL":42,"TEXCOORD_0":43},"indices":40,"mode":4,"material":0}],"name":"marker_1"},{"primitives":[{"attributes":{"POSITION":45,"NORMAL":46,"TEXCOORD_0":47},"indices":44}],"name":"Box011"},{"primitives":[{"attributes":{"POSITION":49,"NORMAL":50,"TEXCOORD_0":51},"indices":48}],"name":"Box012"},{"primitives":[{"attributes":{"POSITION":53,"NORMAL":54,"TEXCOORD_0":55},"indices":52}],"name":"Box013"},{"primitives":[{"attributes":{"POSITION":57,"NORMAL":58,"TEXCOORD_0":59},"indices":56}],"name":"Box014"},{"primitives":[{"attributes":{"POSITION":61,"NORMAL":62,"TEXCOORD_0":63},"indices":60}],"name":"Box015"},{"primitives":[{"attributes":{"POSITION":65,"NORMAL":66,"TEXCOORD_0":67},"indices":64}],"name":"Box016"},{"primitives":[{"attributes":{"POSITION":69,"NORMAL":70,"TEXCOORD_0":71},"indices":68}],"name":"Box017"},{"primitives":[{"attributes":{"POSITION":73,"NORMAL":74,"TEXCOORD_0":75},"indices":72,"mode":4,"material":0}],"name":"marker_5"}],"accessors":[{"bufferView":0,"componentType":5123,"count":186,"type":"SCALAR","name":"accessorIndices"},{"bufferView":1,"componentType":5126,"count":186,"max":[1.29987478,2.34331512,1.57510471],"min":[-1.29991055,0.00212097168,-1.57522571],"type":"VEC3","name":"accessorPositions"},{"bufferView":1,"byteOffset":2232,"componentType":5126,"count":186,"type":"VEC3","name":"accessorNormals"},{"bufferView":2,"componentType":5126,"count":186,"type":"VEC2","name":"accessorUVs"},{"bufferView":0,"byteOffset":372,"componentType":5123,"count":252,"type":"SCALAR","name":"accessorIndices"},{"bufferView":1,"byteOffset":4464,"componentType":5126,"count":252,"max":[9.999619,1.09066474,2.06755161],"min":[-9.99961948,-0.00146076083,-2.06755257],"type":"VEC3","name":"accessorPositions"},{"bufferView":1,"byteOffset":7488,"componentType":5126,"count":252,"type":"VEC3","name":"accessorNormals"},{"bufferView":2,"byteOffset":1488,"componentType":5126,"count":252,"type":"VEC2","name":"accessorUVs"},{"bufferView":0,"byteOffset":876,"componentType":5123,"count":36,"type":"SCALAR","name":"accessorIndices"},{"bufferView":1,"byteOffset":10512,"componentType":5126,"count":36,"max":[1.3,2.3,1.575],"min":[-1.3,0.0,-1.575],"type":"VEC3","name":"accessorPositions"},{"bufferView":1,"byteOffset":10944,"componentType":5126,"count":36,"type":"VEC3","name":"accessorNormals"},{"bufferView":2,"byteOffset":3504,"componentType":5126,"count":36,"type":"VEC2","name":"accessorUVs"},{"bufferView":0,"byteOffset":948,"componentType":5123,"count":36,"type":"SCALAR","name":"accessorIndices"},{"bufferView":1,"byteOffset":11376,"componentType":5126,"count":36,"max":[2.25502872,3.20377612,0.3],"min":[-2.25502872,0.0,-0.300000072],"type":"VEC3","name":"accessorPositions"},{"bufferView":1,"byteOffset":11808,"componentType":5126,"count":36,"type":"VEC3","name":"accessorNormals"},{"bufferView":2,"byteOffset":3792,"componentType":5126,"count":36,"type":"VEC2","name":"accessorUVs"},{"bufferView":0,"byteOffset":1020,"componentType":5123,"count":36,"type":"SCALAR","name":"accessorIndices"},{"bufferView":1,"byteOffset":12240,"componentType":5126,"count":36,"max":[2.556289,1.92116022,0.324999928],"min":[-2.5562892,0.0,-0.325],"type":"VEC3","name":"accessorPositions"},{"bufferView":1,"byteOffset":12672,"componentType":5126,"count":36,"type":"VEC3","name":"accessorNormals"},{"bufferView":2,"byteOffset":4080,"componentType":5126,"count":36,"type":"VEC2","name":"accessorUVs"},{"bufferView":0,"byteOffset":1092,"componentType":5123,"count":36,"type":"SCALAR","name":"accessorIndices"},{"bufferView":1,"byteOffset":13104,"componentType":5126,"count":36,"max":[0.149999976,3.63464284,0.4689862],"min":[-0.15,0.0,-0.4689862],"type":"VEC3","name":"accessorPositions"},{"bufferView":1,"byteOffset":13536,"componentType":5126,"count":36,"type":"VEC3","name":"accessorNormals"},{"bufferView":2,"byteOffset":4368,"componentType":5126,"count":36,"type":"VEC2","name":"accessorUVs"},{"bufferView":0,"byteOffset":1164,"componentType":5123,"count":36,"type":"SCALAR","name":"accessorIndices"},{"bufferView":1,"byteOffset":13968,"componentType":5126,"count":36,"max":[0.15,3.63464284,0.4689862],"min":[-0.149999976,0.0,-0.4689862],"type":"VEC3","name":"accessorPositions"},{"bufferView":1,"byteOffset":14400,"componentType":5126,"count":36,"type":"VEC3","name":"accessorNormals"},{"bufferView":2,"byteOffset":4656,"componentType":5126,"count":36,"type":"VEC2","name":"accessorUVs"},{"bufferView":0,"byteOffset":1236,"componentType":5123,"count":36,"type":"SCALAR","name":"accessorIndices"},{"bufferView":1,"byteOffset":14832,"componentType":5126,"count":36,"max":[2.25502872,3.20377612,0.3000002],"min":[-2.25502872,0.0,-0.3000002],"type":"VEC3","name":"accessorPositions"},{"bufferView":1,"byteOffset":15264,"componentType":5126,"count":36,"type":"VEC3","name":"accessorNormals"},{"bufferView":2,"byteOffset":4944,"componentType":5126,"count":36,"type":"VEC2","name":"accessorUVs"},{"bufferView":0,"byteOffset":1308,"componentType":5123,"count":36,"type":"SCALAR","name":"accessorIndices"},{"bufferView":1,"byteOffset":15696,"componentType":5126,"count":36,"max":[0.149999976,3.63464284,0.4689865],"min":[-0.15,0.0,-0.4689865],"type":"VEC3","name":"accessorPositions"},{"bufferView":1,"byteOffset":16128,"componentType":5126,"count":36,"type":"VEC3","name":"accessorNormals"},{"bufferView":2,"byteOffset":5232,"componentType":5126,"count":36,"type":"VEC2","name":"accessorUVs"},{"bufferView":0,"byteOffset":1380,"componentType":5123,"count":36,"type":"SCALAR","name":"accessorIndices"},{"bufferView":1,"byteOffset":16560,"componentType":5126,"count":36,"max":[0.15,3.63464284,0.4689865],"min":[-0.149999976,0.0,-0.4689865],"type":"VEC3","name":"accessorPositions"},{"bufferView":1,"byteOffset":16992,"componentType":5126,"count":36,"type":"VEC3","name":"accessorNormals"},{"bufferView":2,"byteOffset":5520,"componentType":5126,"count":36,"type":"VEC2","name":"accessorUVs"},{"bufferView":0,"byteOffset":1452,"componentType":5123,"count":186,"type":"SCALAR","name":"accessorIndices"},{"bufferView":1,"byteOffset":17424,"componentType":5126,"count":186,"max":[1.29987478,2.34331512,1.600357],"min":[-1.29991055,0.00212097168,-1.60022926],"type":"VEC3","name":"accessorPositions"},{"bufferView":1,"byteOffset":19656,"componentType":5126,"count":186,"type":"VEC3","name":"accessorNormals"},{"bufferView":2,"byteOffset":5808,"componentType":5126,"count":186,"type":"VEC2","name":"accessorUVs"},{"bufferView":0,"byteOffset":1824,"componentType":5123,"count":36,"type":"SCALAR","name":"accessorIndices"},{"bufferView":1,"byteOffset":21888,"componentType":5126,"count":36,"max":[1.3,2.3,1.60000038],"min":[-1.3,0.0,-1.60000038],"type":"VEC3","name":"accessorPositions"},{"bufferView":1,"byteOffset":22320,"componentType":5126,"count":36,"type":"VEC3","name":"accessorNormals"},{"bufferView":2,"byteOffset":7296,"componentType":5126,"count":36,"type":"VEC2","name":"accessorUVs"},{"bufferView":0,"byteOffset":1896,"componentType":5123,"count":36,"type":"SCALAR","name":"accessorIndices"},{"bufferView":1,"byteOffset":22752,"componentType":5126,"count":36,"max":[2.25502872,3.20377612,0.3000002],"min":[-2.25502872,0.0,-0.3000002],"type":"VEC3","name":"accessorPositions"},{"bufferView":1,"byteOffset":23184,"componentType":5126,"count":36,"type":"VEC3","name":"accessorNormals"},{"bufferView":2,"byteOffset":7584,"componentType":5126,"count":36,"type":"VEC2","name":"accessorUVs"},{"bufferView":0,"byteOffset":1968,"componentType":5123,"count":36,"type":"SCALAR","name":"accessorIndices"},{"bufferView":1,"byteOffset":23616,"componentType":5126,"count":36,"max":[1.3,2.3,1.57500076],"min":[-1.3,0.0,-1.57500076],"type":"VEC3","name":"accessorPositions"},{"bufferView":1,"byteOffset":24048,"componentType":5126,"count":36,"type":"VEC3","name":"accessorNormals"},{"bufferView":2,"byteOffset":7872,"componentType":5126,"count":36,"type":"VEC2","name":"accessorUVs"},{"bufferView":0,"byteOffset":2040,"componentType":5123,"count":36,"type":"SCALAR","name":"accessorIndices"},{"bufferView":1,"byteOffset":24480,"componentType":5126,"count":36,"max":[2.25502872,3.20377612,0.299999237],"min":[-2.25502872,0.0,-0.299999237],"type":"VEC3","name":"accessorPositions"},{"bufferView":1,"byteOffset":24912,"componentType":5126,"count":36,"type":"VEC3","name":"accessorNormals"},{"bufferView":2,"byteOffset":8160,"componentType":5126,"count":36,"type":"VEC2","name":"accessorUVs"},{"bufferView":0,"byteOffset":2112,"componentType":5123,"count":36,"type":"SCALAR","name":"accessorIndices"},{"bufferView":1,"byteOffset":25344,"componentType":5126,"count":36,"max":[2.556289,1.92116022,0.325000763],"min":[-2.5562892,0.0,-0.325000763],"type":"VEC3","name":"accessorPositions"},{"bufferView":1,"byteOffset":25776,"componentType":5126,"count":36,"type":"VEC3","name":"accessorNormals"},{"bufferView":2,"byteOffset":8448,"componentType":5126,"count":36,"type":"VEC2","name":"accessorUVs"},{"bufferView":0,"byteOffset":2184,"componentType":5123,"count":36,"type":"SCALAR","name":"accessorIndices"},{"bufferView":1,"byteOffset":26208,"componentType":5126,"count":36,"max":[0.149999976,3.63464284,0.4689865],"min":[-0.15,0.0,-0.4689865],"type":"VEC3","name":"accessorPositions"},{"bufferView":1,"byteOffset":26640,"componentType":5126,"count":36,"type":"VEC3","name":"accessorNormals"},{"bufferView":2,"byteOffset":8736,"componentType":5126,"count":36,"type":"VEC2","name":"accessorUVs"},{"bufferView":0,"byteOffset":2256,"componentType":5123,"count":36,"type":"SCALAR","name":"accessorIndices"},{"bufferView":1,"byteOffset":27072,"componentType":5126,"count":36,"max":[0.15,3.63464284,0.4689865],"min":[-0.149999976,0.0,-0.4689865],"type":"VEC3","name":"accessorPositions"},{"bufferView":1,"byteOffset":27504,"componentType":5126,"count":36,"type":"VEC3","name":"accessorNormals"},{"bufferView":2,"byteOffset":9024,"componentType":5126,"count":36,"type":"VEC2","name":"accessorUVs"},{"bufferView":0,"byteOffset":2328,"componentType":5123,"count":186,"type":"SCALAR","name":"accessorIndices"},{"bufferView":1,"byteOffset":27936,"componentType":5126,"count":186,"max":[1.29987478,2.34331512,1.57510376],"min":[-1.29991055,0.00212097168,-1.57522583],"type":"VEC3","name":"accessorPositions"},{"bufferView":1,"byteOffset":30168,"componentType":5126,"count":186,"type":"VEC3","name":"accessorNormals"},{"bufferView":2,"byteOffset":9312,"componentType":5126,"count":186,"type":"VEC2","name":"accessorUVs"}],"bufferViews":[{"buffer":0,"byteLength":2700,"name":"bufferViewScalar"},{"buffer":0,"byteOffset":2700,"byteLength":32400,"byteStride":12,"name":"bufferViewFloatVec3"},{"buffer":0,"byteOffset":35100,"byteLength":10800,"byteStride":8,"name":"bufferViewFloatVec2"}],"buffers":[{"uri":"ttt.bin","byteLength":45900}],"materials":[{"pbrMetallicRoughness":{"baseColorFactor":[0.294,0.294,0.294,1.0],"metallicFactor":0.0,"roughnessFactor":0.450053632},"emissiveFactor":[0.0,0.0,0.0],"alphaMode":"OPAQUE","name":"m_base"}]}