{"asset":{"version":"2.0","generator":"babylon.js glTF exporter for 3ds max 2015 v1.3.33"},"scene":0,"scenes":[{"nodes":[0,1],"extensions":{}}],"nodes":[{"mesh":0,"translation":[0.0,0.0,0.0],"rotation":[0.0,0.0,0.0,1.0],"scale":[1.0,1.0,0.163841709],"name":"Box001"},{"translation":[0.0,0.0,0.0],"rotation":[0.0,0.0,0.0,1.0],"scale":[1.0,1.0,1.0],"name":"Default light"}],"meshes":[{"primitives":[{"attributes":{"POSITION":1,"NORMAL":2,"TEXCOORD_0":3},"indices":0,"mode":4,"material":0}],"name":"Box001"}],"accessors":[{"bufferView":0,"componentType":5123,"count":1356,"type":"SCALAR","name":"accessorIndices"},{"bufferView":1,"componentType":5126,"count":1356,"max":[20.0000019,45.74552,61.0345459],"min":[-20.0000019,2.86102272E-06,-61.0354729],"type":"VEC3","name":"accessorPositions"},{"bufferView":1,"byteOffset":16272,"componentType":5126,"count":1356,"type":"VEC3","name":"accessorNormals"},{"bufferView":2,"componentType":5126,"count":1356,"type":"VEC2","name":"accessorUVs"}],"bufferViews":[{"buffer":0,"byteLength":2712,"name":"bufferViewScalar"},{"buffer":0,"byteOffset":2712,"byteLength":32544,"byteStride":12,"name":"bufferViewFloatVec3"},{"buffer":0,"byteOffset":35256,"byteLength":10848,"byteStride":8,"name":"bufferViewFloatVec2"}],"buffers":[{"uri":"hrenaten2.bin","byteLength":46104}],"materials":[{"pbrMetallicRoughness":{"baseColorFactor":[0.6125001,0.6125001,0.6125001,1.0],"metallicFactor":0.0,"roughnessFactor":0.9},"emissiveFactor":[0.0,0.0,0.0],"alphaMode":"OPAQUE","name":"m_mat_t"}]}