{"asset":{"version":"2.0","generator":"babylon.js glTF exporter for 3ds max 2015 v1.3.33"},"scene":0,"scenes":[{"nodes":[0,1,2,3,4],"extensions":{}}],"nodes":[{"mesh":0,"translation":[0.0,0.0,0.0],"rotation":[-1.84774331E-06,2.93652033E-06,2.41785727E-07,1.0],"scale":[0.6779365,-1.1161,0.6779366],"name":"Cylinder29959"},{"mesh":1,"translation":[28.7170715,20.5648556,-1.40541863],"rotation":[0.0,-0.7071068,0.0,0.7071067],"scale":[0.350947827,0.630207658,0.385708],"name":"markerObj_tit2"},{"mesh":2,"translation":[-28.9262466,20.5648556,-1.40541863],"rotation":[0.0,-0.7071068,0.0,0.7071067],"scale":[0.350947827,0.630207658,0.385708],"name":"markerObj_tit2 (1)"},{"mesh":3,"translation":[-1.3449173,20.5648556,-1.40541863],"rotation":[0.0,-0.7071068,0.0,0.7071067],"scale":[0.350947827,0.630207658,0.385708],"name":"markerObj_tit2 (2)"},{"translation":[0.0,0.0,0.0],"rotation":[0.0,0.0,0.0,1.0],"scale":[1.0,1.0,1.0],"name":"Default light"}],"meshes":[{"primitives":[{"attributes":{"POSITION":1,"NORMAL":2,"TEXCOORD_0":3},"indices":0,"mode":4,"material":0}],"name":"Cylinder29959"},{"primitives":[{"attributes":{"POSITION":5,"NORMAL":6,"TEXCOORD_0":7},"indices":4}],"name":"markerObj_tit2"},{"primitives":[{"attributes":{"POSITION":9,"NORMAL":10,"TEXCOORD_0":11},"indices":8}],"name":"markerObj_tit2"},{"primitives":[{"attributes":{"POSITION":13,"NORMAL":14,"TEXCOORD_0":15},"indices":12}],"name":"markerObj_tit2"}],"accessors":[{"bufferView":0,"componentType":5123,"count":22704,"type":"SCALAR","name":"accessorIndices"},{"bufferView":1,"componentType":5126,"count":22704,"max":[66.59797,-2.49023069E-05,1.09472775],"min":[-66.59794,-36.3952751,-1.09450638],"type":"VEC3","name":"accessorPositions"},{"bufferView":1,"byteOffset":272448,"componentType":5126,"count":22704,"type":"VEC3","name":"accessorNormals"},{"bufferView":2,"componentType":5126,"count":22704,"type":"VEC2","name":"accessorUVs"},{"bufferView":0,"byteOffset":45408,"componentType":5123,"count":96,"type":"SCALAR","name":"accessorIndices"},{"bufferView":1,"byteOffset":544896,"componentType":5126,"count":96,"max":[3.733766,4.22077942,3.40909576],"min":[-3.733766,0.0,-3.40909576],"type":"VEC3","name":"accessorPositions"},{"bufferView":1,"byteOffset":546048,"componentType":5126,"count":96,"type":"VEC3","name":"accessorNormals"},{"bufferView":2,"byteOffset":181632,"componentType":5126,"count":96,"type":"VEC2","name":"accessorUVs"},{"bufferView":0,"byteOffset":45600,"componentType":5123,"count":96,"type":"SCALAR","name":"accessorIndices"},{"bufferView":1,"byteOffset":547200,"componentType":5126,"count":96,"max":[3.733766,4.22077942,3.40909576],"min":[-3.733766,0.0,-3.40908813],"type":"VEC3","name":"accessorPositions"},{"bufferView":1,"byteOffset":548352,"componentType":5126,"count":96,"type":"VEC3","name":"accessorNormals"},{"bufferView":2,"byteOffset":182400,"componentType":5126,"count":96,"type":"VEC2","name":"accessorUVs"},{"bufferView":0,"byteOffset":45792,"componentType":5123,"count":96,"type":"SCALAR","name":"accessorIndices"},{"bufferView":1,"byteOffset":549504,"componentType":5126,"count":96,"max":[3.73376632,4.22077942,3.40909123],"min":[-3.733766,0.0,-3.409091],"type":"VEC3","name":"accessorPositions"},{"bufferView":1,"byteOffset":550656,"componentType":5126,"count":96,"type":"VEC3","name":"accessorNormals"},{"bufferView":2,"byteOffset":183168,"componentType":5126,"count":96,"type":"VEC2","name":"accessorUVs"}],"bufferViews":[{"buffer":0,"byteLength":45984,"name":"bufferViewScalar"},{"buffer":0,"byteOffset":45984,"byteLength":551808,"byteStride":12,"name":"bufferViewFloatVec3"},{"buffer":0,"byteOffset":597792,"byteLength":183936,"byteStride":8,"name":"bufferViewFloatVec2"}],"buffers":[{"uri":"L9994WH.bin","byteLength":781728}],"materials":[{"pbrMetallicRoughness":{"baseColorFactor":[0.6125001,0.6125001,0.6125001,1.0],"metallicFactor":0.0,"roughnessFactor":0.9},"emissiveFactor":[0.0,0.0,0.0],"alphaMode":"OPAQUE","name":"m_base0"}]}