{"asset":{"version":"2.0","generator":"babylon.js glTF exporter for 3ds max 2015 v1.3.33"},"scene":0,"scenes":[{"nodes":[0,1],"extensions":{}}],"nodes":[{"mesh":0,"translation":[0.0,0.0,0.0],"rotation":[0.6532815,0.2705982,0.270598143,0.6532814],"scale":[0.432025641,0.676262856,0.432025641],"name":"Plane001"},{"translation":[0.0,0.0,0.0],"rotation":[0.0,0.0,0.0,1.0],"scale":[1.0,1.0,1.0],"name":"Default light"}],"meshes":[{"primitives":[{"attributes":{"POSITION":1,"NORMAL":2,"TEXCOORD_0":3},"indices":0,"mode":4,"material":0}],"name":"Plane001"}],"accessors":[{"bufferView":0,"componentType":5123,"count":4788,"type":"SCALAR","name":"accessorIndices"},{"bufferView":1,"componentType":5126,"count":4788,"max":[111.99662,26.2917347,44.4348831],"min":[-40.20428,-25.9625816,-84.71406],"type":"VEC3","name":"accessorPositions"},{"bufferView":1,"byteOffset":57456,"componentType":5126,"count":4788,"type":"VEC3","name":"accessorNormals"},{"bufferView":2,"componentType":5126,"count":4788,"type":"VEC2","name":"accessorUVs"}],"bufferViews":[{"buffer":0,"byteLength":9576,"name":"bufferViewScalar"},{"buffer":0,"byteOffset":9576,"byteLength":114912,"byteStride":12,"name":"bufferViewFloatVec3"},{"buffer":0,"byteOffset":124488,"byteLength":38304,"byteStride":8,"name":"bufferViewFloatVec2"}],"buffers":[{"uri":"pict_2.bin","byteLength":162792}],"materials":[{"pbrMetallicRoughness":{"baseColorFactor":[0.6125001,0.6125001,0.6125001,1.0],"metallicFactor":0.0,"roughnessFactor":0.9},"emissiveFactor":[0.0,0.0,0.0],"alphaMode":"OPAQUE","name":"m_10"}]}