{"asset":{"version":"2.0","generator":"babylon.js glTF exporter for 3ds max 2018 v1.4.0"},"scene":0,"scenes":[{"nodes":[0,1,2],"extensions":{}}],"nodes":[{"mesh":0,"translation":[0.0,0.0,-13.4392109],"rotation":[0.0,0.0,0.0,1.0],"scale":[1.0,1.0,1.0],"name":"Box004"},{"mesh":1,"translation":[0.0,0.0,0.0],"rotation":[-5.96046448E-08,0.0,0.0,1.0],"scale":[1.0,1.0,1.0],"name":"markerObj_tit0_"},{"translation":[0.0,0.0,0.0],"rotation":[0.0,0.0,0.0,1.0],"scale":[1.0,1.0,1.0],"name":"Default light"}],"meshes":[{"primitives":[{"attributes":{"POSITION":1,"NORMAL":2,"TEXCOORD_0":3},"indices":0,"mode":4,"material":0}],"name":"Box004"},{"primitives":[{"attributes":{"POSITION":5,"NORMAL":6,"TEXCOORD_0":7},"indices":4,"mode":4,"material":1}],"name":"markerObj_tit0_"}],"accessors":[{"bufferView":0,"componentType":5123,"count":36,"type":"SCALAR","name":"accessorIndices"},{"bufferView":1,"componentType":5126,"count":36,"max":[1.13444233,2.667864,8.748324],"min":[-1.13444233,0.0,-8.748324],"type":"VEC3","name":"accessorPositions"},{"bufferView":1,"byteOffset":432,"componentType":5126,"count":36,"type":"VEC3","name":"accessorNormals"},{"bufferView":2,"componentType":5126,"count":36,"type":"VEC2","name":"accessorUVs"},{"bufferView":0,"byteOffset":72,"componentType":5123,"count":864,"type":"SCALAR","name":"accessorIndices"},{"bufferView":1,"byteOffset":864,"componentType":5126,"count":864,"max":[7.25706768,13.8069973,7.25706768],"min":[-7.25706768,0.0,-7.25706768],"type":"VEC3","name":"accessorPositions"},{"bufferView":1,"byteOffset":11232,"componentType":5126,"count":864,"type":"VEC3","name":"accessorNormals"},{"bufferView":2,"byteOffset":288,"componentType":5126,"count":864,"type":"VEC2","name":"accessorUVs"}],"bufferViews":[{"buffer":0,"byteLength":1800,"name":"bufferViewScalar"},{"buffer":0,"byteOffset":1800,"byteLength":21600,"byteStride":12,"name":"bufferViewFloatVec3"},{"buffer":0,"byteOffset":23400,"byteLength":7200,"byteStride":8,"name":"bufferViewFloatVec2"}],"buffers":[{"uri":"t2.bin","byteLength":30600}],"materials":[{"pbrMetallicRoughness":{"baseColorFactor":[0.309803933,0.0372549035,0.0,1.0],"metallicFactor":0.0,"roughnessFactor":0.450053632},"emissiveFactor":[0.0,0.0,0.0],"alphaMode":"OPAQUE","name":"m_d5_"},{"pbrMetallicRoughness":{"baseColorFactor":[0.5,0.5,0.5,1.0],"baseColorTexture":{"index":0,"texCoord":0},"metallicFactor":0.0,"roughnessFactor":0.450053632},"emissiveFactor":[0.0,0.0,0.0],"alphaMode":"BLEND","name":"Material #47"}],"textures":[{"sampler":0,"source":0,"name":"0.png"}],"images":[{"uri":"0.png"}],"samplers":[{"magFilter":9729,"minFilter":9987,"wrapS":10497,"wrapT":10497}]}