{"asset":{"version":"2.0","generator":"babylon.js glTF exporter for 3ds max 2015 v1.3.33"},"scene":0,"scenes":[{"nodes":[0,1],"extensions":{}}],"nodes":[{"mesh":0,"translation":[0.0,0.0,0.0],"rotation":[-9.97480143E-08,-1.54543134E-08,-0.7071068,0.7071068],"scale":[1.0,1.0,1.0],"name":"058_Кронштейн_L9340-R_(437х80х12)_а010"},{"translation":[0.0,0.0,0.0],"rotation":[0.0,0.0,0.0,1.0],"scale":[1.0,1.0,1.0],"name":"Default light"}],"meshes":[{"primitives":[{"attributes":{"POSITION":1,"NORMAL":2,"TEXCOORD_0":3},"indices":0,"mode":4,"material":0}],"name":"058_Кронштейн_L9340-R_(437х80х12)_а010"}],"accessors":[{"bufferView":0,"componentType":5123,"count":3606,"type":"SCALAR","name":"accessorIndices"},{"bufferView":1,"componentType":5126,"count":3606,"max":[-4.2722715E-07,1.60580611,4.069207],"min":[-44.1982841,-1.60580528,-4.072302],"type":"VEC3","name":"accessorPositions"},{"bufferView":1,"byteOffset":43272,"componentType":5126,"count":3606,"type":"VEC3","name":"accessorNormals"},{"bufferView":2,"componentType":5126,"count":3606,"type":"VEC2","name":"accessorUVs"}],"bufferViews":[{"buffer":0,"byteLength":7212,"name":"bufferViewScalar"},{"buffer":0,"byteOffset":7212,"byteLength":86544,"byteStride":12,"name":"bufferViewFloatVec3"},{"buffer":0,"byteOffset":93756,"byteLength":28848,"byteStride":8,"name":"bufferViewFloatVec2"}],"buffers":[{"uri":"L9350WH.bin","byteLength":122604}],"materials":[{"pbrMetallicRoughness":{"baseColorFactor":[0.6125001,0.6125001,0.6125001,1.0],"metallicFactor":0.0,"roughnessFactor":0.9},"emissiveFactor":[0.0,0.0,0.0],"alphaMode":"OPAQUE","name":"m_base0"}]}