{"asset":{"version":"2.0","generator":"babylon.js glTF exporter for 3ds max 2015 v1.3.33"},"scene":0,"scenes":[{"nodes":[0,3],"extensions":{}}],"nodes":[{"children":[1,2],"translation":[0.0,0.0,0.0],"rotation":[0.0,0.0,0.0,1.0],"scale":[1.0,1.0,1.0],"name":"Group001"},{"mesh":0,"translation":[0.0173492432,21.9905434,-0.243229747],"rotation":[-0.499999642,-0.50000006,0.5,0.500000358],"scale":[1.0,1.0,1.0],"name":"Arc115"},{"mesh":1,"translation":[1.52587891E-05,21.2999916,-0.0499999523],"rotation":[-4.768373E-07,4.768373E-07,-2.38418352E-07,1.0],"scale":[1.0,1.0,1.0],"name":"Object4138"},{"translation":[0.0,0.0,0.0],"rotation":[0.0,0.0,0.0,1.0],"scale":[1.0,1.0,1.0],"name":"Default light"}],"meshes":[{"primitives":[{"attributes":{"POSITION":1,"NORMAL":2,"TEXCOORD_0":3},"indices":0,"mode":4,"material":0}],"name":"Arc115"},{"primitives":[{"attributes":{"POSITION":5,"NORMAL":6,"TEXCOORD_0":7},"indices":4,"mode":4,"material":0}],"name":"Object4138"}],"accessors":[{"bufferView":0,"componentType":5123,"count":8598,"type":"SCALAR","name":"accessorIndices"},{"bufferView":1,"componentType":5126,"count":8598,"max":[20.4759636,0.841169,28.1041431],"min":[-20.4740715,-0.8411691,-28.1041718],"type":"VEC3","name":"accessorPositions"},{"bufferView":1,"byteOffset":103176,"componentType":5126,"count":8598,"type":"VEC3","name":"accessorNormals"},{"bufferView":2,"componentType":5126,"count":8598,"type":"VEC2","name":"accessorUVs"},{"bufferView":0,"byteOffset":17196,"componentType":5123,"count":21372,"type":"SCALAR","name":"accessorIndices"},{"bufferView":1,"byteOffset":206352,"componentType":5126,"count":21372,"max":[29.9513683,21.3,1.200001],"min":[-29.951395,-21.3000031,-1.1000042],"type":"VEC3","name":"accessorPositions"},{"bufferView":1,"byteOffset":462816,"componentType":5126,"count":21372,"type":"VEC3","name":"accessorNormals"},{"bufferView":2,"byteOffset":68784,"componentType":5126,"count":21372,"type":"VEC2","name":"accessorUVs"}],"bufferViews":[{"buffer":0,"byteLength":59940,"name":"bufferViewScalar"},{"buffer":0,"byteOffset":59940,"byteLength":719280,"byteStride":12,"name":"bufferViewFloatVec3"},{"buffer":0,"byteOffset":779220,"byteLength":239760,"byteStride":8,"name":"bufferViewFloatVec2"}],"buffers":[{"uri":"L9601WHgggggg.bin","byteLength":1018980}],"materials":[{"pbrMetallicRoughness":{"baseColorFactor":[0.6125001,0.6125001,0.6125001,1.0],"metallicFactor":0.0,"roughnessFactor":0.9},"emissiveFactor":[0.0,0.0,0.0],"alphaMode":"OPAQUE","name":"m_base0"}]}