{"asset":{"version":"2.0","generator":"babylon.js glTF exporter for 3ds max 2015 v1.3.33"},"scene":0,"scenes":[{"nodes":[0,5],"extensions":{}}],"nodes":[{"children":[1,2,3,4],"translation":[-3.00286865,0.0,0.0],"rotation":[0.0,-1.49011612E-08,0.0,1.0],"scale":[1.0,1.0,1.0],"name":"Group006"},{"mesh":0,"translation":[0.0009801388,37.5783,0.000472660817],"rotation":[-0.976295948,-9.37457258E-08,-0.216439977,4.228589E-07],"scale":[0.09999999,-0.099999994,0.09999999],"name":"rubashka001"},{"translation":[1.19941461,74.1893158,1.48554552],"rotation":[-0.379928142,-0.5963679,-0.5963678,0.379928261],"scale":[0.099999994,0.099999994,0.099999994],"name":"Hangers003"},{"mesh":1,"translation":[1.19941449,74.1893,1.48554564],"rotation":[-0.379928142,-0.5963679,-0.5963678,0.379928261],"scale":[0.099999994,0.099999994,0.099999994],"name":"Object007"},{"mesh":2,"translation":[1.19941449,74.1893,1.48554564],"rotation":[-0.379928142,-0.5963679,-0.5963678,0.379928261],"scale":[0.099999994,0.099999994,0.099999994],"name":"Object008"},{"translation":[0.0,0.0,0.0],"rotation":[0.0,0.0,0.0,1.0],"scale":[1.0,1.0,1.0],"name":"Default light"}],"meshes":[{"primitives":[{"attributes":{"POSITION":1,"NORMAL":2,"TEXCOORD_0":3},"indices":0,"mode":4,"material":0}],"name":"rubashka001"},{"primitives":[{"attributes":{"POSITION":5,"NORMAL":6,"TEXCOORD_0":7},"indices":4,"mode":4,"material":1}],"name":"Object007"},{"primitives":[{"attributes":{"POSITION":9,"NORMAL":10,"TEXCOORD_0":11},"indices":8,"mode":4,"material":2}],"name":"Object008"}],"accessors":[{"bufferView":0,"componentType":5123,"count":5013,"type":"SCALAR","name":"accessorIndices"},{"bufferView":1,"componentType":5126,"count":5013,"max":[69.43064,376.5024,240.700775],"min":[-69.45238,-376.078247,-240.70076],"type":"VEC3","name":"accessorPositions"},{"bufferView":1,"byteOffset":60156,"componentType":5126,"count":5013,"type":"VEC3","name":"accessorNormals"},{"bufferView":2,"componentType":5126,"count":5013,"type":"VEC2","name":"accessorUVs"},{"bufferView":0,"byteOffset":10028,"componentType":5123,"count":1260,"type":"SCALAR","name":"accessorIndices"},{"bufferView":1,"byteOffset":120312,"componentType":5126,"count":1260,"max":[189.598282,8.863313,18.3955688],"min":[-189.598267,-8.863311,-94.30298],"type":"VEC3","name":"accessorPositions"},{"bufferView":1,"byteOffset":135432,"componentType":5126,"count":1260,"type":"VEC3","name":"accessorNormals"},{"bufferView":2,"byteOffset":40104,"componentType":5126,"count":1260,"type":"VEC2","name":"accessorUVs"},{"bufferView":0,"byteOffset":12548,"componentType":5123,"count":1026,"type":"SCALAR","name":"accessorIndices"},{"bufferView":1,"byteOffset":150552,"componentType":5126,"count":1026,"max":[32.8378143,7.040489,94.30298],"min":[-32.15166,3.65870762,12.7817383],"type":"VEC3","name":"accessorPositions"},{"bufferView":1,"byteOffset":162864,"componentType":5126,"count":1026,"type":"VEC3","name":"accessorNormals"},{"bufferView":2,"byteOffset":50184,"componentType":5126,"count":1026,"type":"VEC2","name":"accessorUVs"}],"bufferViews":[{"buffer":0,"byteLength":14600,"name":"bufferViewScalar"},{"buffer":0,"byteOffset":14600,"byteLength":175176,"byteStride":12,"name":"bufferViewFloatVec3"},{"buffer":0,"byteOffset":189776,"byteLength":58392,"byteStride":8,"name":"bufferViewFloatVec2"}],"buffers":[{"uri":"TS_1_1.bin","byteLength":248168}],"materials":[{"pbrMetallicRoughness":{"baseColorFactor":[0.7148694,0.612745166,0.8700982,1.0],"metallicFactor":0.0,"roughnessFactor":0.9},"emissiveFactor":[0.0,0.0,0.0],"alphaMode":"OPAQUE","name":"m_10"},{"pbrMetallicRoughness":{"baseColorFactor":[0.06535949,0.06535949,0.06535949,1.0],"metallicFactor":0.0,"roughnessFactor":0.9},"emissiveFactor":[0.0,0.0,0.0],"alphaMode":"OPAQUE","name":"m_31"},{"pbrMetallicRoughness":{"baseColorFactor":[0.212418333,0.416666746,0.6740197,1.0],"metallicFactor":0.0,"roughnessFactor":0.9},"emissiveFactor":[0.0,0.0,0.0],"alphaMode":"OPAQUE","name":"m_32"}]}