{"asset":{"version":"2.0","generator":"babylon.js glTF exporter for 3ds max 2015 v1.3.33"},"scene":0,"scenes":[{"nodes":[0,1],"extensions":{}}],"nodes":[{"mesh":0,"translation":[0.0,0.0,0.0],"rotation":[1.53133087E-07,1.84041724E-07,0.7071068,0.7071068],"scale":[0.0392240323,0.0392240323,0.0392240323],"name":" L9230WH "},{"translation":[0.0,0.0,0.0],"rotation":[0.0,0.0,0.0,1.0],"scale":[1.0,1.0,1.0],"name":"Default light"}],"meshes":[{"primitives":[{"attributes":{"POSITION":1,"NORMAL":2,"TEXCOORD_0":3},"indices":0,"mode":4,"material":0}],"name":" L9230WH "}],"accessors":[{"bufferView":0,"componentType":5123,"count":4008,"type":"SCALAR","name":"accessorIndices"},{"bufferView":1,"componentType":5126,"count":4008,"max":[848.3374,15.2399855,71.11997],"min":[1.4988658E-06,-15.2400217,-71.12006],"type":"VEC3","name":"accessorPositions"},{"bufferView":1,"byteOffset":48096,"componentType":5126,"count":4008,"type":"VEC3","name":"accessorNormals"},{"bufferView":2,"componentType":5126,"count":4008,"type":"VEC2","name":"accessorUVs"}],"bufferViews":[{"buffer":0,"byteLength":8016,"name":"bufferViewScalar"},{"buffer":0,"byteOffset":8016,"byteLength":96192,"byteStride":12,"name":"bufferViewFloatVec3"},{"buffer":0,"byteOffset":104208,"byteLength":32064,"byteStride":8,"name":"bufferViewFloatVec2"}],"buffers":[{"uri":"L9230WH.bin","byteLength":136272}],"materials":[{"pbrMetallicRoughness":{"baseColorFactor":[0.6125001,0.6125001,0.6125001,1.0],"metallicFactor":0.0,"roughnessFactor":0.9},"emissiveFactor":[0.0,0.0,0.0],"alphaMode":"OPAQUE","name":"m_base0"}]}